font.ufo
<glyph name="exclam" format="1">
  <advance width="213"/>
  <unicode hex="0021"/>
  <outline>
    <contour>
      <point x="47" y="40" type="curve" smooth="yes"/>
      <point x="47" y="73"/>
      <point x="73" y="100"/>
      <point x="106" y="100" type="curve" smooth="yes"/>
      <point x="139" y="100"/>
      <point x="166" y="73"/>
      <point x="166" y="40" type="curve" smooth="yes"/>
      <point x="166" y="7"/>
      <point x="139" y="-19"/>
      <point x="106" y="-19" type="curve" smooth="yes"/>
      <point x="73" y="-19"/>
      <point x="47" y="7"/>
    </contour>
    <contour>
      <point x="57" y="138" type="line"/>
      <point x="57" y="700" type="line"/>
      <point x="158" y="700" type="line"/>
      <point x="158" y="138" type="line"/>
    </contour>
  </outline>
</glyph>
<glyph name="numbersign" format="1">
  <advance width="796"/>
  <unicode hex="0023"/>
  <outline>
    <contour>
      <point x="54" y="189" type="line"/>
      <point x="73" y="284" type="line"/>
      <point x="224" y="284" type="line"/>
      <point x="246" y="417" type="line"/>
      <point x="88" y="417" type="line"/>
      <point x="105" y="512" type="line"/>
      <point x="263" y="512" type="line"/>
      <point x="293" y="682" type="line"/>
      <point x="388" y="682" type="line"/>
      <point x="358" y="511" type="line"/>
      <point x="490" y="511" type="line"/>
      <point x="519" y="682" type="line"/>
      <point x="614" y="682" type="line"/>
      <point x="584" y="511" type="line"/>
      <point x="735" y="511" type="line"/>
      <point x="720" y="416" type="line"/>
      <point x="568" y="417" type="line"/>
      <point x="544" y="283" type="line"/>
      <point x="700" y="283" type="line"/>
      <point x="686" y="188" type="line"/>
      <point x="528" y="189" type="line"/>
      <point x="498" y="22" type="line"/>
      <point x="404" y="22" type="line"/>
      <point x="432" y="189" type="line"/>
      <point x="302" y="189" type="line"/>
      <point x="272" y="22" type="line"/>
      <point x="177" y="22" type="line"/>
      <point x="206" y="189" type="line"/>
    </contour>
    <contour>
      <point x="318" y="284" type="line"/>
      <point x="450" y="283" type="line"/>
      <point x="472" y="417" type="line"/>
      <point x="342" y="417" type="line"/>
    </contour>
  </outline>
</glyph>
<glyph name="dollar" format="1">
  <advance width="481"/>
  <unicode hex="0024"/>
  <outline>
    <contour>
      <point x="20" y="158" type="curve"/>
      <point x="118" y="193" type="line"/>
      <point x="128" y="113"/>
      <point x="205" y="98"/>
      <point x="205" y="98" type="curve"/>
      <point x="205" y="-47" type="line"/>
      <point x="147" y="-47" type="line"/>
      <point x="147" y="9" type="line"/>
      <point x="69" y="35"/>
      <point x="21" y="113"/>
    </contour>
    <contour>
      <point x="28" y="510" type="curve" smooth="yes"/>
      <point x="28" y="608"/>
      <point x="93" y="662"/>
      <point x="147" y="684" type="curve"/>
      <point x="147" y="750" type="line"/>
      <point x="205" y="750" type="line"/>
      <point x="205" y="598" type="line"/>
      <point x="180" y="594"/>
      <point x="132" y="564"/>
      <point x="132" y="511" type="curve" smooth="yes"/>
      <point x="132" y="469"/>
      <point x="165" y="449"/>
      <point x="205" y="433" type="curve"/>
      <point x="205" y="317" type="line"/>
      <point x="184" y="323"/>
      <point x="166" y="328"/>
      <point x="151" y="335" type="curve" smooth="yes"/>
      <point x="79" y="367"/>
      <point x="28" y="409"/>
    </contour>
    <contour>
      <point x="256" y="-47" type="line"/>
      <point x="256" y="98" type="line"/>
      <point x="290" y="100"/>
      <point x="352" y="134"/>
      <point x="352" y="205" type="curve" smooth="yes"/>
      <point x="352" y="260"/>
      <point x="305" y="283"/>
      <point x="256" y="299" type="curve"/>
      <point x="256" y="413" type="line"/>
      <point x="284" y="404"/>
      <point x="311" y="395"/>
      <point x="333" y="385" type="curve" smooth="yes"/>
      <point x="397" y="354"/>
      <point x="461" y="311"/>
      <point x="461" y="207" type="curve" smooth="yes"/>
      <point x="461" y="118"/>
      <point x="398" y="35"/>
      <point x="314" y="8" type="curve"/>
      <point x="314" y="-47" type="line"/>
    </contour>
    <contour>
      <point x="256" y="598" type="curve"/>
      <point x="256" y="750" type="line"/>
      <point x="314" y="750" type="line"/>
      <point x="314" y="687" type="line"/>
      <point x="386" y="659"/>
      <point x="427" y="584"/>
      <point x="433" y="553" type="curve"/>
      <point x="332" y="520" type="line"/>
      <point x="319" y="589"/>
      <point x="256" y="598"/>
    </contour>
  </outline>
</glyph>
<glyph name="percent" format="1">
  <advance width="513"/>
  <unicode hex="0025"/>
  <outline>
    <contour>
      <point x="40" y="575" type="curve" smooth="yes"/>
      <point x="40" y="621"/>
      <point x="77" y="657"/>
      <point x="122" y="657" type="curve" smooth="yes"/>
      <point x="167" y="657"/>
      <point x="204" y="621"/>
      <point x="204" y="575" type="curve" smooth="yes"/>
      <point x="204" y="530"/>
      <point x="167" y="494"/>
      <point x="122" y="494" type="curve" smooth="yes"/>
      <point x="77" y="494"/>
      <point x="40" y="530"/>
    </contour>
    <contour>
      <point x="117" y="-23" type="line"/>
      <point x="292" y="716" type="line"/>
      <point x="391" y="716" type="line"/>
      <point x="217" y="-23" type="line"/>
    </contour>
    <contour>
      <point x="309" y="116" type="curve" smooth="yes"/>
      <point x="309" y="162"/>
      <point x="345" y="198"/>
      <point x="390" y="198" type="curve" smooth="yes"/>
      <point x="436" y="198"/>
      <point x="472" y="162"/>
      <point x="472" y="116" type="curve" smooth="yes"/>
      <point x="472" y="71"/>
      <point x="436" y="35"/>
      <point x="390" y="35" type="curve" smooth="yes"/>
      <point x="345" y="35"/>
      <point x="309" y="71"/>
    </contour>
  </outline>
</glyph>
<glyph name="quotesingle" format="1">
  <advance width="184"/>
  <unicode hex="0027"/>
  <outline>
    <contour>
      <point x="43" y="465" type="line"/>
      <point x="43" y="736" type="line"/>
      <point x="142" y="736" type="line"/>
      <point x="142" y="465" type="line"/>
    </contour>
  </outline>
</glyph>
<glyph name="parenleft" format="1">
  <advance width="213"/>
  <unicode hex="0028"/>
  <outline>
    <contour>
      <point x="40" y="189" type="curve"/>
      <point x="40" y="510" type="line"/>
      <point x="40" y="652"/>
      <point x="106" y="690"/>
      <point x="192" y="725" type="curve"/>
      <point x="193" y="659" type="line"/>
      <point x="154" y="636"/>
      <point x="124" y="609"/>
      <point x="123" y="521" type="curve" smooth="yes"/>
      <point x="123" y="219" type="line" smooth="yes"/>
      <point x="123" y="217"/>
      <point x="123" y="200"/>
      <point x="123" y="198" type="curve" smooth="yes"/>
      <point x="123" y="96"/>
      <point x="158" y="62"/>
      <point x="193" y="40" type="curve"/>
      <point x="193" y="-27" type="line"/>
      <point x="62" y="32"/>
      <point x="40" y="95"/>
    </contour>
  </outline>
</glyph>
<glyph name="parenright" format="1">
  <advance width="216"/>
  <unicode hex="0029"/>
  <outline>
    <contour>
      <point x="26" y="-28" type="curve"/>
      <point x="26" y="39" type="line"/>
      <point x="62" y="62"/>
      <point x="99" y="93"/>
      <point x="99" y="204" type="curve" smooth="yes"/>
      <point x="99" y="521" type="line" smooth="yes"/>
      <point x="99" y="605"/>
      <point x="65" y="637"/>
      <point x="26" y="660" type="curve"/>
      <point x="27" y="727" type="line"/>
      <point x="129" y="687"/>
      <point x="182" y="636"/>
      <point x="182" y="510" type="curve" smooth="yes"/>
      <point x="182" y="191" type="line" smooth="yes"/>
      <point x="182" y="117"/>
      <point x="167" y="30"/>
    </contour>
  </outline>
</glyph>
<glyph name="asterisk" format="1">
  <advance width="318"/>
  <unicode hex="002A"/>
  <outline>
    <contour>
      <point x="16" y="695" type="line"/>
      <point x="52" y="744" type="line"/>
      <point x="127" y="696" type="line"/>
      <point x="127" y="785" type="line"/>
      <point x="188" y="785" type="line"/>
      <point x="188" y="693" type="line"/>
      <point x="267" y="744" type="line"/>
      <point x="303" y="695" type="line"/>
      <point x="209" y="632" type="line"/>
      <point x="302" y="568" type="line"/>
      <point x="267" y="519" type="line"/>
      <point x="188" y="575" type="line"/>
      <point x="188" y="478" type="line"/>
      <point x="127" y="478" type="line"/>
      <point x="127" y="574" type="line"/>
      <point x="51" y="521" type="line"/>
      <point x="16" y="570" type="line"/>
      <point x="110" y="633" type="line"/>
    </contour>
  </outline>
</glyph>
<glyph name="plus" format="1">
  <advance width="405"/>
  <unicode hex="002B"/>
  <outline>
    <contour>
      <point x="15" y="244" type="line"/>
      <point x="15" y="343" type="line"/>
      <point x="152" y="343" type="line"/>
      <point x="152" y="498" type="line"/>
      <point x="251" y="498" type="line"/>
      <point x="251" y="343" type="line"/>
      <point x="390" y="343" type="line"/>
      <point x="390" y="244" type="line"/>
      <point x="251" y="244" type="line"/>
      <point x="251" y="87" type="line"/>
      <point x="152" y="87" type="line"/>
      <point x="152" y="244" type="line"/>
    </contour>
  </outline>
</glyph>
<glyph name="comma" format="1">
  <advance width="237"/>
  <unicode hex="002C"/>
  <outline>
    <contour>
      <point x="51" y="-23" type="line"/>
      <point x="88" y="129" type="line"/>
      <point x="187" y="129" type="line"/>
      <point x="150" y="-23" type="line"/>
    </contour>
  </outline>
</glyph>
<glyph name="period" format="1">
  <advance width="149"/>
  <unicode hex="002E"/>
  <outline>
    <contour>
      <point x="15" y="37" type="curve" smooth="yes"/>
      <point x="15" y="70"/>
      <point x="41" y="97"/>
      <point x="74" y="97" type="curve" smooth="yes"/>
      <point x="107" y="97"/>
      <point x="134" y="70"/>
      <point x="134" y="37" type="curve" smooth="yes"/>
      <point x="134" y="4"/>
      <point x="107" y="-22"/>
      <point x="74" y="-22" type="curve" smooth="yes"/>
      <point x="41" y="-22"/>
      <point x="15" y="4"/>
    </contour>
  </outline>
</glyph>
<glyph name="slash" format="1">
  <advance width="373"/>
  <unicode hex="002F"/>
  <outline>
    <contour>
      <point x="50" y="-23" type="line"/>
      <point x="225" y="716" type="line"/>
      <point x="323" y="716" type="line"/>
      <point x="149" y="-23" type="line"/>
    </contour>
  </outline>
</glyph>
<glyph name="zero" format="1">
  <advance width="506"/>
  <unicode hex="0030"/>
  <outline>
    <contour>
      <point x="40" y="353" type="curve" smooth="yes"/>
      <point x="40" y="602"/>
      <point x="134" y="693"/>
      <point x="223" y="698" type="curve"/>
      <point x="223" y="601" type="line"/>
      <point x="171" y="592"/>
      <point x="139" y="500"/>
      <point x="138" y="398" type="curve" smooth="yes"/>
      <point x="138" y="371"/>
      <point x="138" y="360"/>
      <point x="138" y="339" type="curve" smooth="yes"/>
      <point x="138" y="198"/>
      <point x="171" y="106"/>
      <point x="222" y="96" type="curve"/>
      <point x="222" y="0" type="line"/>
      <point x="156" y="3"/>
      <point x="40" y="60"/>
    </contour>
    <contour>
      <point x="283" y="601" type="curve"/>
      <point x="283" y="698" type="line"/>
      <point x="372" y="693"/>
      <point x="466" y="602"/>
      <point x="466" y="353" type="curve" smooth="yes"/>
      <point x="466" y="60"/>
      <point x="350" y="3"/>
      <point x="284" y="0" type="curve"/>
      <point x="284" y="96" type="line"/>
      <point x="339" y="108"/>
      <point x="368" y="197"/>
      <point x="368" y="339" type="curve" smooth="yes"/>
      <point x="368" y="360"/>
      <point x="368" y="371"/>
      <point x="368" y="398" type="curve" smooth="yes"/>
      <point x="368" y="498"/>
      <point x="336" y="592"/>
    </contour>
  </outline>
</glyph>
<glyph name="two" format="1">
  <advance width="485"/>
  <unicode hex="0032"/>
  <outline>
    <contour>
      <point x="30" y="520" type="line"/>
      <point x="39" y="604"/>
      <point x="101" y="688"/>
      <point x="199" y="699" type="curve"/>
      <point x="199" y="601" type="line" smooth="yes"/>
      <point x="199" y="601"/>
      <point x="130" y="590"/>
      <point x="122" y="500" type="curve"/>
    </contour>
    <contour>
      <point x="49" y="0" type="line"/>
      <point x="49" y="99" type="line"/>
      <point x="453" y="99" type="line"/>
      <point x="453" y="0" type="line"/>
    </contour>
    <contour>
      <point x="50" y="147" type="line"/>
      <point x="91" y="288"/>
      <point x="226" y="349"/>
      <point x="258" y="372" type="curve" smooth="yes"/>
      <point x="305" y="406"/>
      <point x="363" y="425"/>
      <point x="363" y="496" type="curve" smooth="yes"/>
      <point x="363" y="557"/>
      <point x="332" y="601"/>
      <point x="251" y="602" type="curve"/>
      <point x="251" y="700" type="line"/>
      <point x="409" y="700"/>
      <point x="459" y="585"/>
      <point x="459" y="496" type="curve" smooth="yes"/>
      <point x="458" y="397"/>
      <point x="411" y="361"/>
      <point x="347" y="319" type="curve" smooth="yes"/>
      <point x="275" y="273"/>
      <point x="190" y="232"/>
      <point x="167" y="147" type="curve"/>
    </contour>
  </outline>
</glyph>
<glyph name="three" format="1">
  <advance width="484"/>
  <unicode hex="0033"/>
  <outline>
    <contour>
      <point x="26" y="97" type="curve"/>
      <point x="109" y="146" type="line"/>
      <point x="131" y="109"/>
      <point x="154" y="97"/>
      <point x="195" y="95" type="curve"/>
      <point x="195" y="-1" type="line"/>
      <point x="117" y="-1"/>
      <point x="60" y="30"/>
    </contour>
    <contour>
      <point x="26" y="600" type="line"/>
      <point x="59" y="656"/>
      <point x="117" y="698"/>
      <point x="195" y="698" type="curve"/>
      <point x="195" y="600" type="line"/>
      <point x="164" y="599"/>
      <point x="130" y="585"/>
      <point x="109" y="551" type="curve"/>
    </contour>
    <contour>
      <point x="254" y="0" type="curve"/>
      <point x="254" y="95" type="line"/>
      <point x="297" y="95"/>
      <point x="356" y="137"/>
      <point x="356" y="201" type="curve" smooth="yes"/>
      <point x="356" y="267"/>
      <point x="331" y="300"/>
      <point x="220" y="300" type="curve"/>
      <point x="220" y="396" type="line"/>
      <point x="334" y="396"/>
      <point x="354" y="433"/>
      <point x="354" y="499" type="curve" smooth="yes"/>
      <point x="354" y="572"/>
      <point x="295" y="602"/>
      <point x="252" y="602" type="curve"/>
      <point x="252" y="698" type="line"/>
      <point x="386" y="695"/>
      <point x="453" y="582"/>
      <point x="453" y="508" type="curve" smooth="yes"/>
      <point x="453" y="411"/>
      <point x="422" y="366"/>
      <point x="391" y="350" type="curve"/>
      <point x="419" y="331"/>
      <point x="458" y="284"/>
      <point x="458" y="199" type="curve" smooth="yes"/>
      <point x="458" y="74"/>
      <point x="336" y="0"/>
    </contour>
  </outline>
</glyph>
<glyph name="five" format="1">
  <advance width="475"/>
  <unicode hex="0035"/>
  <outline>
    <contour>
      <point x="20" y="354" type="line"/>
      <point x="49" y="700" type="line"/>
      <point x="403" y="700" type="line"/>
      <point x="403" y="602" type="line"/>
      <point x="139" y="601" type="line"/>
      <point x="125" y="428" type="line"/>
      <point x="142" y="437"/>
      <point x="167" y="447"/>
      <point x="199" y="447" type="curve"/>
      <point x="199" y="351" type="line"/>
      <point x="160" y="349"/>
      <point x="129" y="328"/>
      <point x="107" y="300" type="curve"/>
    </contour>
    <contour>
      <point x="22" y="107" type="curve"/>
      <point x="103" y="160" type="line"/>
      <point x="125" y="120"/>
      <point x="157" y="103"/>
      <point x="199" y="98" type="curve"/>
      <point x="199" y="0" type="line"/>
      <point x="115" y="0"/>
      <point x="54" y="46"/>
    </contour>
    <contour>
      <point x="250" y="0" type="curve"/>
      <point x="250" y="98" type="line"/>
      <point x="304" y="104"/>
      <point x="360" y="149"/>
      <point x="360" y="224" type="curve" smooth="yes"/>
      <point x="360" y="308"/>
      <point x="297" y="348"/>
      <point x="250" y="351" type="curve"/>
      <point x="250" y="447" type="line"/>
      <point x="395" y="445"/>
      <point x="460" y="333"/>
      <point x="460" y="223" type="curve" smooth="yes"/>
      <point x="460" y="81"/>
      <point x="355" y="2"/>
    </contour>
  </outline>
</glyph>
<glyph name="six" format="1">
  <advance width="510"/>
  <unicode hex="0036"/>
  <outline>
    <contour>
      <point x="172" y="404" type="curve" smooth="yes"/>
      <point x="172" y="410"/>
      <point x="181" y="426"/>
      <point x="238" y="432" type="curve"/>
      <point x="224" y="432"/>
      <point x="192" y="400"/>
      <point x="192" y="360" type="curve"/>
      <point x="144" y="322"/>
      <point x="159" y="229"/>
      <point x="185" y="187" type="curve"/>
      <point x="197" y="211"/>
      <point x="219" y="135"/>
      <point x="239" y="135" type="curve"/>
      <point x="120" y="135"/>
      <point x="101" y="250"/>
      <point x="101" y="367" type="curve"/>
      <point x="69" y="447"/>
      <point x="73" y="566"/>
      <point x="190" y="541" type="curve" smooth="yes"/>
      <point x="190" y="526"/>
      <point x="201" y="401"/>
      <point x="239" y="401" type="curve"/>
      <point x="196" y="396"/>
      <point x="186" y="304"/>
      <point x="186" y="271" type="curve"/>
      <point x="142" y="281"/>
      <point x="159" y="344"/>
    </contour>
    <contour>
      <point x="290" y="-1" type="curve"/>
      <point x="290" y="95" type="line"/>
      <point x="345" y="98"/>
      <point x="389" y="152"/>
      <point x="389" y="209" type="curve" smooth="yes"/>
      <point x="389" y="304"/>
      <point x="326" y="335"/>
      <point x="290" y="335" type="curve"/>
      <point x="290" y="425" type="line"/>
      <point x="414" y="425"/>
      <point x="480" y="328"/>
      <point x="480" y="210" type="curve" smooth="yes"/>
      <point x="480" y="85"/>
      <point x="391" y="0"/>
    </contour>
    <contour>
      <point x="290" y="601" type="curve"/>
      <point x="290" y="698" type="line"/>
      <point x="368" y="698"/>
      <point x="424" y="659"/>
      <point x="459" y="600" type="curve"/>
      <point x="384" y="550" type="line"/>
      <point x="365" y="579"/>
      <point x="339" y="601"/>
    </contour>
  </outline>
</glyph>
<glyph name="seven" format="1">
  <advance width="435"/>
  <unicode hex="0037"/>
  <outline>
    <contour>
      <point x="20" y="600" type="line"/>
      <point x="20" y="698" type="line"/>
      <point x="409" y="698" type="line"/>
      <point x="409" y="601" type="line"/>
      <point x="401" y="594"/>
      <point x="375" y="520"/>
      <point x="370" y="507" type="curve"/>
      <point x="265" y="507" type="line"/>
      <point x="293" y="600" type="line"/>
    </contour>
    <contour>
      <point x="166" y="0" type="line"/>
      <point x="183" y="158"/>
      <point x="212" y="297"/>
      <point x="254" y="452" type="curve"/>
      <point x="357" y="452" type="line"/>
      <point x="318" y="302"/>
      <point x="289" y="154"/>
      <point x="273" y="0" type="curve"/>
    </contour>
  </outline>
</glyph>
<glyph name="eight" format="1">
  <advance width="482"/>
  <unicode hex="0038"/>
  <outline>
    <contour>
      <point x="22" y="199" type="curve" smooth="yes"/>
      <point x="22" y="276"/>
      <point x="64" y="330"/>
      <point x="92" y="349" type="curve"/>
      <point x="78" y="352"/>
      <point x="29" y="411"/>
      <point x="29" y="499" type="curve" smooth="yes"/>
      <point x="29" y="618"/>
      <point x="138" y="698"/>
      <point x="213" y="698" type="curve"/>
      <point x="213" y="599" type="line"/>
      <point x="171" y="596"/>
      <point x="126" y="557"/>
      <point x="126" y="498" type="curve" smooth="yes"/>
      <point x="126" y="438"/>
      <point x="153" y="406"/>
      <point x="212" y="399" type="curve"/>
      <point x="212" y="298" type="line"/>
      <point x="169" y="292"/>
      <point x="122" y="270"/>
      <point x="122" y="200" type="curve" smooth="yes"/>
      <point x="122" y="141"/>
      <point x="177" y="104"/>
      <point x="210" y="97" type="curve"/>
      <point x="210" y="0" type="line"/>
      <point x="209" y="0" type="line" smooth="yes"/>
      <point x="165" y="0"/>
      <point x="22" y="53"/>
    </contour>
    <contour>
      <point x="266" y="599" type="curve"/>
      <point x="266" y="698" type="line"/>
      <point x="342" y="698"/>
      <point x="448" y="617"/>
      <point x="448" y="499" type="curve" smooth="yes"/>
      <point x="448" y="410"/>
      <point x="401" y="352"/>
      <point x="387" y="349" type="curve"/>
      <point x="415" y="330"/>
      <point x="456" y="279"/>
      <point x="456" y="198" type="curve" smooth="yes"/>
      <point x="456" y="55"/>
      <point x="316" y="0"/>
      <point x="270" y="0" type="curve" smooth="yes"/>
      <point x="269" y="0" type="line"/>
      <point x="269" y="97" type="line"/>
      <point x="304" y="103"/>
      <point x="357" y="141"/>
      <point x="357" y="199" type="curve" smooth="yes"/>
      <point x="357" y="276"/>
      <point x="303" y="292"/>
      <point x="267" y="298" type="curve"/>
      <point x="267" y="399" type="line"/>
      <point x="329" y="406"/>
      <point x="352" y="436"/>
      <point x="352" y="498" type="curve" smooth="yes"/>
      <point x="352" y="558"/>
      <point x="308" y="596"/>
    </contour>
  </outline>
</glyph>
<glyph name="colon" format="1">
  <advance width="219"/>
  <unicode hex="003A"/>
  <outline>
    <contour>
      <point x="50" y="54" type="curve" smooth="yes"/>
      <point x="50" y="87"/>
      <point x="76" y="114"/>
      <point x="109" y="114" type="curve" smooth="yes"/>
      <point x="142" y="114"/>
      <point x="169" y="87"/>
      <point x="169" y="54" type="curve" smooth="yes"/>
      <point x="169" y="21"/>
      <point x="142" y="-5"/>
      <point x="109" y="-5" type="curve" smooth="yes"/>
      <point x="76" y="-5"/>
      <point x="50" y="21"/>
    </contour>
    <contour>
      <point x="50" y="344" type="curve" smooth="yes"/>
      <point x="50" y="377"/>
      <point x="77" y="404"/>
      <point x="110" y="404" type="curve" smooth="yes"/>
      <point x="143" y="404"/>
      <point x="169" y="377"/>
      <point x="169" y="344" type="curve" smooth="yes"/>
      <point x="169" y="311"/>
      <point x="143" y="285"/>
      <point x="110" y="285" type="curve" smooth="yes"/>
      <point x="77" y="285"/>
      <point x="50" y="311"/>
    </contour>
  </outline>
</glyph>
<glyph name="semicolon" format="1">
  <advance width="262"/>
  <unicode hex="003B"/>
  <outline>
    <contour>
      <point x="50" y="-23" type="line"/>
      <point x="87" y="129" type="line"/>
      <point x="186" y="129" type="line"/>
      <point x="149" y="-23" type="line"/>
    </contour>
    <contour>
      <point x="93" y="344" type="curve" smooth="yes"/>
      <point x="93" y="377"/>
      <point x="119" y="404"/>
      <point x="152" y="404" type="curve" smooth="yes"/>
      <point x="185" y="404"/>
      <point x="212" y="377"/>
      <point x="212" y="344" type="curve" smooth="yes"/>
      <point x="212" y="311"/>
      <point x="185" y="285"/>
      <point x="152" y="285" type="curve" smooth="yes"/>
      <point x="119" y="285"/>
      <point x="93" y="311"/>
    </contour>
  </outline>
</glyph>
<glyph name="less" format="1">
  <advance width="414"/>
  <unicode hex="003C"/>
  <outline>
    <contour>
      <point x="30" y="264" type="line"/>
      <point x="30" y="318" type="line"/>
      <point x="384" y="500" type="line"/>
      <point x="384" y="399" type="line"/>
      <point x="166" y="292" type="line"/>
      <point x="384" y="178" type="line"/>
      <point x="384" y="79" type="line"/>
    </contour>
  </outline>
</glyph>
<glyph name="greater" format="1">
  <advance width="414"/>
  <unicode hex="003E"/>
  <outline>
    <contour>
      <point x="30" y="79" type="line"/>
      <point x="30" y="178" type="line"/>
      <point x="248" y="292" type="line"/>
      <point x="30" y="399" type="line"/>
      <point x="30" y="500" type="line"/>
      <point x="384" y="318" type="line"/>
      <point x="384" y="264" type="line"/>
    </contour>
  </outline>
</glyph>
<glyph name="question" format="1">
  <advance width="460"/>
  <unicode hex="003F"/>
  <outline>
    <contour>
      <point x="30" y="611" type="line"/>
      <point x="60" y="649"/>
      <point x="110" y="703"/>
      <point x="218" y="703" type="curve" smooth="yes"/>
      <point x="346" y="703"/>
      <point x="426" y="620"/>
      <point x="430" y="491" type="curve"/>
      <point x="430" y="294"/>
      <point x="248" y="276"/>
      <point x="248" y="276" type="curve"/>
      <point x="248" y="136" type="line"/>
      <point x="148" y="136" type="line"/>
      <point x="148" y="364" type="line"/>
      <point x="265" y="366"/>
      <point x="331" y="390"/>
      <point x="331" y="492" type="curve" smooth="yes"/>
      <point x="331" y="558"/>
      <point x="279" y="603"/>
      <point x="213" y="603" type="curve" smooth="yes"/>
      <point x="155" y="603"/>
      <point x="115" y="572"/>
      <point x="94" y="544" type="curve"/>
    </contour>
    <contour>
      <point x="138" y="37" type="curve" smooth="yes"/>
      <point x="138" y="70"/>
      <point x="164" y="97"/>
      <point x="197" y="97" type="curve" smooth="yes"/>
      <point x="230" y="97"/>
      <point x="257" y="70"/>
      <point x="257" y="37" type="curve" smooth="yes"/>
      <point x="257" y="4"/>
      <point x="230" y="-22"/>
      <point x="197" y="-22" type="curve" smooth="yes"/>
      <point x="164" y="-22"/>
      <point x="138" y="4"/>
    </contour>
  </outline>
</glyph>
<glyph name="at" format="1">
  <advance width="777"/>
  <unicode hex="0040"/>
  <outline>
    <contour>
      <point x="16" y="309" type="curve" smooth="yes"/>
      <point x="16" y="529"/>
      <point x="190" y="703"/>
      <point x="435" y="703" type="curve" smooth="yes"/>
      <point x="589" y="703"/>
      <point x="760" y="605"/>
      <point x="760" y="412" type="curve" smooth="yes"/>
      <point x="760" y="195"/>
      <point x="618" y="130"/>
      <point x="523" y="130" type="curve" smooth="yes"/>
      <point x="486" y="130"/>
      <point x="452" y="157"/>
      <point x="444" y="180" type="curve"/>
      <point x="431" y="159"/>
      <point x="398" y="133"/>
      <point x="339" y="133" type="curve" smooth="yes"/>
      <point x="269" y="133"/>
      <point x="210" y="205"/>
      <point x="210" y="294" type="curve" smooth="yes"/>
      <point x="210" y="438"/>
      <point x="323" y="507"/>
      <point x="400" y="507" type="curve" smooth="yes"/>
      <point x="459" y="507"/>
      <point x="480" y="483"/>
      <point x="494" y="468" type="curve"/>
      <point x="501" y="493" type="line"/>
      <point x="571" y="493" type="line"/>
      <point x="524" y="308" type="line" smooth="yes"/>
      <point x="521" y="297"/>
      <point x="517" y="280"/>
      <point x="516" y="266" type="curve" smooth="yes"/>
      <point x="514" y="249"/>
      <point x="524" y="226"/>
      <point x="546" y="226" type="curve" smooth="yes"/>
      <point x="583" y="226"/>
      <point x="666" y="263"/>
      <point x="666" y="412" type="curve" smooth="yes"/>
      <point x="666" y="538"/>
      <point x="543" y="614"/>
      <point x="437" y="614" type="curve" smooth="yes"/>
      <point x="263" y="614"/>
      <point x="110" y="486"/>
      <point x="110" y="311" type="curve" smooth="yes"/>
      <point x="110" y="121"/>
      <point x="240" y="10"/>
      <point x="403" y="10" type="curve" smooth="yes"/>
      <point x="496" y="10"/>
      <point x="579" y="38"/>
      <point x="659" y="94" type="curve"/>
      <point x="699" y="21" type="line"/>
      <point x="636" y="-34"/>
      <point x="525" y="-76"/>
      <point x="410" y="-76" type="curve" smooth="yes"/>
      <point x="182" y="-76"/>
      <point x="16" y="68"/>
    </contour>
  </outline>
</glyph>
<glyph name="A" format="1">
  <advance width="498"/>
  <unicode hex="0041"/>
  <outline>
    <contour>
      <point x="32" y="0" type="line"/>
      <point x="164" y="587" type="line"/>
      <point x="179" y="587" type="line"/>
      <point x="223" y="383" type="line"/>
      <point x="139" y="0" type="line"/>
    </contour>
    <contour>
      <point x="213" y="101" type="line"/>
      <point x="236" y="207" type="line"/>
      <point x="315" y="207" type="line"/>
      <point x="207" y="699" type="line"/>
      <point x="314" y="699" type="line"/>
      <point x="466" y="0" type="line"/>
      <point x="360" y="0" type="line"/>
      <point x="337" y="101" type="line"/>
    </contour>
  </outline>
</glyph>
<glyph name="B" format="1">
  <advance width="496"/>
  <unicode hex="0042"/>
  <outline>
    <contour>
      <point x="42" y="0" type="line"/>
      <point x="42" y="700" type="line"/>
      <point x="151" y="700" type="line"/>
      <point x="151" y="0" type="line"/>
    </contour>
    <contour>
      <point x="202" y="0" type="curve"/>
      <point x="202" y="95" type="line"/>
      <point x="210" y="95"/>
      <point x="234" y="95"/>
      <point x="235" y="95" type="curve" smooth="yes"/>
      <point x="344" y="96"/>
      <point x="370" y="164"/>
      <point x="370" y="205" type="curve" smooth="yes"/>
      <point x="370" y="243"/>
      <point x="350" y="302"/>
      <point x="257" y="303" type="curve" smooth="yes"/>
      <point x="256" y="303"/>
      <point x="209" y="303"/>
      <point x="202" y="303" type="curve"/>
      <point x="202" y="398" type="line"/>
      <point x="208" y="398"/>
      <point x="257" y="398"/>
      <point x="259" y="398" type="curve" smooth="yes"/>
      <point x="332" y="400"/>
      <point x="367" y="441"/>
      <point x="367" y="497" type="curve" smooth="yes"/>
      <point x="367" y="552"/>
      <point x="325" y="602"/>
      <point x="246" y="604" type="curve" smooth="yes"/>
      <point x="245" y="604"/>
      <point x="210" y="604"/>
      <point x="202" y="604" type="curve"/>
      <point x="202" y="700" type="line"/>
      <point x="210" y="701"/>
      <point x="255" y="701"/>
      <point x="260" y="701" type="curve" smooth="yes"/>
      <point x="412" y="701"/>
      <point x="470" y="578"/>
      <point x="470" y="508" type="curve" smooth="yes"/>
      <point x="469" y="423"/>
      <point x="436" y="378"/>
      <point x="401" y="352" type="curve"/>
      <point x="440" y="321"/>
      <point x="474" y="285"/>
      <point x="474" y="200" type="curve" smooth="yes"/>
      <point x="473" y="86"/>
      <point x="382" y="-2"/>
      <point x="264" y="-2" type="curve" smooth="yes"/>
      <point x="258" y="-2"/>
      <point x="211" y="-1"/>
    </contour>
  </outline>
</glyph>
<glyph name="C" format="1">
  <advance width="494"/>
  <unicode hex="0043"/>
  <outline>
    <contour>
      <point x="38" y="181" type="curve"/>
      <point x="38" y="518" type="line"/>
      <point x="38" y="578"/>
      <point x="92" y="705"/>
      <point x="236" y="705" type="curve"/>
      <point x="236" y="597" type="line"/>
      <point x="169" y="596"/>
      <point x="147" y="537"/>
      <point x="147" y="518" type="curve"/>
      <point x="147" y="181" type="line"/>
      <point x="147" y="162"/>
      <point x="169" y="103"/>
      <point x="236" y="103" type="curve"/>
      <point x="236" y="-5" type="line"/>
      <point x="92" y="-5"/>
      <point x="38" y="121"/>
    </contour>
    <contour>
      <point x="287" y="-5" type="curve"/>
      <point x="287" y="103" type="line"/>
      <point x="287" y="103"/>
      <point x="346" y="108"/>
      <point x="363" y="157" type="curve" smooth="yes"/>
      <point x="367" y="169"/>
      <point x="368" y="180"/>
      <point x="369" y="193" type="curve" smooth="yes"/>
      <point x="369" y="196"/>
      <point x="369" y="206"/>
      <point x="369" y="207" type="curve"/>
      <point x="474" y="182" type="line"/>
      <point x="474" y="76"/>
      <point x="381" y="-5"/>
    </contour>
    <contour>
      <point x="287" y="597" type="curve"/>
      <point x="287" y="705" type="line"/>
      <point x="381" y="705"/>
      <point x="474" y="612"/>
      <point x="474" y="516" type="curve"/>
      <point x="369" y="489" type="line"/>
      <point x="369" y="490"/>
      <point x="369" y="502"/>
      <point x="368" y="504" type="curve" smooth="yes"/>
      <point x="368" y="516"/>
      <point x="368" y="527"/>
      <point x="363" y="538" type="curve" smooth="yes"/>
      <point x="343" y="591"/>
      <point x="287" y="597"/>
    </contour>
  </outline>
</glyph>
<glyph name="D" format="1">
  <advance width="472"/>
  <unicode hex="0044"/>
  <outline>
    <contour>
      <point x="42" y="0" type="line"/>
      <point x="42" y="700" type="line"/>
      <point x="151" y="700" type="line"/>
      <point x="151" y="0" type="line"/>
    </contour>
    <contour>
      <point x="202" y="0" type="curve"/>
      <point x="202" y="108" type="line"/>
      <point x="252" y="108"/>
      <point x="325" y="114"/>
      <point x="325" y="197" type="curve" smooth="yes"/>
      <point x="325" y="503" type="line"/>
      <point x="325" y="560"/>
      <point x="278" y="591"/>
      <point x="202" y="592" type="curve"/>
      <point x="202" y="700" type="line"/>
      <point x="348" y="700"/>
      <point x="434" y="611"/>
      <point x="434" y="503" type="curve"/>
      <point x="434" y="197" type="line"/>
      <point x="434" y="34"/>
      <point x="294" y="0"/>
    </contour>
  </outline>
</glyph>
<glyph name="E" format="1">
  <advance width="444"/>
  <unicode hex="0045"/>
  <outline>
    <contour>
      <point x="42" y="0" type="line"/>
      <point x="42" y="700" type="line"/>
      <point x="406" y="700" type="line"/>
      <point x="406" y="593" type="line"/>
      <point x="151" y="593" type="line"/>
      <point x="151" y="402" type="line"/>
      <point x="312" y="402" type="line"/>
      <point x="312" y="294" type="line"/>
      <point x="151" y="294" type="line"/>
      <point x="151" y="108" type="line"/>
      <point x="406" y="108" type="line"/>
      <point x="406" y="0" type="line"/>
    </contour>
  </outline>
</glyph>
<glyph name="G" format="1">
  <advance width="507"/>
  <unicode hex="0047"/>
  <outline>
    <contour>
      <point x="38" y="192" type="curve"/>
      <point x="38" y="524" type="line"/>
      <point x="43" y="588"/>
      <point x="102" y="705"/>
      <point x="235" y="705" type="curve"/>
      <point x="235" y="597" type="line"/>
      <point x="177" y="596"/>
      <point x="146" y="546"/>
      <point x="147" y="508" type="curve"/>
      <point x="147" y="192" type="line" smooth="yes"/>
      <point x="147" y="124"/>
      <point x="219" y="103"/>
      <point x="235" y="103" type="curve"/>
      <point x="235" y="-5" type="line"/>
      <point x="174" y="-5"/>
      <point x="38" y="48"/>
    </contour>
    <contour>
      <point x="286" y="-5" type="curve"/>
      <point x="286" y="103" type="line"/>
      <point x="307" y="103"/>
      <point x="364" y="138"/>
      <point x="364" y="190" type="curve" smooth="yes"/>
      <point x="364" y="252" type="line"/>
      <point x="286" y="252" type="line"/>
      <point x="286" y="353" type="line"/>
      <point x="473" y="353" type="line"/>
      <point x="473" y="176" type="line" smooth="yes"/>
      <point x="473" y="95"/>
      <point x="370" y="-4"/>
    </contour>
    <contour>
      <point x="286" y="597" type="curve"/>
      <point x="286" y="705" type="line"/>
      <point x="381" y="705"/>
      <point x="473" y="612"/>
      <point x="473" y="516" type="curve"/>
      <point x="367" y="477" type="line"/>
      <point x="367" y="479"/>
      <point x="367" y="507"/>
      <point x="366" y="508" type="curve" smooth="yes"/>
      <point x="364" y="571"/>
      <point x="314" y="596"/>
    </contour>
  </outline>
</glyph>
<glyph name="J" format="1">
  <advance width="484"/>
  <unicode hex="004A"/>
  <outline>
    <contour>
      <point x="15" y="193" type="curve"/>
      <point x="15" y="242" type="line"/>
      <point x="124" y="242" type="line"/>
      <point x="124" y="195" type="line" smooth="yes"/>
      <point x="124" y="127"/>
      <point x="184" y="104"/>
      <point x="203" y="104" type="curve"/>
      <point x="203" y="-5" type="line"/>
      <point x="143" y="-5"/>
      <point x="15" y="54"/>
    </contour>
    <contour>
      <point x="255" y="-5" type="curve"/>
      <point x="255" y="104" type="line"/>
      <point x="272" y="104"/>
      <point x="343" y="127"/>
      <point x="344" y="193" type="curve" smooth="yes"/>
      <point x="344" y="700" type="line"/>
      <point x="452" y="700" type="line"/>
      <point x="452" y="193" type="line"/>
      <point x="452" y="49"/>
      <point x="315" y="-5"/>
    </contour>
  </outline>
</glyph>
<glyph name="M" format="1">
  <advance width="696"/>
  <unicode hex="004D"/>
  <outline>
    <contour>
      <point x="42" y="0" type="line"/>
      <point x="42" y="478" type="line"/>
      <point x="51" y="478" type="line"/>
      <point x="151" y="237" type="line"/>
      <point x="151" y="0" type="line"/>
    </contour>
    <contour>
      <point x="42" y="630" type="line"/>
      <point x="42" y="700" type="line"/>
      <point x="129" y="700" type="line"/>
      <point x="343" y="180" type="line"/>
      <point x="484" y="499" type="line"/>
      <point x="494" y="499" type="line"/>
      <point x="494" y="253" type="line"/>
      <point x="382" y="0" type="line"/>
      <point x="304" y="0" type="line"/>
    </contour>
    <contour>
      <point x="545" y="0" type="line"/>
      <point x="545" y="700" type="line"/>
      <point x="654" y="700" type="line"/>
      <point x="654" y="0" type="line"/>
    </contour>
  </outline>
</glyph>
<glyph name="N" format="1">
  <advance width="529"/>
  <unicode hex="004E"/>
  <outline>
    <contour>
      <point x="42" y="0" type="line"/>
      <point x="42" y="525" type="line"/>
      <point x="50" y="525" type="line"/>
      <point x="151" y="363" type="line"/>
      <point x="151" y="0" type="line"/>
    </contour>
    <contour>
      <point x="42" y="630" type="line"/>
      <point x="42" y="700" type="line"/>
      <point x="133" y="700" type="line"/>
      <point x="487" y="131" type="line"/>
      <point x="487" y="0" type="line"/>
      <point x="435" y="0" type="line"/>
    </contour>
    <contour>
      <point x="378" y="399" type="line"/>
      <point x="378" y="700" type="line"/>
      <point x="487" y="700" type="line"/>
      <point x="487" y="237" type="line"/>
      <point x="479" y="237" type="line"/>
    </contour>
  </outline>
</glyph>
<glyph name="O" format="1">
  <advance width="524"/>
  <unicode hex="004F"/>
  <outline>
    <contour>
      <point x="38" y="195" type="curve" smooth="yes"/>
      <point x="38" y="524" type="line" smooth="yes"/>
      <point x="38" y="584"/>
      <point x="103" y="705"/>
      <point x="235" y="705" type="curve"/>
      <point x="235" y="597" type="line"/>
      <point x="172" y="596"/>
      <point x="147" y="530"/>
      <point x="147" y="508" type="curve" smooth="yes"/>
      <point x="147" y="195" type="line" smooth="yes"/>
      <point x="147" y="131"/>
      <point x="213" y="104"/>
      <point x="234" y="104" type="curve"/>
      <point x="234" y="-5" type="line"/>
      <point x="174" y="-5"/>
      <point x="38" y="51"/>
    </contour>
    <contour>
      <point x="289" y="-5" type="curve"/>
      <point x="289" y="104" type="line"/>
      <point x="310" y="104"/>
      <point x="377" y="130"/>
      <point x="377" y="195" type="curve" smooth="yes"/>
      <point x="377" y="508" type="line" smooth="yes"/>
      <point x="377" y="532"/>
      <point x="352" y="596"/>
      <point x="289" y="597" type="curve"/>
      <point x="289" y="705" type="line"/>
      <point x="420" y="705"/>
      <point x="486" y="583"/>
      <point x="486" y="524" type="curve" smooth="yes"/>
      <point x="486" y="195" type="line" smooth="yes"/>
      <point x="486" y="51"/>
      <point x="349" y="-5"/>
    </contour>
  </outline>
</glyph>
<glyph name="P" format="1">
  <advance width="479"/>
  <unicode hex="0050"/>
  <outline>
    <contour>
      <point x="42" y="0" type="line"/>
      <point x="42" y="700" type="line"/>
      <point x="151" y="700" type="line"/>
      <point x="151" y="0" type="line"/>
    </contour>
    <contour>
      <point x="202" y="318" type="curve"/>
      <point x="202" y="425" type="line"/>
      <point x="259" y="425" type="line" smooth="yes"/>
      <point x="302" y="425"/>
      <point x="354" y="436"/>
      <point x="354" y="508" type="curve" smooth="yes"/>
      <point x="354" y="582"/>
      <point x="305" y="593"/>
      <point x="259" y="593" type="curve" smooth="yes"/>
      <point x="202" y="593" type="line"/>
      <point x="202" y="700" type="line"/>
      <point x="391" y="700"/>
      <point x="464" y="652"/>
      <point x="464" y="512" type="curve" smooth="yes"/>
      <point x="464" y="349"/>
      <point x="371" y="318"/>
    </contour>
  </outline>
</glyph>
<glyph name="Q" format="1">
  <advance width="526"/>
  <unicode hex="0051"/>
  <outline>
    <contour>
      <point x="38" y="195" type="curve" smooth="yes"/>
      <point x="38" y="524" type="line" smooth="yes"/>
      <point x="38" y="584"/>
      <point x="103" y="705"/>
      <point x="236" y="705" type="curve"/>
      <point x="236" y="597" type="line"/>
      <point x="172" y="596"/>
      <point x="147" y="533"/>
      <point x="147" y="508" type="curve" smooth="yes"/>
      <point x="147" y="195" type="line" smooth="yes"/>
      <point x="147" y="122"/>
      <point x="225" y="104"/>
      <point x="236" y="104" type="curve"/>
      <point x="236" y="-5" type="line"/>
      <point x="173" y="-5"/>
      <point x="38" y="51"/>
    </contour>
    <contour>
      <point x="288" y="-5" type="line"/>
      <point x="288" y="104" type="line"/>
      <point x="298" y="104"/>
      <point x="376" y="122"/>
      <point x="377" y="195" type="curve" smooth="yes"/>
      <point x="377" y="508" type="line" smooth="yes"/>
      <point x="377" y="533"/>
      <point x="352" y="596"/>
      <point x="288" y="597" type="curve"/>
      <point x="288" y="705" type="line"/>
      <point x="420" y="705"/>
      <point x="486" y="583"/>
      <point x="486" y="524" type="curve" smooth="yes"/>
      <point x="486" y="195" type="line" smooth="yes"/>
      <point x="486" y="111"/>
      <point x="437" y="62"/>
      <point x="390" y="33" type="curve"/>
      <point x="446" y="-49" type="line"/>
      <point x="360" y="-107" type="line"/>
    </contour>
  </outline>
</glyph>
<glyph name="R" format="1">
  <advance width="505"/>
  <unicode hex="0052"/>
  <outline>
    <contour>
      <point x="42" y="0" type="line"/>
      <point x="42" y="700" type="line"/>
      <point x="151" y="700" type="line"/>
      <point x="151" y="0" type="line"/>
    </contour>
    <contour>
      <point x="202" y="300" type="curve"/>
      <point x="202" y="397" type="line"/>
      <point x="242" y="397" type="line" smooth="yes"/>
      <point x="321" y="397"/>
      <point x="364" y="435"/>
      <point x="364" y="491" type="curve" smooth="yes"/>
      <point x="364" y="575"/>
      <point x="296" y="597"/>
      <point x="220" y="597" type="curve" smooth="yes"/>
      <point x="202" y="597" type="line"/>
      <point x="202" y="700" type="line"/>
      <point x="342" y="700"/>
      <point x="463" y="649"/>
      <point x="463" y="496" type="curve" smooth="yes"/>
      <point x="463" y="423"/>
      <point x="434" y="379"/>
      <point x="384" y="352" type="curve"/>
      <point x="422" y="330"/>
      <point x="457" y="276"/>
      <point x="462" y="217" type="curve" smooth="yes"/>
      <point x="479" y="0" type="line"/>
      <point x="381" y="0" type="line"/>
      <point x="366" y="178" type="line" smooth="yes"/>
      <point x="357" y="272"/>
      <point x="332" y="299"/>
    </contour>
  </outline>
</glyph>
<glyph name="S" format="1">
  <advance width="481"/>
  <unicode hex="0053"/>
  <outline>
    <contour>
      <point x="20" y="158" type="curve"/>
      <point x="118" y="193" type="line"/>
      <point x="128" y="113"/>
      <point x="205" y="98"/>
      <point x="205" y="98" type="curve"/>
      <point x="205" y="-3" type="line"/>
      <point x="94" y="-3"/>
      <point x="21" y="103"/>
    </contour>
    <contour>
      <point x="28" y="510" type="curve" smooth="yes"/>
      <point x="28" y="648"/>
      <point x="153" y="699"/>
      <point x="205" y="700" type="curve"/>
      <point x="205" y="598" type="line"/>
      <point x="180" y="594"/>
      <point x="132" y="564"/>
      <point x="132" y="511" type="curve" smooth="yes"/>
      <point x="132" y="427"/>
      <point x="262" y="419"/>
      <point x="333" y="385" type="curve" smooth="yes"/>
      <point x="397" y="354"/>
      <point x="461" y="311"/>
      <point x="461" y="207" type="curve" smooth="yes"/>
      <point x="461" y="97"/>
      <point x="367" y="-3"/>
      <point x="256" y="-3" type="curve"/>
      <point x="256" y="98" type="line"/>
      <point x="290" y="100"/>
      <point x="352" y="134"/>
      <point x="352" y="205" type="curve" smooth="yes"/>
      <point x="352" y="300"/>
      <point x="212" y="307"/>
      <point x="151" y="335" type="curve" smooth="yes"/>
      <point x="79" y="367"/>
      <point x="28" y="409"/>
    </contour>
    <contour>
      <point x="256" y="598" type="curve"/>
      <point x="256" y="700" type="line"/>
      <point x="364" y="700"/>
      <point x="426" y="591"/>
      <point x="433" y="553" type="curve"/>
      <point x="332" y="520" type="line"/>
      <point x="319" y="589"/>
      <point x="256" y="598"/>
    </contour>
  </outline>
</glyph>
<glyph name="U" format="1">
  <advance width="512"/>
  <unicode hex="0055"/>
  <outline>
    <contour>
      <point x="32" y="193" type="curve" smooth="yes"/>
      <point x="32" y="700" type="line"/>
      <point x="141" y="700" type="line"/>
      <point x="141" y="193" type="line"/>
      <point x="141" y="127"/>
      <point x="214" y="104"/>
      <point x="230" y="104" type="curve"/>
      <point x="230" y="-5" type="line"/>
      <point x="170" y="-5"/>
      <point x="32" y="49"/>
    </contour>
    <contour>
      <point x="282" y="-5" type="curve"/>
      <point x="282" y="104" type="line"/>
      <point x="299" y="104"/>
      <point x="370" y="125"/>
      <point x="371" y="193" type="curve"/>
      <point x="371" y="700" type="line"/>
      <point x="479" y="700" type="line"/>
      <point x="479" y="193" type="line" smooth="yes"/>
      <point x="479" y="48"/>
      <point x="343" y="-5"/>
    </contour>
  </outline>
</glyph>
<glyph name="V" format="1">
  <advance width="472"/>
  <unicode hex="0056"/>
  <outline>
    <contour>
      <point x="8" y="700" type="line"/>
      <point x="118" y="700" type="line"/>
      <point x="289" y="118" type="line"/>
      <point x="248" y="0" type="line"/>
      <point x="211" y="0" type="line"/>
    </contour>
    <contour>
      <point x="257" y="402" type="line"/>
      <point x="354" y="700" type="line"/>
      <point x="464" y="700" type="line"/>
      <point x="424" y="569"/>
      <point x="359" y="374"/>
      <point x="317" y="234" type="curve"/>
      <point x="307" y="234" type="line"/>
    </contour>
  </outline>
</glyph>
<glyph name="X" format="1">
  <advance width="442"/>
  <unicode hex="0058"/>
  <outline>
    <contour>
      <point x="15" y="0" type="line"/>
      <point x="167" y="361" type="line"/>
      <point x="27" y="700" type="line"/>
      <point x="133" y="700" type="line"/>
      <point x="221" y="500" type="line"/>
      <point x="309" y="700" type="line"/>
      <point x="415" y="700" type="line"/>
      <point x="275" y="361" type="line"/>
      <point x="427" y="0" type="line"/>
      <point x="316" y="0" type="line"/>
      <point x="221" y="218" type="line"/>
      <point x="126" y="0" type="line"/>
    </contour>
  </outline>
</glyph>
<glyph name="Y" format="1">
  <advance width="451"/>
  <unicode hex="0059"/>
  <outline>
    <contour>
      <point x="12" y="700" type="line"/>
      <point x="125" y="700" type="line"/>
      <point x="272" y="253" type="line"/>
      <point x="272" y="0" type="line"/>
      <point x="160" y="0" type="line"/>
      <point x="160" y="252" type="line"/>
    </contour>
    <contour>
      <point x="250" y="498" type="line"/>
      <point x="327" y="700" type="line"/>
      <point x="439" y="700" type="line"/>
      <point x="308" y="325" type="line"/>
      <point x="301" y="325" type="line"/>
    </contour>
  </outline>
</glyph>
<glyph name="bracketleft" format="1">
  <advance width="258"/>
  <unicode hex="005B"/>
  <outline>
    <contour>
      <point x="64" y="-36" type="line"/>
      <point x="64" y="739" type="line"/>
      <point x="222" y="739" type="line"/>
      <point x="222" y="652" type="line"/>
      <point x="168" y="652" type="line"/>
      <point x="165" y="51" type="line"/>
      <point x="222" y="51" type="line"/>
      <point x="222" y="-36" type="line"/>
    </contour>
  </outline>
</glyph>
<glyph name="bracketright" format="1">
  <advance width="253"/>
  <unicode hex="005D"/>
  <outline>
    <contour>
      <point x="36" y="-36" type="line"/>
      <point x="36" y="51" type="line"/>
      <point x="93" y="51" type="line"/>
      <point x="90" y="652" type="line"/>
      <point x="36" y="652" type="line"/>
      <point x="36" y="739" type="line"/>
      <point x="194" y="739" type="line"/>
      <point x="194" y="-36" type="line"/>
    </contour>
  </outline>
</glyph>
<glyph name="asciicircum" format="1">
  <advance width="487"/>
  <unicode hex="005E"/>
  <outline>
    <contour>
      <point x="60" y="460" type="line"/>
      <point x="209" y="756" type="line"/>
      <point x="278" y="756" type="line"/>
      <point x="427" y="460" type="line"/>
      <point x="330" y="460" type="line"/>
      <point x="242" y="635" type="line"/>
      <point x="156" y="460" type="line"/>
    </contour>
  </outline>
</glyph>
<glyph name="a" format="1">
  <advance width="460"/>
  <unicode hex="0061"/>
  <outline>
    <contour>
      <point x="25" y="129" type="curve" smooth="yes"/>
      <point x="25" y="178" type="line" smooth="yes"/>
      <point x="25" y="213"/>
      <point x="32" y="249"/>
      <point x="77" y="274" type="curve" smooth="yes"/>
      <point x="126" y="302"/>
      <point x="307" y="331"/>
      <point x="307" y="374" type="curve"/>
      <point x="307" y="379"/>
      <point x="307" y="389"/>
      <point x="307" y="394" type="curve" smooth="yes"/>
      <point x="307" y="434"/>
      <point x="278" y="459"/>
      <point x="240" y="459" type="curve"/>
      <point x="240" y="554" type="line"/>
      <point x="353" y="554"/>
      <point x="407" y="457"/>
      <point x="407" y="400" type="curve" smooth="yes"/>
      <point x="407" y="131" type="line" smooth="yes"/>
      <point x="407" y="123"/>
      <point x="410" y="98"/>
      <point x="435" y="98" type="curve"/>
      <point x="435" y="1" type="line"/>
      <point x="393" y="1"/>
      <point x="367" y="15"/>
      <point x="347" y="35" type="curve"/>
      <point x="321" y="13"/>
      <point x="282" y="1"/>
      <point x="241" y="1" type="curve"/>
      <point x="241" y="97" type="line"/>
      <point x="281" y="97"/>
      <point x="308" y="120"/>
      <point x="308" y="159" type="curve" smooth="yes"/>
      <point x="308" y="263" type="line"/>
      <point x="259" y="236"/>
      <point x="147" y="221"/>
      <point x="126" y="204" type="curve" smooth="yes"/>
      <point x="119" y="200"/>
      <point x="113" y="190"/>
      <point x="113" y="176" type="curve" smooth="yes"/>
      <point x="113" y="151" type="line" smooth="yes"/>
      <point x="114" y="113"/>
      <point x="140" y="97"/>
      <point x="190" y="97" type="curve"/>
      <point x="190" y="1" type="line"/>
      <point x="86" y="1"/>
      <point x="25" y="68"/>
    </contour>
    <contour>
      <point x="32" y="415" type="line"/>
      <point x="32" y="495"/>
      <point x="114" y="554"/>
      <point x="191" y="554" type="curve"/>
      <point x="191" y="458" type="line"/>
      <point x="152" y="458"/>
      <point x="123" y="431"/>
      <point x="123" y="381" type="curve"/>
    </contour>
  </outline>
</glyph>
<glyph name="b" format="1">
  <advance width="454"/>
  <unicode hex="0062"/>
  <outline>
    <contour>
      <point x="42" y="-6" type="line"/>
      <point x="42" y="703" type="line"/>
      <point x="148" y="703" type="line"/>
      <point x="148" y="-6" type="line"/>
    </contour>
    <contour>
      <point x="199" y="-6" type="line"/>
      <point x="199" y="94" type="line"/>
      <point x="261" y="94" type="line" smooth="yes"/>
      <point x="297" y="94"/>
      <point x="323" y="128"/>
      <point x="323" y="146" type="curve"/>
      <point x="323" y="392" type="line"/>
      <point x="323" y="411"/>
      <point x="300" y="444"/>
      <point x="262" y="444" type="curve" smooth="yes"/>
      <point x="199" y="444" type="line"/>
      <point x="199" y="545" type="line"/>
      <point x="262" y="545" type="line" smooth="yes"/>
      <point x="364" y="545"/>
      <point x="424" y="452"/>
      <point x="424" y="396" type="curve"/>
      <point x="424" y="144" type="line" smooth="yes"/>
      <point x="424" y="96"/>
      <point x="372" y="-6"/>
      <point x="261" y="-6" type="curve" smooth="yes"/>
    </contour>
  </outline>
</glyph>
<glyph name="c" format="1">
  <advance width="444"/>
  <unicode hex="0063"/>
  <outline>
    <contour>
      <point x="38" y="151" type="curve" smooth="yes"/>
      <point x="38" y="159"/>
      <point x="38" y="372"/>
      <point x="38" y="401" type="curve" smooth="yes"/>
      <point x="39" y="456"/>
      <point x="91" y="551"/>
      <point x="209" y="551" type="curve"/>
      <point x="209" y="452" type="line"/>
      <point x="163" y="452"/>
      <point x="140" y="421"/>
      <point x="140" y="399" type="curve" smooth="yes"/>
      <point x="140" y="151" type="line" smooth="yes"/>
      <point x="140" y="124"/>
      <point x="165" y="99"/>
      <point x="210" y="99" type="curve"/>
      <point x="210" y="0" type="line"/>
      <point x="83" y="0"/>
      <point x="38" y="100"/>
    </contour>
    <contour>
      <point x="255" y="451" type="curve"/>
      <point x="255" y="551" type="line"/>
      <point x="342" y="551"/>
      <point x="413" y="481"/>
      <point x="413" y="397" type="curve"/>
      <point x="317" y="361" type="line"/>
      <point x="317" y="363"/>
      <point x="317" y="387"/>
      <point x="317" y="389" type="curve" smooth="yes"/>
      <point x="315" y="434"/>
      <point x="285" y="451"/>
    </contour>
    <contour>
      <point x="255" y="-1" type="curve"/>
      <point x="255" y="99" type="line"/>
      <point x="296" y="99"/>
      <point x="326" y="118"/>
      <point x="329" y="163" type="curve" smooth="yes"/>
      <point x="329" y="165"/>
      <point x="329" y="189"/>
      <point x="329" y="190" type="curve"/>
      <point x="424" y="154" type="line"/>
      <point x="425" y="71"/>
      <point x="340" y="-3"/>
    </contour>
  </outline>
</glyph>
<glyph name="d" format="1">
  <advance width="451"/>
  <unicode hex="0064"/>
  <outline>
    <contour>
      <point x="30" y="144" type="curve" smooth="yes"/>
      <point x="30" y="396" type="line"/>
      <point x="31" y="452"/>
      <point x="90" y="545"/>
      <point x="191" y="545" type="curve" smooth="yes"/>
      <point x="252" y="545" type="line"/>
      <point x="252" y="444" type="line"/>
      <point x="192" y="444" type="line" smooth="yes"/>
      <point x="154" y="444"/>
      <point x="131" y="411"/>
      <point x="131" y="392" type="curve"/>
      <point x="131" y="147" type="line"/>
      <point x="131" y="127"/>
      <point x="157" y="94"/>
      <point x="193" y="94" type="curve" smooth="yes"/>
      <point x="252" y="94" type="line"/>
      <point x="252" y="-6" type="line"/>
      <point x="194" y="-6" type="line" smooth="yes"/>
      <point x="82" y="-6"/>
      <point x="30" y="96"/>
    </contour>
    <contour>
      <point x="302" y="-6" type="line"/>
      <point x="302" y="704" type="line"/>
      <point x="409" y="704" type="line"/>
      <point x="409" y="-6" type="line"/>
    </contour>
  </outline>
</glyph>
<glyph name="e" format="1">
  <advance width="473"/>
  <unicode hex="0065"/>
  <outline>
    <contour>
      <point x="38" y="151" type="curve" smooth="yes"/>
      <point x="38" y="403" type="line"/>
      <point x="39" y="454"/>
      <point x="98" y="551"/>
      <point x="210" y="551" type="curve"/>
      <point x="210" y="454" type="line"/>
      <point x="170" y="454"/>
      <point x="142" y="417"/>
      <point x="142" y="394" type="curve" smooth="yes"/>
      <point x="142" y="334" type="line"/>
      <point x="336" y="334" type="line"/>
      <point x="336" y="393" type="line" smooth="yes"/>
      <point x="336" y="434"/>
      <point x="298" y="454"/>
      <point x="262" y="454" type="curve"/>
      <point x="262" y="551" type="line"/>
      <point x="341" y="551"/>
      <point x="434" y="490"/>
      <point x="434" y="404" type="curve" smooth="yes"/>
      <point x="434" y="235" type="line"/>
      <point x="142" y="235" type="line"/>
      <point x="142" y="151" type="line" smooth="yes"/>
      <point x="142" y="128"/>
      <point x="167" y="96"/>
      <point x="212" y="96" type="curve"/>
      <point x="212" y="0" type="line"/>
      <point x="97" y="0"/>
      <point x="38" y="99"/>
    </contour>
    <contour>
      <point x="262" y="0" type="curve"/>
      <point x="262" y="96" type="line"/>
      <point x="313" y="96"/>
      <point x="340" y="130"/>
      <point x="349" y="160" type="curve"/>
      <point x="435" y="128" type="line"/>
      <point x="419" y="64"/>
      <point x="355" y="0"/>
    </contour>
  </outline>
</glyph>
<glyph name="f" format="1">
  <advance width="285"/>
  <unicode hex="0066"/>
  <outline>
    <contour>
      <point x="15" y="406" type="line"/>
      <point x="15" y="505" type="line"/>
      <point x="82" y="505" type="line"/>
      <point x="82" y="556" type="line" smooth="yes"/>
      <point x="82" y="604"/>
      <point x="125" y="709"/>
      <point x="236" y="710" type="curve" smooth="yes"/>
      <point x="285" y="710" type="line"/>
      <point x="262" y="610" type="line"/>
      <point x="235" y="610" type="line" smooth="yes"/>
      <point x="194" y="609"/>
      <point x="186" y="574"/>
      <point x="186" y="556" type="curve" smooth="yes"/>
      <point x="186" y="504" type="line"/>
      <point x="256" y="505" type="line"/>
      <point x="256" y="406" type="line"/>
      <point x="186" y="406" type="line"/>
      <point x="186" y="-6" type="line"/>
      <point x="82" y="-6" type="line"/>
      <point x="82" y="406" type="line"/>
    </contour>
  </outline>
</glyph>
<glyph name="g" format="1">
  <advance width="444"/>
  <unicode hex="0067"/>
  <outline>
    <contour>
      <point x="20" y="-187" type="line"/>
      <point x="44" y="-91" type="line"/>
      <point x="237" y="-91" type="line"/>
      <point x="286" y="-90"/>
      <point x="307" y="-52"/>
      <point x="307" y="-37" type="curve" smooth="yes"/>
      <point x="307" y="26" type="line"/>
      <point x="295" y="18"/>
      <point x="271" y="5"/>
      <point x="240" y="5" type="curve"/>
      <point x="240" y="101" type="line"/>
      <point x="281" y="101"/>
      <point x="307" y="130"/>
      <point x="307" y="157" type="curve" smooth="yes"/>
      <point x="307" y="406" type="line" smooth="yes"/>
      <point x="307" y="432"/>
      <point x="277" y="461"/>
      <point x="240" y="461" type="curve"/>
      <point x="240" y="557" type="line"/>
      <point x="267" y="557"/>
      <point x="294" y="546"/>
      <point x="307" y="537" type="curve"/>
      <point x="307" y="557" type="line"/>
      <point x="408" y="557" type="line"/>
      <point x="408" y="-37" type="line" smooth="yes"/>
      <point x="408" y="-82"/>
      <point x="354" y="-186"/>
      <point x="244" y="-187" type="curve"/>
    </contour>
    <contour>
      <point x="30" y="155" type="curve" smooth="yes"/>
      <point x="30" y="410" type="line"/>
      <point x="31" y="459"/>
      <point x="83" y="557"/>
      <point x="196" y="557" type="curve"/>
      <point x="196" y="461" type="line"/>
      <point x="151" y="461"/>
      <point x="128" y="423"/>
      <point x="128" y="407" type="curve" smooth="yes"/>
      <point x="128" y="156" type="line" smooth="yes"/>
      <point x="128" y="134"/>
      <point x="151" y="102"/>
      <point x="196" y="102" type="curve"/>
      <point x="196" y="5" type="line"/>
      <point x="82" y="5"/>
      <point x="30" y="107"/>
    </contour>
  </outline>
</glyph>
<glyph name="h" format="1">
  <advance width="461"/>
  <unicode hex="0068"/>
  <outline>
    <contour>
      <point x="42" y="-5" type="line"/>
      <point x="42" y="704" type="line"/>
      <point x="139" y="704" type="line"/>
      <point x="139" y="517" type="line"/>
      <point x="155" y="528"/>
      <point x="182" y="540"/>
      <point x="216" y="540" type="curve"/>
      <point x="216" y="444" type="line"/>
      <point x="172" y="444"/>
      <point x="140" y="405"/>
      <point x="140" y="384" type="curve" smooth="yes"/>
      <point x="140" y="-5" type="line"/>
    </contour>
    <contour>
      <point x="264" y="444" type="curve"/>
      <point x="264" y="540" type="line"/>
      <point x="369" y="540"/>
      <point x="431" y="467"/>
      <point x="431" y="393" type="curve" smooth="yes"/>
      <point x="431" y="-5" type="line"/>
      <point x="333" y="-5" type="line"/>
      <point x="333" y="384" type="line" smooth="yes"/>
      <point x="333" y="403"/>
      <point x="316" y="444"/>
    </contour>
  </outline>
</glyph>
<glyph name="i" format="1">
  <advance width="211"/>
  <unicode hex="0069"/>
  <outline>
    <contour>
      <point x="48" y="629" type="curve" smooth="yes"/>
      <point x="48" y="661"/>
      <point x="74" y="687"/>
      <point x="106" y="687" type="curve" smooth="yes"/>
      <point x="138" y="687"/>
      <point x="164" y="661"/>
      <point x="164" y="629" type="curve" smooth="yes"/>
      <point x="164" y="598"/>
      <point x="138" y="572"/>
      <point x="106" y="572" type="curve" smooth="yes"/>
      <point x="74" y="572"/>
      <point x="48" y="598"/>
    </contour>
    <contour>
      <point x="55" y="-6" type="line"/>
      <point x="55" y="532" type="line"/>
      <point x="159" y="532" type="line"/>
      <point x="159" y="-6" type="line"/>
    </contour>
  </outline>
</glyph>
<glyph name="j" format="1">
  <advance width="229"/>
  <unicode hex="006A"/>
  <outline>
    <contour>
      <point x="-42" y="-193" type="line"/>
      <point x="-19" y="-94" type="line"/>
      <point x="5" y="-94" type="line"/>
      <point x="43" y="-92"/>
      <point x="64" y="-57"/>
      <point x="64" y="-40" type="curve" smooth="yes"/>
      <point x="64" y="531" type="line"/>
      <point x="168" y="531" type="line"/>
      <point x="168" y="-40" type="line" smooth="yes"/>
      <point x="168" y="-90"/>
      <point x="115" y="-193"/>
      <point x="6" y="-193" type="curve" smooth="yes"/>
    </contour>
    <contour>
      <point x="58" y="636" type="curve" smooth="yes"/>
      <point x="58" y="668"/>
      <point x="84" y="695"/>
      <point x="116" y="695" type="curve" smooth="yes"/>
      <point x="147" y="695"/>
      <point x="173" y="668"/>
      <point x="173" y="636" type="curve" smooth="yes"/>
      <point x="173" y="605"/>
      <point x="147" y="579"/>
      <point x="116" y="579" type="curve" smooth="yes"/>
      <point x="84" y="579"/>
      <point x="58" y="605"/>
    </contour>
  </outline>
</glyph>
<glyph name="k" format="1">
  <advance width="487"/>
  <unicode hex="006B"/>
  <outline>
    <contour>
      <point x="42" y="-6" type="line"/>
      <point x="42" y="704" type="line"/>
      <point x="148" y="704" type="line"/>
      <point x="148" y="-6" type="line"/>
    </contour>
    <contour>
      <point x="176" y="268" type="line"/>
      <point x="349" y="543" type="line"/>
      <point x="467" y="543" type="line"/>
      <point x="293" y="268" type="line"/>
      <point x="467" y="-6" type="line"/>
      <point x="349" y="-6" type="line"/>
    </contour>
  </outline>
</glyph>
<glyph name="l" format="1">
  <advance width="195"/>
  <unicode hex="006C"/>
  <outline>
    <contour>
      <point x="42" y="-6" type="line"/>
      <point x="42" y="704" type="line"/>
      <point x="153" y="704" type="line"/>
      <point x="153" y="-6" type="line"/>
    </contour>
  </outline>
</glyph>
<glyph name="m" format="1">
  <advance width="742"/>
  <unicode hex="006D"/>
  <outline>
    <contour>
      <point x="38" y="0" type="line"/>
      <point x="38" y="403" type="line" smooth="yes"/>
      <point x="38" y="458"/>
      <point x="90" y="554"/>
      <point x="207" y="554" type="curve"/>
      <point x="207" y="452" type="line"/>
      <point x="162" y="452"/>
      <point x="143" y="420"/>
      <point x="143" y="390" type="curve" smooth="yes"/>
      <point x="143" y="0" type="line"/>
    </contour>
    <contour>
      <point x="252" y="452" type="curve"/>
      <point x="252" y="554" type="line"/>
      <point x="310" y="554"/>
      <point x="343" y="536"/>
      <point x="371" y="507" type="curve"/>
      <point x="399" y="536"/>
      <point x="432" y="554"/>
      <point x="489" y="554" type="curve"/>
      <point x="489" y="452" type="line"/>
      <point x="444" y="452"/>
      <point x="424" y="423"/>
      <point x="424" y="390" type="curve"/>
      <point x="424" y="0" type="line"/>
      <point x="318" y="0" type="line"/>
      <point x="318" y="390" type="line" smooth="yes"/>
      <point x="318" y="424"/>
      <point x="297" y="452"/>
    </contour>
    <contour>
      <point x="534" y="452" type="curve"/>
      <point x="534" y="554" type="line"/>
      <point x="651" y="554"/>
      <point x="704" y="455"/>
      <point x="704" y="403" type="curve" smooth="yes"/>
      <point x="704" y="0" type="line"/>
      <point x="599" y="0" type="line"/>
      <point x="599" y="390" type="line" smooth="yes"/>
      <point x="599" y="425"/>
      <point x="578" y="452"/>
    </contour>
  </outline>
</glyph>
<glyph name="n" format="1">
  <advance width="475"/>
  <unicode hex="006E"/>
  <outline>
    <contour>
      <point x="38" y="0" type="line"/>
      <point x="38" y="403" type="line" smooth="yes"/>
      <point x="38" y="457"/>
      <point x="98" y="554"/>
      <point x="215" y="554" type="curve"/>
      <point x="215" y="451" type="line"/>
      <point x="170" y="451"/>
      <point x="143" y="420"/>
      <point x="143" y="390" type="curve" smooth="yes"/>
      <point x="143" y="0" type="line"/>
    </contour>
    <contour>
      <point x="260" y="451" type="curve"/>
      <point x="260" y="554" type="line"/>
      <point x="377" y="554"/>
      <point x="437" y="454"/>
      <point x="437" y="403" type="curve" smooth="yes"/>
      <point x="437" y="0" type="line"/>
      <point x="332" y="0" type="line"/>
      <point x="332" y="390" type="line" smooth="yes"/>
      <point x="332" y="414"/>
      <point x="310" y="451"/>
    </contour>
  </outline>
</glyph>
<glyph name="o" format="1">
  <advance width="464"/>
  <unicode hex="006F"/>
  <outline>
    <contour>
      <point x="38" y="151" type="curve" smooth="yes"/>
      <point x="38" y="402" type="line" smooth="yes"/>
      <point x="38" y="454"/>
      <point x="95" y="551"/>
      <point x="213" y="551" type="curve"/>
      <point x="213" y="451" type="line"/>
      <point x="161" y="451"/>
      <point x="141" y="413"/>
      <point x="141" y="388" type="curve" smooth="yes"/>
      <point x="141" y="164" type="line" smooth="yes"/>
      <point x="141" y="134"/>
      <point x="165" y="99"/>
      <point x="213" y="99" type="curve"/>
      <point x="213" y="-1" type="line"/>
      <point x="94" y="-1"/>
      <point x="38" y="99"/>
    </contour>
    <contour>
      <point x="257" y="-1" type="curve"/>
      <point x="257" y="99" type="line"/>
      <point x="306" y="99"/>
      <point x="326" y="138"/>
      <point x="326" y="162" type="curve" smooth="yes"/>
      <point x="326" y="388" type="line" smooth="yes"/>
      <point x="326" y="418"/>
      <point x="306" y="451"/>
      <point x="257" y="451" type="curve"/>
      <point x="257" y="551" type="line"/>
      <point x="371" y="551"/>
      <point x="427" y="454"/>
      <point x="427" y="402" type="curve" smooth="yes"/>
      <point x="427" y="151" type="line" smooth="yes"/>
      <point x="427" y="98"/>
      <point x="372" y="-1"/>
    </contour>
  </outline>
</glyph>
<glyph name="p" format="1">
  <advance width="469"/>
  <unicode hex="0070"/>
  <outline>
    <contour>
      <point x="42" y="-188" type="line"/>
      <point x="42" y="557" type="line"/>
      <point x="148" y="557" type="line"/>
      <point x="148" y="-188" type="line"/>
    </contour>
    <contour>
      <point x="193" y="457" type="line"/>
      <point x="193" y="557" type="line"/>
      <point x="252" y="557" type="line" smooth="yes"/>
      <point x="370" y="557"/>
      <point x="433" y="465"/>
      <point x="433" y="407" type="curve" smooth="yes"/>
      <point x="433" y="155" type="line"/>
      <point x="433" y="98"/>
      <point x="378" y="6"/>
      <point x="257" y="6" type="curve" smooth="yes"/>
      <point x="201" y="6" type="line"/>
      <point x="201" y="107" type="line"/>
      <point x="260" y="107" type="line" smooth="yes"/>
      <point x="312" y="107"/>
      <point x="330" y="136"/>
      <point x="330" y="159" type="curve" smooth="yes"/>
      <point x="330" y="403" type="line"/>
      <point x="330" y="426"/>
      <point x="302" y="457"/>
      <point x="252" y="457" type="curve" smooth="yes"/>
    </contour>
  </outline>
</glyph>
<glyph name="q" format="1">
  <advance width="464"/>
  <unicode hex="0071"/>
  <outline>
    <contour>
      <point x="38" y="155" type="curve"/>
      <point x="38" y="407" type="line" smooth="yes"/>
      <point x="38" y="457"/>
      <point x="90" y="557"/>
      <point x="208" y="557" type="curve" smooth="yes"/>
      <point x="266" y="557" type="line"/>
      <point x="266" y="457" type="line"/>
      <point x="208" y="457" type="line" smooth="yes"/>
      <point x="157" y="457"/>
      <point x="141" y="419"/>
      <point x="141" y="404" type="curve"/>
      <point x="141" y="159" type="line" smooth="yes"/>
      <point x="141" y="141"/>
      <point x="158" y="107"/>
      <point x="211" y="107" type="curve" smooth="yes"/>
      <point x="267" y="107" type="line"/>
      <point x="267" y="6" type="line"/>
      <point x="213" y="6" type="line" smooth="yes"/>
      <point x="93" y="6"/>
      <point x="39" y="103"/>
    </contour>
    <contour>
      <point x="316" y="-188" type="line"/>
      <point x="316" y="557" type="line"/>
      <point x="421" y="557" type="line"/>
      <point x="422" y="-188" type="line"/>
    </contour>
  </outline>
</glyph>
<glyph name="r" format="1">
  <advance width="317"/>
  <unicode hex="0072"/>
  <outline>
    <contour>
      <point x="42" y="0" type="line"/>
      <point x="42" y="551" type="line"/>
      <point x="147" y="551" type="line"/>
      <point x="147" y="478" type="line"/>
      <point x="167" y="508"/>
      <point x="218" y="551"/>
      <point x="282" y="551" type="curve" smooth="yes"/>
      <point x="307" y="551" type="line"/>
      <point x="283" y="448" type="line"/>
      <point x="213" y="448"/>
      <point x="147" y="372"/>
      <point x="147" y="301" type="curve" smooth="yes"/>
      <point x="147" y="0" type="line"/>
    </contour>
  </outline>
</glyph>
<glyph name="s" format="1">
  <advance width="442"/>
  <unicode hex="0073"/>
  <outline>
    <contour>
      <point x="20" y="145" type="curve"/>
      <point x="117" y="163" type="line"/>
      <point x="117" y="122"/>
      <point x="159" y="94"/>
      <point x="194" y="93" type="curve"/>
      <point x="194" y="-5" type="line"/>
      <point x="76" y="-5"/>
      <point x="20" y="76"/>
    </contour>
    <contour>
      <point x="25" y="394" type="curve" smooth="yes"/>
      <point x="25" y="506"/>
      <point x="130" y="552"/>
      <point x="192" y="552" type="curve"/>
      <point x="192" y="456" type="line"/>
      <point x="146" y="456"/>
      <point x="122" y="424"/>
      <point x="122" y="395" type="curve" smooth="yes"/>
      <point x="122" y="360"/>
      <point x="159" y="341"/>
      <point x="309" y="307" type="curve" smooth="yes"/>
      <point x="358" y="297"/>
      <point x="422" y="257"/>
      <point x="422" y="169" type="curve" smooth="yes"/>
      <point x="422" y="60"/>
      <point x="339" y="-5"/>
      <point x="238" y="-5" type="curve"/>
      <point x="238" y="93" type="line"/>
      <point x="268" y="93"/>
      <point x="321" y="113"/>
      <point x="321" y="164" type="curve" smooth="yes"/>
      <point x="321" y="220"/>
      <point x="199" y="229"/>
      <point x="121" y="258" type="curve" smooth="yes"/>
      <point x="74" y="278"/>
      <point x="25" y="307"/>
    </contour>
    <contour>
      <point x="236" y="455" type="curve"/>
      <point x="237" y="552" type="line"/>
      <point x="340" y="552"/>
      <point x="412" y="471"/>
      <point x="412" y="400" type="curve"/>
      <point x="316" y="383" type="line"/>
      <point x="316" y="440"/>
      <point x="256" y="455"/>
    </contour>
  </outline>
</glyph>
<glyph name="t" format="1">
  <advance width="293"/>
  <unicode hex="0074"/>
  <outline>
    <contour>
      <point x="15" y="432" type="line"/>
      <point x="15" y="532" type="line"/>
      <point x="82" y="532" type="line"/>
      <point x="82" y="704" type="line"/>
      <point x="186" y="704" type="line"/>
      <point x="186" y="532" type="line"/>
      <point x="251" y="532" type="line"/>
      <point x="251" y="432" type="line"/>
      <point x="186" y="432" type="line"/>
      <point x="186" y="164" type="line" smooth="yes"/>
      <point x="186" y="129"/>
      <point x="198" y="100"/>
      <point x="249" y="99" type="curve" smooth="yes"/>
      <point x="269" y="99" type="line"/>
      <point x="293" y="-6" type="line"/>
      <point x="247" y="-6" type="line" smooth="yes"/>
      <point x="116" y="-5"/>
      <point x="82" y="64"/>
      <point x="82" y="173" type="curve" smooth="yes"/>
      <point x="82" y="432" type="line"/>
    </contour>
  </outline>
</glyph>
<glyph name="u" format="1">
  <advance width="475"/>
  <unicode hex="0075"/>
  <outline>
    <contour>
      <point x="38" y="147" type="curve" smooth="yes"/>
      <point x="38" y="549" type="line"/>
      <point x="143" y="549" type="line"/>
      <point x="143" y="159" type="line" smooth="yes"/>
      <point x="143" y="131"/>
      <point x="168" y="98"/>
      <point x="215" y="98" type="curve"/>
      <point x="215" y="-5" type="line"/>
      <point x="97" y="-5"/>
      <point x="38" y="92"/>
    </contour>
    <contour>
      <point x="260" y="-5" type="curve"/>
      <point x="260" y="98" type="line"/>
      <point x="307" y="98"/>
      <point x="332" y="131"/>
      <point x="332" y="159" type="curve" smooth="yes"/>
      <point x="332" y="549" type="line"/>
      <point x="437" y="549" type="line"/>
      <point x="437" y="147" type="line" smooth="yes"/>
      <point x="437" y="95"/>
      <point x="378" y="-5"/>
    </contour>
  </outline>
</glyph>
<glyph name="v" format="1">
  <advance width="426"/>
  <unicode hex="0076"/>
  <outline>
    <contour>
      <point x="8" y="550" type="line"/>
      <point x="123" y="551" type="line"/>
      <point x="277" y="100" type="line"/>
      <point x="242" y="0" type="line"/>
      <point x="184" y="0" type="line"/>
    </contour>
    <contour>
      <point x="235" y="340" type="line"/>
      <point x="305" y="551" type="line"/>
      <point x="418" y="550" type="line"/>
      <point x="301" y="185" type="line"/>
      <point x="288" y="185" type="line"/>
    </contour>
  </outline>
</glyph>
<glyph name="x" format="1">
  <advance width="404"/>
  <unicode hex="0078"/>
  <outline>
    <contour>
      <point x="8" y="0" type="line"/>
      <point x="144" y="280" type="line"/>
      <point x="12" y="551" type="line"/>
      <point x="118" y="551" type="line"/>
      <point x="202" y="392" type="line"/>
      <point x="285" y="550" type="line"/>
      <point x="392" y="550" type="line"/>
      <point x="262" y="280" type="line"/>
      <point x="396" y="0" type="line"/>
      <point x="290" y="0" type="line"/>
      <point x="202" y="168" type="line"/>
      <point x="114" y="0" type="line"/>
    </contour>
  </outline>
</glyph>
<glyph name="y" format="1">
  <advance width="417"/>
  <unicode hex="0079"/>
  <outline>
    <contour>
      <point x="5" y="555" type="line"/>
      <point x="115" y="556" type="line"/>
      <point x="260" y="125" type="line"/>
      <point x="156" y="-188" type="line"/>
      <point x="49" y="-188" type="line"/>
      <point x="147" y="126" type="line"/>
    </contour>
    <contour>
      <point x="231" y="363" type="line"/>
      <point x="302" y="556" type="line"/>
      <point x="413" y="555" type="line"/>
      <point x="287" y="212" type="line"/>
      <point x="277" y="212" type="line"/>
    </contour>
  </outline>
</glyph>
<glyph name="z" format="1">
  <advance width="376"/>
  <unicode hex="007A"/>
  <outline>
    <contour>
      <point x="30" y="0" type="line"/>
      <point x="31" y="99" type="line"/>
      <point x="229" y="447" type="line"/>
      <point x="30" y="447" type="line"/>
      <point x="30" y="549" type="line"/>
      <point x="346" y="549" type="line"/>
      <point x="346" y="454" type="line"/>
      <point x="151" y="100" type="line"/>
      <point x="346" y="100" type="line"/>
      <point x="346" y="0" type="line"/>
    </contour>
  </outline>
</glyph>
<glyph name="braceleft" format="1">
  <advance width="269"/>
  <unicode hex="007B"/>
  <outline>
    <contour>
      <point x="15" y="348" type="curve"/>
      <point x="51" y="363"/>
      <point x="76" y="370"/>
      <point x="77" y="408" type="curve" smooth="yes"/>
      <point x="77" y="521" type="line" smooth="yes"/>
      <point x="77" y="712"/>
      <point x="148" y="735"/>
      <point x="249" y="735" type="curve"/>
      <point x="249" y="656" type="line"/>
      <point x="179" y="656"/>
      <point x="177" y="621"/>
      <point x="176" y="469" type="curve"/>
      <point x="176" y="383" type="line" smooth="yes"/>
      <point x="176" y="366"/>
      <point x="161" y="354"/>
      <point x="137" y="348" type="curve"/>
      <point x="162" y="340"/>
      <point x="176" y="325"/>
      <point x="176" y="304" type="curve" smooth="yes"/>
      <point x="176" y="207" type="line"/>
      <point x="176" y="62"/>
      <point x="198" y="40"/>
      <point x="249" y="40" type="curve"/>
      <point x="249" y="-38" type="line"/>
      <point x="152" y="-37"/>
      <point x="77" y="-26"/>
      <point x="77" y="175" type="curve" smooth="yes"/>
      <point x="77" y="290" type="line" smooth="yes"/>
      <point x="77" y="322"/>
      <point x="51" y="329"/>
    </contour>
  </outline>
</glyph>
<glyph name="braceright" format="1">
  <advance width="269"/>
  <unicode hex="007D"/>
  <outline>
    <contour>
      <point x="20" y="-38" type="curve"/>
      <point x="20" y="40" type="line"/>
      <point x="71" y="40"/>
      <point x="92" y="62"/>
      <point x="92" y="208" type="curve"/>
      <point x="92" y="304" type="line" smooth="yes"/>
      <point x="92" y="325"/>
      <point x="107" y="340"/>
      <point x="132" y="348" type="curve"/>
      <point x="108" y="354"/>
      <point x="92" y="366"/>
      <point x="92" y="384" type="curve" smooth="yes"/>
      <point x="92" y="469" type="line"/>
      <point x="92" y="621"/>
      <point x="89" y="656"/>
      <point x="20" y="656" type="curve"/>
      <point x="20" y="735" type="line"/>
      <point x="121" y="735"/>
      <point x="192" y="712"/>
      <point x="192" y="521" type="curve" smooth="yes"/>
      <point x="192" y="408" type="line" smooth="yes"/>
      <point x="193" y="370"/>
      <point x="218" y="363"/>
      <point x="254" y="348" type="curve"/>
      <point x="218" y="329"/>
      <point x="192" y="322"/>
      <point x="192" y="290" type="curve" smooth="yes"/>
      <point x="192" y="175" type="line" smooth="yes"/>
      <point x="192" y="-19"/>
      <point x="117" y="-38"/>
    </contour>
  </outline>
</glyph>
<glyph name="asciitilde" format="1">
  <advance width="628"/>
  <unicode hex="007E"/>
  <outline>
    <contour>
      <point x="80" y="287" type="curve"/>
      <point x="80" y="390" type="line"/>
      <point x="125" y="416"/>
      <point x="162" y="425"/>
      <point x="193" y="425" type="curve" smooth="yes"/>
      <point x="280" y="425"/>
      <point x="329" y="352"/>
      <point x="417" y="352" type="curve" smooth="yes"/>
      <point x="452" y="352"/>
      <point x="494" y="364"/>
      <point x="548" y="397" type="curve"/>
      <point x="548" y="296" type="line"/>
      <point x="492" y="262"/>
      <point x="448" y="250"/>
      <point x="411" y="250" type="curve" smooth="yes"/>
      <point x="319" y="250"/>
      <point x="269" y="323"/>
      <point x="187" y="323" type="curve" smooth="yes"/>
      <point x="157" y="323"/>
      <point x="122" y="314"/>
    </contour>
  </outline>
</glyph>
<glyph name="exclamdown" format="1">
  <advance width="211"/>
  <unicode hex="00A1"/>
  <outline>
    <contour>
      <point x="21" y="493" type="curve" smooth="yes"/>
      <point x="21" y="528"/>
      <point x="50" y="556"/>
      <point x="85" y="556" type="curve" smooth="yes"/>
      <point x="119" y="556"/>
      <point x="148" y="528"/>
      <point x="148" y="493" type="curve" smooth="yes"/>
      <point x="148" y="459"/>
      <point x="119" y="430"/>
      <point x="85" y="430" type="curve" smooth="yes"/>
      <point x="50" y="430"/>
      <point x="21" y="459"/>
    </contour>
    <contour>
      <point x="33" y="-165" type="line"/>
      <point x="33" y="386" type="line"/>
      <point x="137" y="386" type="line"/>
      <point x="137" y="-165" type="line"/>
    </contour>
  </outline>
</glyph>
<glyph name="cent" format="1">
  <advance width="444"/>
  <unicode hex="00A2"/>
  <outline>
    <contour>
      <point x="255" y="29" type="line"/>
      <point x="297" y="29" type="line"/>
      <point x="297" y="-83" type="line"/>
      <point x="255" y="-83" type="line"/>
    </contour>
    <contour>
      <point x="168" y="29" type="line"/>
      <point x="210" y="29" type="line"/>
      <point x="210" y="-83" type="line"/>
      <point x="168" y="-83" type="line"/>
    </contour>
    <contour>
      <point x="255" y="635" type="line"/>
      <point x="297" y="635" type="line"/>
      <point x="297" y="523" type="line"/>
      <point x="255" y="523" type="line"/>
    </contour>
    <contour>
      <point x="168" y="635" type="line"/>
      <point x="210" y="635" type="line"/>
      <point x="210" y="523" type="line"/>
      <point x="168" y="523" type="line"/>
    </contour>
    <contour>
      <point x="38" y="151" type="curve" smooth="yes"/>
      <point x="38" y="159"/>
      <point x="38" y="372"/>
      <point x="38" y="401" type="curve" smooth="yes"/>
      <point x="39" y="456"/>
      <point x="94" y="551"/>
      <point x="209" y="551" type="curve"/>
      <point x="209" y="452" type="line"/>
      <point x="162" y="452"/>
      <point x="140" y="418"/>
      <point x="140" y="390" type="curve" smooth="yes"/>
      <point x="140" y="157" type="line" smooth="yes"/>
      <point x="140" y="135"/>
      <point x="164" y="100"/>
      <point x="209" y="99" type="curve"/>
      <point x="209" y="0" type="line"/>
      <point x="82" y="0"/>
      <point x="38" y="100"/>
    </contour>
    <contour>
      <point x="255" y="451" type="curve"/>
      <point x="255" y="551" type="line"/>
      <point x="341" y="551"/>
      <point x="413" y="481"/>
      <point x="413" y="397" type="curve"/>
      <point x="317" y="361" type="line"/>
      <point x="317" y="363"/>
      <point x="317" y="389"/>
      <point x="317" y="390" type="curve" smooth="yes"/>
      <point x="315" y="433"/>
      <point x="283" y="451"/>
    </contour>
    <contour>
      <point x="255" y="-1" type="curve"/>
      <point x="255" y="99" type="line"/>
      <point x="290" y="99"/>
      <point x="326" y="118"/>
      <point x="329" y="162" type="curve" smooth="yes"/>
      <point x="329" y="164"/>
      <point x="329" y="188"/>
      <point x="329" y="190" type="curve"/>
      <point x="424" y="154" type="line"/>
      <point x="424" y="69"/>
      <point x="341" y="-1"/>
    </contour>
  </outline>
</glyph>
<glyph name="sterling" format="1">
  <advance width="432"/>
  <unicode hex="00A3"/>
  <outline>
    <contour>
      <point x="20" y="299" type="line"/>
      <point x="20" y="384" type="line"/>
      <point x="78" y="384" type="line"/>
      <point x="78" y="526" type="line" smooth="yes"/>
      <point x="78" y="621"/>
      <point x="130" y="705"/>
      <point x="248" y="705" type="curve" smooth="yes"/>
      <point x="249" y="705"/>
      <point x="250" y="705"/>
      <point x="250" y="705" type="curve" smooth="yes"/>
      <point x="277" y="705"/>
      <point x="299" y="700"/>
      <point x="318" y="692" type="curve"/>
      <point x="369" y="672"/>
      <point x="400" y="630"/>
      <point x="411" y="589" type="curve"/>
      <point x="333" y="549" type="line"/>
      <point x="320" y="579"/>
      <point x="298" y="610"/>
      <point x="254" y="610" type="curve" smooth="yes"/>
      <point x="214" y="610"/>
      <point x="181" y="585"/>
      <point x="181" y="529" type="curve" smooth="yes"/>
      <point x="181" y="385" type="line"/>
      <point x="322" y="385" type="line"/>
      <point x="322" y="300" type="line"/>
      <point x="180" y="300" type="line"/>
      <point x="180" y="86" type="line"/>
      <point x="406" y="86" type="line"/>
      <point x="406" y="0" type="line"/>
      <point x="78" y="0" type="line"/>
      <point x="78" y="299" type="line"/>
    </contour>
  </outline>
</glyph>
<glyph name="currency" format="1">
  <advance width="631"/>
  <unicode hex="00A4"/>
  <outline>
    <contour>
      <point x="41" y="182" type="line"/>
      <point x="131" y="263" type="line"/>
      <point x="129" y="267"/>
      <point x="128" y="280"/>
      <point x="128" y="284" type="curve" smooth="yes"/>
      <point x="128" y="445" type="line" smooth="yes"/>
      <point x="128" y="449"/>
      <point x="129" y="464"/>
      <point x="131" y="468" type="curve"/>
      <point x="40" y="549" type="line"/>
      <point x="97" y="614" type="line"/>
      <point x="172" y="547" type="line"/>
      <point x="199" y="575"/>
      <point x="238" y="595"/>
      <point x="292" y="595" type="curve"/>
      <point x="292" y="503" type="line"/>
      <point x="243" y="503"/>
      <point x="222" y="468"/>
      <point x="222" y="442" type="curve" smooth="yes"/>
      <point x="222" y="286" type="line" smooth="yes"/>
      <point x="222" y="259"/>
      <point x="247" y="225"/>
      <point x="292" y="225" type="curve"/>
      <point x="292" y="133" type="line"/>
      <point x="237" y="133"/>
      <point x="198" y="154"/>
      <point x="172" y="183" type="curve"/>
      <point x="97" y="117" type="line"/>
    </contour>
    <contour>
      <point x="333" y="133" type="curve"/>
      <point x="333" y="224" type="line"/>
      <point x="380" y="224"/>
      <point x="400" y="260"/>
      <point x="400" y="285" type="curve" smooth="yes"/>
      <point x="400" y="442" type="line" smooth="yes"/>
      <point x="400" y="469"/>
      <point x="379" y="503"/>
      <point x="333" y="503" type="curve"/>
      <point x="333" y="595" type="line"/>
      <point x="385" y="595"/>
      <point x="422" y="575"/>
      <point x="449" y="547" type="curve"/>
      <point x="524" y="614" type="line"/>
      <point x="581" y="549" type="line"/>
      <point x="489" y="467" type="line"/>
      <point x="491" y="463"/>
      <point x="492" y="450"/>
      <point x="492" y="446" type="curve" smooth="yes"/>
      <point x="492" y="284" type="line" smooth="yes"/>
      <point x="492" y="280"/>
      <point x="491" y="267"/>
      <point x="489" y="263" type="curve"/>
      <point x="580" y="182" type="line"/>
      <point x="523" y="117" type="line"/>
      <point x="449" y="183" type="line"/>
      <point x="423" y="154"/>
      <point x="386" y="133"/>
    </contour>
  </outline>
</glyph>
<glyph name="yen" format="1">
  <advance width="450"/>
  <unicode hex="00A5"/>
  <outline>
    <contour>
      <point x="18" y="263" type="line"/>
      <point x="439" y="263" type="line"/>
      <point x="439" y="211" type="line"/>
      <point x="18" y="211" type="line"/>
    </contour>
    <contour>
      <point x="18" y="366" type="line"/>
      <point x="439" y="366" type="line"/>
      <point x="439" y="315" type="line"/>
      <point x="18" y="315" type="line"/>
    </contour>
    <contour>
      <point x="178" y="0" type="line"/>
      <point x="178" y="254" type="line"/>
      <point x="42" y="698" type="line"/>
      <point x="148" y="698" type="line"/>
      <point x="232" y="440" type="line"/>
      <point x="314" y="698" type="line"/>
      <point x="420" y="698" type="line"/>
      <point x="284" y="253" type="line"/>
      <point x="284" y="0" type="line"/>
    </contour>
  </outline>
</glyph>
<glyph name="section" format="1">
  <advance width="603"/>
  <unicode hex="00A7"/>
  <outline>
    <contour>
      <point x="54" y="353" type="curve" smooth="yes"/>
      <point x="54" y="417"/>
      <point x="84" y="468"/>
      <point x="127" y="501" type="curve"/>
      <point x="119" y="520"/>
      <point x="116" y="544"/>
      <point x="116" y="573" type="curve" smooth="yes"/>
      <point x="116" y="713"/>
      <point x="228" y="759"/>
      <point x="297" y="759" type="curve" smooth="yes"/>
      <point x="405" y="759" type="line"/>
      <point x="405" y="657" type="line"/>
      <point x="312" y="657" type="line" smooth="yes"/>
      <point x="250" y="657"/>
      <point x="218" y="624"/>
      <point x="218" y="577" type="curve" smooth="yes"/>
      <point x="218" y="541"/>
      <point x="244" y="520"/>
      <point x="275" y="505" type="curve"/>
      <point x="275" y="385" type="line"/>
      <point x="261" y="389"/>
      <point x="249" y="393"/>
      <point x="239" y="398" type="curve" smooth="yes"/>
      <point x="221" y="405"/>
      <point x="206" y="412"/>
      <point x="193" y="422" type="curve"/>
      <point x="176" y="409"/>
      <point x="163" y="389"/>
      <point x="163" y="355" type="curve" smooth="yes"/>
      <point x="163" y="297"/>
      <point x="220" y="273"/>
      <point x="275" y="256" type="curve"/>
      <point x="275" y="144" type="line"/>
      <point x="241" y="155"/>
      <point x="206" y="164"/>
      <point x="180" y="178" type="curve" smooth="yes"/>
      <point x="115" y="211"/>
      <point x="54" y="253"/>
    </contour>
    <contour>
      <point x="198" y="-34" type="line"/>
      <point x="289" y="-34" type="line" smooth="yes"/>
      <point x="347" y="-34"/>
      <point x="385" y="-3"/>
      <point x="385" y="48" type="curve" smooth="yes"/>
      <point x="385" y="86"/>
      <point x="359" y="107"/>
      <point x="326" y="121" type="curve"/>
      <point x="326" y="240" type="line"/>
      <point x="339" y="236"/>
      <point x="352" y="232"/>
      <point x="362" y="227" type="curve" smooth="yes"/>
      <point x="380" y="221"/>
      <point x="398" y="213"/>
      <point x="411" y="201" type="curve"/>
      <point x="428" y="215"/>
      <point x="440" y="236"/>
      <point x="440" y="268" type="curve" smooth="yes"/>
      <point x="440" y="329"/>
      <point x="382" y="352"/>
      <point x="326" y="368" type="curve"/>
      <point x="326" y="482" type="line"/>
      <point x="359" y="470"/>
      <point x="394" y="461"/>
      <point x="421" y="447" type="curve" smooth="yes"/>
      <point x="484" y="417"/>
      <point x="549" y="374"/>
      <point x="549" y="270" type="curve" smooth="yes"/>
      <point x="549" y="209"/>
      <point x="521" y="156"/>
      <point x="477" y="120" type="curve"/>
      <point x="484" y="101"/>
      <point x="487" y="77"/>
      <point x="487" y="50" type="curve" smooth="yes"/>
      <point x="487" y="-73"/>
      <point x="391" y="-136"/>
      <point x="304" y="-136" type="curve" smooth="yes"/>
      <point x="198" y="-136" type="line"/>
    </contour>
  </outline>
</glyph>
<glyph name="dieresis" format="1">
  <advance width="378"/>
  <unicode hex="00A8"/>
  <outline>
    <contour>
      <point x="55" y="678" type="curve" smooth="yes"/>
      <point x="55" y="712"/>
      <point x="82" y="739"/>
      <point x="115" y="739" type="curve" smooth="yes"/>
      <point x="148" y="739"/>
      <point x="175" y="712"/>
      <point x="175" y="678" type="curve" smooth="yes"/>
      <point x="175" y="645"/>
      <point x="148" y="619"/>
      <point x="115" y="619" type="curve" smooth="yes"/>
      <point x="82" y="619"/>
      <point x="55" y="645"/>
    </contour>
    <contour>
      <point x="203" y="678" type="curve" smooth="yes"/>
      <point x="203" y="712"/>
      <point x="230" y="739"/>
      <point x="263" y="739" type="curve" smooth="yes"/>
      <point x="296" y="739"/>
      <point x="323" y="712"/>
      <point x="323" y="678" type="curve" smooth="yes"/>
      <point x="323" y="645"/>
      <point x="296" y="619"/>
      <point x="263" y="619" type="curve" smooth="yes"/>
      <point x="230" y="619"/>
      <point x="203" y="645"/>
    </contour>
  </outline>
</glyph>
<glyph name="ordfeminine" format="1">
  <advance width="242"/>
  <unicode hex="00AA"/>
  <outline>
    <contour>
      <point x="19" y="347" type="line"/>
      <point x="19" y="398" type="line"/>
      <point x="220" y="398" type="line"/>
      <point x="220" y="347" type="line"/>
    </contour>
    <component base="a" xScale="0.5" yScale="0.5" xOffset="2" yOffset="428"/>
  </outline>
</glyph>
<glyph name="guillemotleft" format="1">
  <advance width="463"/>
  <unicode hex="00AB"/>
  <outline>
    <contour>
      <point x="22" y="266" type="line"/>
      <point x="22" y="314" type="line"/>
      <point x="233" y="470" type="line"/>
      <point x="233" y="369" type="line"/>
      <point x="123" y="292" type="line"/>
      <point x="233" y="208" type="line"/>
      <point x="233" y="109" type="line"/>
    </contour>
    <contour>
      <point x="233" y="266" type="line"/>
      <point x="233" y="314" type="line"/>
      <point x="444" y="470" type="line"/>
      <point x="444" y="369" type="line"/>
      <point x="334" y="292" type="line"/>
      <point x="444" y="208" type="line"/>
      <point x="444" y="109" type="line"/>
    </contour>
  </outline>
</glyph>
<glyph name="logicalnot" format="1">
  <advance width="528"/>
  <unicode hex="00AC"/>
  <outline>
    <contour>
      <point x="40" y="340" type="line"/>
      <point x="40" y="430" type="line"/>
      <point x="478" y="430" type="line"/>
      <point x="478" y="208" type="line"/>
      <point x="384" y="208" type="line"/>
      <point x="384" y="340" type="line"/>
    </contour>
  </outline>
</glyph>
<glyph name="registered" format="1">
  <advance width="394"/>
  <unicode hex="00AE"/>
  <outline>
    <contour>
      <point x="30" y="525" type="curve" smooth="yes"/>
      <point x="30" y="644"/>
      <point x="127" y="698"/>
      <point x="190" y="698" type="curve"/>
      <point x="190" y="666" type="line"/>
      <point x="126" y="666"/>
      <point x="60" y="610"/>
      <point x="60" y="526" type="curve"/>
      <point x="61" y="456"/>
      <point x="118" y="394"/>
      <point x="186" y="392" type="curve"/>
      <point x="187" y="359" type="line"/>
      <point x="106" y="360"/>
      <point x="30" y="437"/>
    </contour>
    <contour>
      <point x="145" y="431" type="line"/>
      <point x="145" y="627" type="line"/>
      <point x="175" y="627" type="line"/>
      <point x="175" y="431" type="line"/>
    </contour>
    <contour>
      <point x="189" y="515" type="curve"/>
      <point x="189" y="543" type="line"/>
      <point x="201" y="543" type="line" smooth="yes"/>
      <point x="223" y="543"/>
      <point x="235" y="553"/>
      <point x="235" y="569" type="curve" smooth="yes"/>
      <point x="235" y="593"/>
      <point x="216" y="599"/>
      <point x="195" y="599" type="curve" smooth="yes"/>
      <point x="189" y="599" type="line"/>
      <point x="189" y="628" type="line"/>
      <point x="228" y="628"/>
      <point x="263" y="613"/>
      <point x="263" y="570" type="curve" smooth="yes"/>
      <point x="263" y="550"/>
      <point x="255" y="537"/>
      <point x="241" y="530" type="curve"/>
      <point x="251" y="524"/>
      <point x="262" y="509"/>
      <point x="263" y="492" type="curve" smooth="yes"/>
      <point x="265" y="431" type="line"/>
      <point x="237" y="431" type="line"/>
      <point x="236" y="481" type="line" smooth="yes"/>
      <point x="235" y="508"/>
      <point x="226" y="515"/>
    </contour>
    <contour>
      <point x="206" y="359" type="curve"/>
      <point x="206" y="392" type="line"/>
      <point x="275" y="394"/>
      <point x="334" y="456"/>
      <point x="334" y="527" type="curve" smooth="yes"/>
      <point x="334" y="609"/>
      <point x="269" y="666"/>
      <point x="206" y="666" type="curve"/>
      <point x="206" y="698" type="line"/>
      <point x="273" y="697"/>
      <point x="364" y="635"/>
      <point x="364" y="528" type="curve" smooth="yes"/>
      <point x="364" y="428"/>
      <point x="285" y="362"/>
    </contour>
  </outline>
</glyph>
<glyph name="degree" format="1">
  <advance width="272"/>
  <unicode hex="00B0"/>
  <outline>
    <contour>
      <point x="35" y="583" type="curve" smooth="yes"/>
      <point x="35" y="639"/>
      <point x="80" y="683"/>
      <point x="135" y="683" type="curve" smooth="yes"/>
      <point x="191" y="683"/>
      <point x="237" y="639"/>
      <point x="237" y="583" type="curve" smooth="yes"/>
      <point x="237" y="528"/>
      <point x="191" y="483"/>
      <point x="135" y="483" type="curve" smooth="yes"/>
      <point x="80" y="483"/>
      <point x="35" y="528"/>
    </contour>
    <contour>
      <point x="97" y="583" type="curve" smooth="yes"/>
      <point x="97" y="562"/>
      <point x="114" y="545"/>
      <point x="135" y="545" type="curve" smooth="yes"/>
      <point x="157" y="545"/>
      <point x="174" y="562"/>
      <point x="174" y="583" type="curve" smooth="yes"/>
      <point x="174" y="605"/>
      <point x="157" y="622"/>
      <point x="135" y="622" type="curve" smooth="yes"/>
      <point x="114" y="622"/>
      <point x="97" y="605"/>
    </contour>
  </outline>
</glyph>
<glyph name="uni00B5" format="1">
  <advance width="499"/>
  <unicode hex="00B5"/>
  <outline>
    <contour>
      <point x="44" y="0" type="line"/>
      <point x="44" y="698" type="line"/>
      <point x="141" y="698" type="line"/>
      <point x="141" y="323" type="line" smooth="yes"/>
      <point x="141" y="305"/>
      <point x="167" y="287"/>
      <point x="210" y="287" type="curve"/>
      <point x="210" y="192" type="line"/>
      <point x="177" y="192"/>
      <point x="154" y="202"/>
      <point x="141" y="207" type="curve"/>
      <point x="141" y="0" type="line"/>
    </contour>
    <contour>
      <point x="252" y="192" type="curve"/>
      <point x="252" y="287" type="line"/>
      <point x="294" y="287"/>
      <point x="321" y="304"/>
      <point x="321" y="323" type="curve" smooth="yes"/>
      <point x="321" y="698" type="line"/>
      <point x="321" y="700" type="line"/>
      <point x="418" y="700" type="line"/>
      <point x="418" y="698" type="line"/>
      <point x="418" y="324" type="line" smooth="yes"/>
      <point x="418" y="306"/>
      <point x="423" y="289"/>
      <point x="460" y="289" type="curve"/>
      <point x="460" y="194" type="line"/>
      <point x="417" y="194"/>
      <point x="389" y="206"/>
      <point x="366" y="227" type="curve"/>
      <point x="338" y="206"/>
      <point x="300" y="192"/>
    </contour>
  </outline>
</glyph>
<glyph name="paragraph" format="1">
  <advance width="443"/>
  <unicode hex="00B6"/>
  <outline>
    <contour>
      <point x="35" y="517" type="curve" smooth="yes"/>
      <point x="35" y="617"/>
      <point x="102" y="705"/>
      <point x="204" y="705" type="curve" smooth="yes"/>
      <point x="232" y="705"/>
      <point x="242" y="705"/>
      <point x="270" y="705" type="curve"/>
      <point x="270" y="-5" type="line"/>
      <point x="204" y="-5" type="line"/>
      <point x="204" y="329" type="line"/>
      <point x="100" y="329"/>
      <point x="35" y="403"/>
    </contour>
    <contour>
      <point x="323" y="-5" type="line"/>
      <point x="323" y="705" type="line"/>
      <point x="389" y="705" type="line"/>
      <point x="389" y="-5" type="line"/>
    </contour>
  </outline>
</glyph>
<glyph name="cedilla" format="1">
  <advance width="417"/>
  <unicode hex="00B8"/>
  <outline>
    <contour>
      <point x="123" y="-27" type="curve"/>
      <point x="123" y="47" type="line"/>
      <point x="166" y="47"/>
      <point x="207" y="68"/>
      <point x="207" y="123" type="curve"/>
      <point x="282" y="123" type="line"/>
      <point x="282" y="53"/>
      <point x="242" y="-27"/>
    </contour>
  </outline>
</glyph>
<glyph name="guillemotright" format="1">
  <advance width="457"/>
  <unicode hex="00BB"/>
  <outline>
    <contour>
      <point x="15" y="115" type="line"/>
      <point x="15" y="211" type="line"/>
      <point x="132" y="292" type="line"/>
      <point x="15" y="365" type="line"/>
      <point x="15" y="463" type="line"/>
      <point x="226" y="317" type="line"/>
      <point x="226" y="263" type="line"/>
    </contour>
    <contour>
      <point x="226" y="115" type="line"/>
      <point x="226" y="211" type="line"/>
      <point x="343" y="292" type="line"/>
      <point x="226" y="365" type="line"/>
      <point x="226" y="463" type="line"/>
      <point x="437" y="317" type="line"/>
      <point x="437" y="263" type="line"/>
    </contour>
  </outline>
</glyph>
<glyph name="Aring" format="1">
  <advance width="516"/>
  <unicode hex="00C5"/>
  <outline>
    <contour>
      <point x="41" y="0" type="line"/>
      <point x="173" y="587" type="line"/>
      <point x="189" y="587" type="line"/>
      <point x="233" y="383" type="line"/>
      <point x="148" y="0" type="line"/>
    </contour>
    <contour>
      <point x="223" y="101" type="line"/>
      <point x="246" y="207" type="line"/>
      <point x="325" y="207" type="line"/>
      <point x="217" y="697" type="line"/>
      <point x="195" y="711"/>
      <point x="180" y="736"/>
      <point x="180" y="765" type="curve" smooth="yes"/>
      <point x="180" y="814"/>
      <point x="220" y="853"/>
      <point x="269" y="853" type="curve" smooth="yes"/>
      <point x="318" y="853"/>
      <point x="357" y="814"/>
      <point x="357" y="765" type="curve" smooth="yes"/>
      <point x="357" y="737"/>
      <point x="345" y="713"/>
      <point x="324" y="698" type="curve"/>
      <point x="475" y="0" type="line"/>
      <point x="369" y="0" type="line"/>
      <point x="346" y="101" type="line"/>
    </contour>
    <contour>
      <point x="235" y="765" type="curve" smooth="yes"/>
      <point x="235" y="746"/>
      <point x="250" y="731"/>
      <point x="269" y="731" type="curve" smooth="yes"/>
      <point x="288" y="731"/>
      <point x="303" y="746"/>
      <point x="303" y="765" type="curve" smooth="yes"/>
      <point x="303" y="784"/>
      <point x="288" y="799"/>
      <point x="269" y="799" type="curve" smooth="yes"/>
      <point x="250" y="799"/>
      <point x="235" y="784"/>
    </contour>
  </outline>
</glyph>
<glyph name="AE" format="1">
  <advance width="727"/>
  <unicode hex="00C6"/>
  <outline>
    <contour>
      <point x="44" y="0" type="line"/>
      <point x="224" y="700" type="line"/>
      <point x="701" y="700" type="line"/>
      <point x="701" y="592" type="line"/>
      <point x="462" y="592" type="line"/>
      <point x="462" y="402" type="line"/>
      <point x="607" y="402" type="line"/>
      <point x="607" y="294" type="line"/>
      <point x="462" y="294" type="line"/>
      <point x="462" y="108" type="line"/>
      <point x="701" y="108" type="line"/>
      <point x="701" y="0" type="line"/>
      <point x="353" y="0" type="line"/>
      <point x="353" y="161" type="line"/>
      <point x="255" y="161" type="line"/>
      <point x="278" y="255" type="line"/>
      <point x="353" y="255" type="line"/>
      <point x="353" y="592" type="line"/>
      <point x="311" y="592" type="line"/>
      <point x="164" y="0" type="line"/>
    </contour>
  </outline>
</glyph>
<glyph name="Eth" format="1">
  <advance width="485"/>
  <unicode hex="00D0"/>
  <outline>
    <contour>
      <point x="26" y="306" type="line"/>
      <point x="26" y="405" type="line"/>
      <point x="83" y="405" type="line"/>
      <point x="83" y="700" type="line"/>
      <point x="191" y="700" type="line"/>
      <point x="191" y="405" type="line"/>
      <point x="247" y="405" type="line"/>
      <point x="247" y="306" type="line"/>
      <point x="191" y="306" type="line"/>
      <point x="191" y="0" type="line"/>
      <point x="83" y="0" type="line"/>
      <point x="83" y="306" type="line"/>
    </contour>
    <contour>
      <point x="242" y="0" type="curve"/>
      <point x="242" y="108" type="line"/>
      <point x="292" y="108"/>
      <point x="365" y="114"/>
      <point x="366" y="197" type="curve" smooth="yes"/>
      <point x="366" y="503" type="line" smooth="yes"/>
      <point x="366" y="560"/>
      <point x="319" y="591"/>
      <point x="242" y="592" type="curve"/>
      <point x="242" y="700" type="line"/>
      <point x="389" y="700"/>
      <point x="475" y="611"/>
      <point x="475" y="503" type="curve" smooth="yes"/>
      <point x="475" y="197" type="line" smooth="yes"/>
      <point x="475" y="34"/>
      <point x="334" y="0"/>
    </contour>
  </outline>
</glyph>
<glyph name="multiply" format="1">
  <advance width="632"/>
  <unicode hex="00D7"/>
  <outline>
    <contour>
      <point x="104" y="466" type="line"/>
      <point x="225" y="587" type="line"/>
      <point x="273" y="538" type="line"/>
      <point x="391" y="656" type="line"/>
      <point x="512" y="535" type="line"/>
      <point x="464" y="488" type="line"/>
      <point x="582" y="370" type="line"/>
      <point x="460" y="249" type="line"/>
      <point x="413" y="296" type="line"/>
      <point x="296" y="177" type="line"/>
      <point x="174" y="299" type="line"/>
      <point x="222" y="347" type="line"/>
    </contour>
  </outline>
</glyph>
<glyph name="Oslash" format="1">
  <advance width="666"/>
  <unicode hex="00D8"/>
  <outline>
    <contour>
      <point x="8" y="121" type="line"/>
      <point x="108" y="212" type="line"/>
      <point x="108" y="524" type="line" smooth="yes"/>
      <point x="108" y="584"/>
      <point x="173" y="705"/>
      <point x="305" y="705" type="curve"/>
      <point x="305" y="597" type="line"/>
      <point x="242" y="596"/>
      <point x="217" y="535"/>
      <point x="217" y="504" type="curve" smooth="yes"/>
      <point x="217" y="310" type="line"/>
      <point x="446" y="516" type="line"/>
      <point x="441" y="547"/>
      <point x="418" y="596"/>
      <point x="359" y="597" type="curve"/>
      <point x="359" y="705" type="line"/>
      <point x="447" y="705"/>
      <point x="505" y="649"/>
      <point x="534" y="595" type="curve"/>
      <point x="592" y="648" type="line"/>
      <point x="654" y="580" type="line"/>
      <point x="556" y="491" type="line"/>
      <point x="556" y="195" type="line" smooth="yes"/>
      <point x="556" y="51"/>
      <point x="419" y="-5"/>
      <point x="359" y="-5" type="curve"/>
      <point x="359" y="104" type="line"/>
      <point x="380" y="104"/>
      <point x="447" y="130"/>
      <point x="447" y="195" type="curve" smooth="yes"/>
      <point x="447" y="393" type="line"/>
      <point x="218" y="186" type="line"/>
      <point x="223" y="128"/>
      <point x="284" y="104"/>
      <point x="304" y="104" type="curve"/>
      <point x="304" y="-5" type="line"/>
      <point x="258" y="-5"/>
      <point x="169" y="28"/>
      <point x="129" y="107" type="curve"/>
      <point x="69" y="53" type="line"/>
    </contour>
  </outline>
</glyph>
<glyph name="Thorn" format="1">
  <advance width="474"/>
  <unicode hex="00DE"/>
  <outline>
    <contour>
      <point x="42" y="0" type="line"/>
      <point x="42" y="700" type="line"/>
      <point x="151" y="700" type="line"/>
      <point x="151" y="0" type="line"/>
    </contour>
    <contour>
      <point x="204" y="208" type="curve"/>
      <point x="204" y="315" type="line"/>
      <point x="240" y="315" type="line" smooth="yes"/>
      <point x="275" y="315"/>
      <point x="338" y="321"/>
      <point x="338" y="398" type="curve" smooth="yes"/>
      <point x="338" y="475"/>
      <point x="277" y="483"/>
      <point x="239" y="483" type="curve" smooth="yes"/>
      <point x="204" y="483" type="line"/>
      <point x="204" y="590" type="line"/>
      <point x="394" y="592"/>
      <point x="447" y="526"/>
      <point x="448" y="401" type="curve" smooth="yes"/>
      <point x="449" y="252"/>
      <point x="367" y="204"/>
    </contour>
  </outline>
</glyph>
<glyph name="germandbls" format="1">
  <advance width="522"/>
  <unicode hex="00DF"/>
  <outline>
    <contour>
      <point x="26" y="0" type="line"/>
      <point x="26" y="457" type="line" smooth="yes"/>
      <point x="27" y="531"/>
      <point x="16" y="705"/>
      <point x="226" y="705" type="curve" smooth="yes"/>
      <point x="396" y="705"/>
      <point x="406" y="575"/>
      <point x="406" y="518" type="curve" smooth="yes"/>
      <point x="406" y="405" type="line"/>
      <point x="346" y="406" type="line" smooth="yes"/>
      <point x="312" y="402"/>
      <point x="305" y="374"/>
      <point x="305" y="364" type="curve" smooth="yes"/>
      <point x="305" y="349"/>
      <point x="310" y="326"/>
      <point x="391" y="299" type="curve" smooth="yes"/>
      <point x="441" y="282"/>
      <point x="496" y="244"/>
      <point x="496" y="158" type="curve" smooth="yes"/>
      <point x="496" y="58"/>
      <point x="420" y="0"/>
      <point x="327" y="0" type="curve" smooth="yes"/>
      <point x="199" y="0" type="line"/>
      <point x="199" y="86" type="line"/>
      <point x="318" y="86" type="line" smooth="yes"/>
      <point x="353" y="87"/>
      <point x="404" y="102"/>
      <point x="404" y="153" type="curve" smooth="yes"/>
      <point x="404" y="206"/>
      <point x="366" y="211"/>
      <point x="311" y="239" type="curve" smooth="yes"/>
      <point x="263" y="263"/>
      <point x="215" y="290"/>
      <point x="215" y="371" type="curve" smooth="yes"/>
      <point x="215" y="442"/>
      <point x="268" y="476"/>
      <point x="317" y="487" type="curve"/>
      <point x="317" y="499" type="line" smooth="yes"/>
      <point x="317" y="566"/>
      <point x="298" y="612"/>
      <point x="225" y="612" type="curve" smooth="yes"/>
      <point x="143" y="612"/>
      <point x="127" y="554"/>
      <point x="127" y="498" type="curve" smooth="yes"/>
      <point x="127" y="0" type="line"/>
    </contour>
  </outline>
</glyph>
<glyph name="ae" format="1">
  <advance width="592"/>
  <unicode hex="00E6"/>
  <outline>
    <contour>
      <point x="26" y="114" type="curve" smooth="yes"/>
      <point x="26" y="173" type="line" smooth="yes"/>
      <point x="26" y="298"/>
      <point x="292" y="285"/>
      <point x="292" y="355" type="curve" smooth="yes"/>
      <point x="292" y="376" type="line" smooth="yes"/>
      <point x="292" y="408"/>
      <point x="253" y="434"/>
      <point x="208" y="434" type="curve" smooth="yes"/>
      <point x="163" y="434"/>
      <point x="116" y="412"/>
      <point x="116" y="357" type="curve"/>
      <point x="40" y="379" type="line"/>
      <point x="39" y="462"/>
      <point x="120" y="519"/>
      <point x="206" y="519" type="curve" smooth="yes"/>
      <point x="267" y="519"/>
      <point x="309" y="502"/>
      <point x="341" y="469" type="curve"/>
      <point x="366" y="495"/>
      <point x="403" y="516"/>
      <point x="454" y="516" type="curve"/>
      <point x="454" y="426" type="line"/>
      <point x="412" y="426"/>
      <point x="384" y="392"/>
      <point x="384" y="362" type="curve" smooth="yes"/>
      <point x="384" y="354"/>
      <point x="384" y="319"/>
      <point x="384" y="312" type="curve"/>
      <point x="573" y="312" type="line"/>
      <point x="573" y="362" type="line" smooth="yes"/>
      <point x="573" y="400"/>
      <point x="536" y="426"/>
      <point x="502" y="426" type="curve"/>
      <point x="502" y="516" type="line"/>
      <point x="576" y="516"/>
      <point x="663" y="453"/>
      <point x="663" y="378" type="curve" smooth="yes"/>
      <point x="663" y="220" type="line"/>
      <point x="384" y="220" type="line"/>
      <point x="384" y="142" type="line" smooth="yes"/>
      <point x="384" y="101"/>
      <point x="429" y="85"/>
      <point x="476" y="85" type="curve" smooth="yes"/>
      <point x="535" y="85"/>
      <point x="574" y="104"/>
      <point x="585" y="149" type="curve"/>
      <point x="664" y="120" type="line"/>
      <point x="644" y="41"/>
      <point x="574" y="0"/>
      <point x="478" y="0" type="curve" smooth="yes"/>
      <point x="415" y="0"/>
      <point x="366" y="11"/>
      <point x="337" y="44" type="curve"/>
      <point x="311" y="14"/>
      <point x="274" y="1"/>
      <point x="228" y="1" type="curve"/>
      <point x="228" y="89" type="line"/>
      <point x="268" y="89"/>
      <point x="292" y="115"/>
      <point x="292" y="149" type="curve" smooth="yes"/>
      <point x="292" y="253" type="line"/>
      <point x="247" y="220"/>
      <point x="108" y="220"/>
      <point x="108" y="162" type="curve"/>
      <point x="108" y="147" type="line" smooth="yes"/>
      <point x="108" y="103"/>
      <point x="139" y="89"/>
      <point x="181" y="89" type="curve"/>
      <point x="181" y="1" type="line"/>
      <point x="84" y="1"/>
      <point x="26" y="57"/>
    </contour>
  </outline>
</glyph>
<glyph name="eth" format="1">
  <advance width="420"/>
  <unicode hex="00F0"/>
  <outline>
    <contour>
      <point x="28" y="141" type="curve" smooth="yes"/>
      <point x="28" y="376" type="line" smooth="yes"/>
      <point x="28" y="425"/>
      <point x="82" y="516"/>
      <point x="192" y="516" type="curve"/>
      <point x="192" y="424" type="line"/>
      <point x="142" y="424"/>
      <point x="122" y="387"/>
      <point x="122" y="363" type="curve" smooth="yes"/>
      <point x="122" y="154" type="line" smooth="yes"/>
      <point x="122" y="125"/>
      <point x="146" y="91"/>
      <point x="192" y="91" type="curve"/>
      <point x="192" y="-1" type="line"/>
      <point x="80" y="-1"/>
      <point x="28" y="93"/>
    </contour>
    <contour>
      <point x="192" y="659" type="curve"/>
      <point x="192" y="714" type="line"/>
      <point x="247" y="704"/>
      <point x="297" y="680"/>
      <point x="333" y="638" type="curve"/>
      <point x="385" y="654" type="line"/>
      <point x="401" y="603" type="line"/>
      <point x="362" y="591" type="line"/>
      <point x="382" y="551"/>
      <point x="392" y="502"/>
      <point x="392" y="440" type="curve" smooth="yes"/>
      <point x="392" y="141" type="line" smooth="yes"/>
      <point x="392" y="92"/>
      <point x="341" y="-1"/>
      <point x="233" y="-1" type="curve"/>
      <point x="233" y="91" type="line"/>
      <point x="280" y="91"/>
      <point x="300" y="128"/>
      <point x="300" y="152" type="curve" smooth="yes"/>
      <point x="299" y="366" type="line" smooth="yes"/>
      <point x="299" y="395"/>
      <point x="278" y="424"/>
      <point x="233" y="424" type="curve"/>
      <point x="233" y="516" type="line"/>
      <point x="259" y="516"/>
      <point x="280" y="510"/>
      <point x="297" y="499" type="curve"/>
      <point x="295" y="527"/>
      <point x="291" y="549"/>
      <point x="284" y="567" type="curve"/>
      <point x="224" y="549" type="line"/>
      <point x="209" y="600" type="line"/>
      <point x="260" y="616" type="line"/>
      <point x="241" y="637"/>
      <point x="216" y="649"/>
    </contour>
  </outline>
</glyph>
<glyph name="divide" format="1">
  <advance width="650"/>
  <unicode hex="00F7"/>
  <outline>
    <contour>
      <point x="78" y="242" type="line"/>
      <point x="78" y="341" type="line"/>
      <point x="528" y="341" type="line"/>
      <point x="528" y="242" type="line"/>
    </contour>
    <component base="period" xOffset="224" yOffset="403"/>
    <component base="period" xOffset="224" yOffset="106"/>
  </outline>
</glyph>
<glyph name="oslash" format="1">
  <advance width="473"/>
  <unicode hex="00F8"/>
  <outline>
    <contour>
      <point x="4" y="78" type="line"/>
      <point x="68" y="135" type="line"/>
      <point x="67" y="138"/>
      <point x="67" y="147"/>
      <point x="67" y="149" type="curve" smooth="yes"/>
      <point x="67" y="376" type="line" smooth="yes"/>
      <point x="67" y="425"/>
      <point x="120" y="516"/>
      <point x="231" y="516" type="curve"/>
      <point x="231" y="424" type="line"/>
      <point x="181" y="424"/>
      <point x="161" y="387"/>
      <point x="161" y="363" type="curve" smooth="yes"/>
      <point x="161" y="221" type="line"/>
      <point x="335" y="381" type="line"/>
      <point x="328" y="404"/>
      <point x="309" y="424"/>
      <point x="272" y="424" type="curve"/>
      <point x="272" y="516" type="line"/>
      <point x="337" y="516"/>
      <point x="381" y="484"/>
      <point x="406" y="446" type="curve"/>
      <point x="449" y="485" type="line"/>
      <point x="494" y="435" type="line"/>
      <point x="430" y="377" type="line"/>
      <point x="430" y="375"/>
      <point x="431" y="365"/>
      <point x="431" y="364" type="curve" smooth="yes"/>
      <point x="431" y="141" type="line" smooth="yes"/>
      <point x="431" y="92"/>
      <point x="379" y="-1"/>
      <point x="272" y="-1" type="curve"/>
      <point x="272" y="91" type="line"/>
      <point x="319" y="91"/>
      <point x="338" y="128"/>
      <point x="338" y="152" type="curve" smooth="yes"/>
      <point x="338" y="292" type="line"/>
      <point x="166" y="134" type="line"/>
      <point x="174" y="110"/>
      <point x="195" y="91"/>
      <point x="231" y="91" type="curve"/>
      <point x="231" y="-1" type="line"/>
      <point x="164" y="-1"/>
      <point x="120" y="30"/>
      <point x="94" y="68" type="curve"/>
      <point x="49" y="27" type="line"/>
    </contour>
  </outline>
</glyph>
<glyph name="thorn" format="1">
  <advance width="422"/>
  <unicode hex="00FE"/>
  <outline>
    <contour>
      <point x="30" y="-182" type="line"/>
      <point x="30" y="700" type="line"/>
      <point x="128" y="700" type="line"/>
      <point x="128" y="-182" type="line"/>
    </contour>
    <contour>
      <point x="170" y="424" type="line"/>
      <point x="170" y="516" type="line"/>
      <point x="228" y="516" type="line" smooth="yes"/>
      <point x="335" y="516"/>
      <point x="396" y="431"/>
      <point x="396" y="375" type="curve" smooth="yes"/>
      <point x="396" y="139" type="line" smooth="yes"/>
      <point x="396" y="86"/>
      <point x="345" y="0"/>
      <point x="232" y="0" type="curve" smooth="yes"/>
      <point x="177" y="0" type="line"/>
      <point x="177" y="92" type="line"/>
      <point x="234" y="92" type="line" smooth="yes"/>
      <point x="278" y="93"/>
      <point x="302" y="115"/>
      <point x="302" y="148" type="curve" smooth="yes"/>
      <point x="302" y="369" type="line" smooth="yes"/>
      <point x="302" y="401"/>
      <point x="271" y="424"/>
      <point x="228" y="424" type="curve" smooth="yes"/>
    </contour>
  </outline>
</glyph>
<glyph name="dcroat" format="1">
  <advance width="414"/>
  <unicode hex="0111"/>
  <outline>
    <contour>
      <point x="29" y="141" type="curve" smooth="yes"/>
      <point x="29" y="377" type="line" smooth="yes"/>
      <point x="29" y="430"/>
      <point x="85" y="516"/>
      <point x="180" y="516" type="curve" smooth="yes"/>
      <point x="238" y="516" type="line"/>
      <point x="238" y="424" type="line"/>
      <point x="180" y="424" type="line" smooth="yes"/>
      <point x="144" y="423"/>
      <point x="122" y="391"/>
      <point x="122" y="373" type="curve" smooth="yes"/>
      <point x="122" y="143" type="line" smooth="yes"/>
      <point x="122" y="123"/>
      <point x="147" y="92"/>
      <point x="182" y="92" type="curve" smooth="yes"/>
      <point x="238" y="92" type="line"/>
      <point x="238" y="0" type="line"/>
      <point x="182" y="0" type="line" smooth="yes"/>
      <point x="78" y="0"/>
      <point x="29" y="95"/>
    </contour>
    <contour>
      <point x="222" y="554" type="line"/>
      <point x="222" y="653" type="line"/>
      <point x="286" y="653" type="line"/>
      <point x="286" y="698" type="line"/>
      <point x="384" y="698" type="line"/>
      <point x="384" y="653" type="line"/>
      <point x="448" y="653" type="line"/>
      <point x="448" y="554" type="line"/>
      <point x="384" y="554" type="line"/>
      <point x="384" y="0" type="line"/>
      <point x="286" y="0" type="line"/>
      <point x="286" y="554" type="line"/>
    </contour>
  </outline>
</glyph>
<glyph name="Lslash" format="1">
  <advance width="497"/>
  <unicode hex="0141"/>
  <outline>
    <contour>
      <point x="34" y="292" type="line"/>
      <point x="129" y="366" type="line"/>
      <point x="129" y="700" type="line"/>
      <point x="238" y="700" type="line"/>
      <point x="238" y="450" type="line"/>
      <point x="312" y="509" type="line"/>
      <point x="369" y="435" type="line"/>
      <point x="238" y="333" type="line"/>
      <point x="238" y="107" type="line"/>
      <point x="505" y="107" type="line"/>
      <point x="505" y="0" type="line"/>
      <point x="129" y="0" type="line"/>
      <point x="129" y="248" type="line"/>
      <point x="91" y="219" type="line"/>
    </contour>
  </outline>
</glyph>
<glyph name="lslash" format="1">
  <advance width="424"/>
  <unicode hex="0142"/>
  <outline>
    <contour>
      <point x="52" y="307" type="line"/>
      <point x="315" y="512" type="line"/>
      <point x="372" y="438" type="line"/>
      <point x="109" y="233" type="line"/>
    </contour>
    <contour>
      <point x="169" y="-6" type="line"/>
      <point x="169" y="704" type="line"/>
      <point x="280" y="704" type="line"/>
      <point x="280" y="-6" type="line"/>
    </contour>
  </outline>
</glyph>
<glyph name="OE" format="1">
  <advance width="627"/>
  <unicode hex="0152"/>
  <outline>
    <contour>
      <point x="9" y="199" type="curve" smooth="yes"/>
      <point x="9" y="514" type="line" smooth="yes"/>
      <point x="9" y="620"/>
      <point x="95" y="700"/>
      <point x="234" y="700" type="curve"/>
      <point x="234" y="592" type="line"/>
      <point x="159" y="591"/>
      <point x="118" y="560"/>
      <point x="118" y="503" type="curve" smooth="yes"/>
      <point x="118" y="199" type="line" smooth="yes"/>
      <point x="118" y="118"/>
      <point x="184" y="109"/>
      <point x="234" y="109" type="curve"/>
      <point x="234" y="0" type="line"/>
      <point x="142" y="0"/>
      <point x="9" y="38"/>
    </contour>
    <contour>
      <point x="285" y="0" type="line"/>
      <point x="285" y="109" type="line"/>
      <point x="334" y="109" type="line"/>
      <point x="334" y="592" type="line"/>
      <point x="285" y="592" type="line"/>
      <point x="285" y="700" type="line"/>
      <point x="698" y="700" type="line"/>
      <point x="698" y="593" type="line"/>
      <point x="443" y="593" type="line"/>
      <point x="443" y="402" type="line"/>
      <point x="604" y="402" type="line"/>
      <point x="604" y="294" type="line"/>
      <point x="443" y="294" type="line"/>
      <point x="443" y="108" type="line"/>
      <point x="698" y="108" type="line"/>
      <point x="698" y="0" type="line"/>
    </contour>
  </outline>
</glyph>
<glyph name="florin" format="1">
  <advance width="382"/>
  <unicode hex="0192"/>
  <outline>
    <contour>
      <point x="26" y="-168" type="line"/>
      <point x="48" y="-84" type="line"/>
      <point x="94" y="-84" type="line" smooth="yes"/>
      <point x="133" y="-84"/>
      <point x="141" y="-54"/>
      <point x="141" y="-38" type="curve" smooth="yes"/>
      <point x="141" y="412" type="line"/>
      <point x="78" y="412" type="line"/>
      <point x="78" y="503" type="line"/>
      <point x="141" y="503" type="line"/>
      <point x="141" y="547" type="line" smooth="yes"/>
      <point x="141" y="600"/>
      <point x="192" y="695"/>
      <point x="295" y="696" type="curve" smooth="yes"/>
      <point x="356" y="696" type="line"/>
      <point x="335" y="604" type="line"/>
      <point x="304" y="604" type="line" smooth="yes"/>
      <point x="253" y="604"/>
      <point x="237" y="572"/>
      <point x="237" y="544" type="curve" smooth="yes"/>
      <point x="237" y="502" type="line"/>
      <point x="303" y="503" type="line"/>
      <point x="303" y="412" type="line"/>
      <point x="237" y="412" type="line"/>
      <point x="237" y="-30" type="line" smooth="yes"/>
      <point x="237" y="-92"/>
      <point x="204" y="-168"/>
      <point x="92" y="-168" type="curve" smooth="yes"/>
    </contour>
  </outline>
</glyph>
<glyph name="circumflex" format="1">
  <advance width="270"/>
  <unicode hex="02C6"/>
  <outline>
    <contour>
      <point x="31" y="514" type="line"/>
      <point x="106" y="666" type="line"/>
      <point x="162" y="666" type="line"/>
      <point x="238" y="514" type="line"/>
      <point x="171" y="514" type="line"/>
      <point x="134" y="589" type="line"/>
      <point x="98" y="514" type="line"/>
    </contour>
  </outline>
</glyph>
<glyph name="dotaccent" format="1">
  <advance width="202"/>
  <unicode hex="02D9"/>
  <outline>
    <contour>
      <point x="40" y="678" type="curve" smooth="yes"/>
      <point x="40" y="712"/>
      <point x="67" y="740"/>
      <point x="101" y="740" type="curve" smooth="yes"/>
      <point x="135" y="740"/>
      <point x="162" y="712"/>
      <point x="162" y="678" type="curve" smooth="yes"/>
      <point x="162" y="644"/>
      <point x="135" y="617"/>
      <point x="101" y="617" type="curve" smooth="yes"/>
      <point x="67" y="617"/>
      <point x="40" y="644"/>
    </contour>
  </outline>
</glyph>
<glyph name="ring" format="1">
  <advance width="244"/>
  <unicode hex="02DA"/>
  <outline>
    <contour>
      <point x="35" y="526" type="curve" smooth="yes"/>
      <point x="35" y="574"/>
      <point x="74" y="613"/>
      <point x="122" y="613" type="curve" smooth="yes"/>
      <point x="170" y="613"/>
      <point x="209" y="574"/>
      <point x="209" y="526" type="curve" smooth="yes"/>
      <point x="209" y="478"/>
      <point x="170" y="439"/>
      <point x="122" y="439" type="curve" smooth="yes"/>
      <point x="74" y="439"/>
      <point x="35" y="478"/>
    </contour>
    <contour>
      <point x="90" y="526" type="curve" smooth="yes"/>
      <point x="90" y="508"/>
      <point x="104" y="494"/>
      <point x="122" y="494" type="curve" smooth="yes"/>
      <point x="140" y="494"/>
      <point x="154" y="508"/>
      <point x="154" y="526" type="curve" smooth="yes"/>
      <point x="154" y="544"/>
      <point x="140" y="558"/>
      <point x="122" y="558" type="curve" smooth="yes"/>
      <point x="104" y="558"/>
      <point x="90" y="544"/>
    </contour>
  </outline>
</glyph>
<glyph name="ogonek" format="1">
  <advance width="219"/>
  <unicode hex="02DB"/>
  <outline>
    <contour>
      <point x="106" y="-190" type="line"/>
      <point x="-13" y="-190"/>
      <point x="-53" y="-110"/>
      <point x="-53" y="-40" type="curve"/>
      <point x="22" y="-40" type="line"/>
      <point x="22" y="-95"/>
      <point x="63" y="-116"/>
      <point x="106" y="-116" type="curve"/>
    </contour>
  </outline>
</glyph>
<glyph name="tilde" format="1">
  <advance width="333"/>
  <unicode hex="02DC"/>
  <outline>
    <contour>
      <point x="26" y="114" type="curve"/>
      <point x="26" y="196" type="line"/>
      <point x="54" y="212"/>
      <point x="77" y="218"/>
      <point x="96" y="218" type="curve" smooth="yes"/>
      <point x="147" y="218"/>
      <point x="176" y="177"/>
      <point x="227" y="177" type="curve" smooth="yes"/>
      <point x="249" y="177"/>
      <point x="274" y="185"/>
      <point x="307" y="205" type="curve"/>
      <point x="307" y="124" type="line"/>
      <point x="273" y="103"/>
      <point x="246" y="96"/>
      <point x="223" y="96" type="curve" smooth="yes"/>
      <point x="170" y="96"/>
      <point x="140" y="136"/>
      <point x="92" y="136" type="curve" smooth="yes"/>
      <point x="74" y="136"/>
      <point x="52" y="130"/>
    </contour>
  </outline>
</glyph>
<glyph name="pi" format="1">
  <advance width="421"/>
  <unicode hex="03C0"/>
  <outline>
    <contour>
      <point x="-28" y="417" type="line"/>
      <point x="-28" y="516" type="line"/>
      <point x="452" y="516" type="line"/>
      <point x="452" y="417" type="line"/>
      <point x="383" y="417" type="line"/>
      <point x="383" y="142" type="line" smooth="yes"/>
      <point x="383" y="99"/>
      <point x="402" y="84"/>
      <point x="438" y="84" type="curve"/>
      <point x="438" y="-4" type="line"/>
      <point x="339" y="-4"/>
      <point x="293" y="64"/>
      <point x="293" y="133" type="curve" smooth="yes"/>
      <point x="293" y="417" type="line"/>
      <point x="135" y="417" type="line"/>
      <point x="135" y="-1" type="line"/>
      <point x="39" y="-1" type="line"/>
      <point x="39" y="417" type="line"/>
    </contour>
  </outline>
</glyph>
<glyph name="tml_Visarga" format="1">
  <advance width="209"/>
  <unicode hex="0B83"/>
  <outline>
    <contour>
      <point x="179" y="118" type="curve" smooth="yes"/>
      <point x="179" y="176"/>
      <point x="225" y="223"/>
      <point x="283" y="223" type="curve" smooth="yes"/>
      <point x="341" y="223"/>
      <point x="388" y="176"/>
      <point x="388" y="118" type="curve" smooth="yes"/>
      <point x="388" y="60"/>
      <point x="341" y="14"/>
      <point x="283" y="14" type="curve" smooth="yes"/>
      <point x="225" y="14"/>
      <point x="179" y="60"/>
    </contour>
    <contour>
      <point x="439" y="245" type="curve" smooth="yes"/>
      <point x="439" y="303"/>
      <point x="485" y="350"/>
      <point x="543" y="350" type="curve" smooth="yes"/>
      <point x="601" y="350"/>
      <point x="648" y="303"/>
      <point x="648" y="245" type="curve" smooth="yes"/>
      <point x="648" y="188"/>
      <point x="601" y="141"/>
      <point x="543" y="141" type="curve" smooth="yes"/>
      <point x="485" y="141"/>
      <point x="439" y="188"/>
    </contour>
    <contour>
      <point x="204" y="370" type="curve" smooth="yes"/>
      <point x="204" y="428"/>
      <point x="250" y="475"/>
      <point x="308" y="475" type="curve" smooth="yes"/>
      <point x="366" y="475"/>
      <point x="412" y="428"/>
      <point x="412" y="370" type="curve" smooth="yes"/>
      <point x="412" y="312"/>
      <point x="366" y="266"/>
      <point x="308" y="266" type="curve" smooth="yes"/>
      <point x="250" y="266"/>
      <point x="204" y="312"/>
    </contour>
  </outline>
</glyph>
<glyph name="tml_A" format="1">
  <advance width="1013"/>
  <unicode hex="0B85"/>
  <outline>
    <contour>
      <point x="274" y="486" type="curve" smooth="yes"/>
      <point x="274" y="606"/>
      <point x="376" y="695"/>
      <point x="531" y="695" type="curve" smooth="yes"/>
      <point x="703" y="695"/>
      <point x="803" y="585"/>
      <point x="803" y="393" type="curve"/>
      <point x="803" y="250" type="line"/>
      <point x="707" y="250" type="line"/>
      <point x="707" y="396" type="line" smooth="yes"/>
      <point x="707" y="528"/>
      <point x="650" y="599"/>
      <point x="531" y="599" type="curve" smooth="yes"/>
      <point x="427" y="599"/>
      <point x="370" y="548"/>
      <point x="370" y="486" type="curve" smooth="yes"/>
      <point x="370" y="424"/>
      <point x="410" y="385"/>
      <point x="465" y="385" type="curve" smooth="yes"/>
      <point x="518" y="385"/>
      <point x="566" y="414"/>
      <point x="566" y="480" type="curve" smooth="yes"/>
      <point x="634" y="409" type="line" smooth="yes"/>
      <point x="629" y="346"/>
      <point x="554" y="289"/>
      <point x="465" y="289" type="curve" smooth="yes"/>
      <point x="375" y="289"/>
      <point x="274" y="352"/>
    </contour>
    <contour>
      <point x="456" y="163" type="curve"/>
      <point x="456" y="258" type="line"/>
      <point x="535" y="258"/>
      <point x="724" y="258"/>
      <point x="803" y="258" type="curve"/>
      <point x="804" y="67" type="line"/>
      <point x="804" y="-35"/>
      <point x="737" y="-127"/>
      <point x="620" y="-127" type="curve" smooth="yes"/>
      <point x="458" y="-127" type="line" smooth="yes"/>
      <point x="458" y="-31" type="line"/>
      <point x="613" y="-31" type="line" smooth="yes"/>
      <point x="678" y="-30"/>
      <point x="707" y="13"/>
      <point x="707" y="68" type="curve"/>
      <point x="707" y="163" type="line"/>
      <point x="668" y="163"/>
      <point x="495" y="163"/>
    </contour>
    <contour>
      <point x="52" y="72" type="curve" smooth="yes"/>
      <point x="52" y="188"/>
      <point x="136" y="259"/>
      <point x="266" y="259" type="curve" smooth="yes"/>
      <point x="402" y="259" type="line"/>
      <point x="402" y="162" type="line"/>
      <point x="248" y="162" type="line" smooth="yes"/>
      <point x="224" y="162"/>
      <point x="148" y="150"/>
      <point x="148" y="72" type="curve" smooth="yes"/>
      <point x="148" y="-2"/>
      <point x="211" y="-31"/>
      <point x="262" y="-31" type="curve" smooth="yes"/>
      <point x="403" y="-31" type="line"/>
      <point x="403" y="-127" type="line"/>
      <point x="255" y="-127" type="line" smooth="yes"/>
      <point x="143" y="-127"/>
      <point x="52" y="-47"/>
    </contour>
    <contour>
      <point x="762" y="163" type="line"/>
      <point x="762" y="258" type="line"/>
      <point x="868" y="258" type="line"/>
      <point x="868" y="163" type="line"/>
    </contour>
    <contour>
      <point x="866" y="-107" type="line"/>
      <point x="866" y="578" type="line"/>
      <point x="962" y="578" type="line"/>
      <point x="962" y="-107" type="line"/>
    </contour>
  </outline>
</glyph>
<glyph name="tml_Aa" format="1">
  <advance width="1221"/>
  <unicode hex="0B86"/>
  <outline>
    <contour>
      <point x="683" y="-149" type="line"/>
      <point x="990" y="-148" type="line" smooth="yes"/>
      <point x="1058" y="-148"/>
      <point x="1087" y="-128"/>
      <point x="1087" y="-54" type="curve" smooth="yes"/>
      <point x="1087" y="21" type="line" smooth="yes"/>
      <point x="1087" y="86"/>
      <point x="1072" y="95"/>
      <point x="1016" y="95" type="curve" smooth="yes"/>
      <point x="1016" y="190" type="line"/>
      <point x="1107" y="190"/>
      <point x="1183" y="168"/>
      <point x="1183" y="21" type="curve" smooth="yes"/>
      <point x="1183" y="-53" type="line" smooth="yes"/>
      <point x="1183" y="-159"/>
      <point x="1143" y="-245"/>
      <point x="969" y="-245" type="curve" smooth="yes"/>
      <point x="683" y="-245" type="line"/>
    </contour>
    <component base="tml_A"/>
  </outline>
</glyph>
<glyph name="tml_Ii" format="1">
  <advance width="630"/>
  <unicode hex="0B88"/>
  <outline>
    <contour>
      <point x="459" y="250" type="curve" smooth="yes"/>
      <point x="459" y="281"/>
      <point x="484" y="307"/>
      <point x="516" y="307" type="curve" smooth="yes"/>
      <point x="547" y="307"/>
      <point x="573" y="281"/>
      <point x="573" y="250" type="curve" smooth="yes"/>
      <point x="573" y="218"/>
      <point x="547" y="193"/>
      <point x="516" y="193" type="curve" smooth="yes"/>
      <point x="484" y="193"/>
      <point x="459" y="218"/>
    </contour>
    <contour>
      <point x="185" y="250" type="curve" smooth="yes"/>
      <point x="185" y="282"/>
      <point x="210" y="308"/>
      <point x="241" y="308" type="curve" smooth="yes"/>
      <point x="273" y="308"/>
      <point x="299" y="282"/>
      <point x="299" y="250" type="curve" smooth="yes"/>
      <point x="299" y="219"/>
      <point x="273" y="194"/>
      <point x="241" y="194" type="curve" smooth="yes"/>
      <point x="210" y="194"/>
      <point x="185" y="219"/>
    </contour>
    <contour>
      <point x="336" y="0" type="line"/>
      <point x="432" y="0" type="line"/>
      <point x="432" y="593" type="line"/>
      <point x="336" y="593" type="line"/>
    </contour>
    <contour>
      <point x="52" y="1" type="line"/>
      <point x="52" y="592" type="line"/>
      <point x="148" y="593" type="line"/>
      <point x="148" y="1" type="line"/>
    </contour>
    <contour>
      <point x="270" y="499" type="line"/>
      <point x="574" y="499" type="line"/>
      <point x="574" y="595" type="line"/>
      <point x="270" y="595" type="line"/>
    </contour>
    <contour>
      <point x="52" y="499" type="line"/>
      <point x="52" y="595" type="line"/>
      <point x="216" y="595" type="line"/>
      <point x="216" y="499" type="line"/>
    </contour>
  </outline>
</glyph>
<glyph name="tml_Ka" format="1">
  <advance width="818"/>
  <unicode hex="0B95"/>
  <outline>
    <contour>
      <point x="331" y="-11" type="curve"/>
      <point x="331" y="85" type="line"/>
      <point x="400" y="85"/>
      <point x="441" y="120"/>
      <point x="441" y="188" type="curve" smooth="yes"/>
      <point x="441" y="548" type="line"/>
      <point x="537" y="548" type="line"/>
      <point x="537" y="191" type="line" smooth="yes"/>
      <point x="537" y="95"/>
      <point x="488" y="-11"/>
    </contour>
    <contour>
      <point x="186" y="348" type="line"/>
      <point x="186" y="546" type="line"/>
      <point x="283" y="546" type="line"/>
      <point x="282" y="348" type="line"/>
    </contour>
    <contour>
      <point x="389" y="497" type="line"/>
      <point x="389" y="595" type="line"/>
      <point x="669" y="595" type="line"/>
      <point x="669" y="497" type="line"/>
    </contour>
    <contour>
      <point x="186" y="497" type="line"/>
      <point x="186" y="595" type="line"/>
      <point x="335" y="595" type="line"/>
      <point x="335" y="497" type="line"/>
    </contour>
    <contour>
      <point x="61" y="164" type="curve" smooth="yes"/>
      <point x="61" y="231" type="line" smooth="yes"/>
      <point x="61" y="352"/>
      <point x="160" y="371"/>
      <point x="230" y="371" type="curve" smooth="yes"/>
      <point x="596" y="371" type="line" smooth="yes"/>
      <point x="702" y="371"/>
      <point x="773" y="343"/>
      <point x="773" y="226" type="curve" smooth="yes"/>
      <point x="773" y="163" type="line" smooth="yes"/>
      <point x="773" y="57"/>
      <point x="691" y="2"/>
      <point x="557" y="2" type="curve"/>
      <point x="558" y="99" type="line" smooth="yes"/>
      <point x="639" y="99"/>
      <point x="677" y="108"/>
      <point x="677" y="182" type="curve" smooth="yes"/>
      <point x="677" y="262"/>
      <point x="659" y="275"/>
      <point x="598" y="275" type="curve" smooth="yes"/>
      <point x="233" y="275" type="line" smooth="yes"/>
      <point x="169" y="275"/>
      <point x="156" y="250"/>
      <point x="156" y="188" type="curve" smooth="yes"/>
      <point x="156" y="113"/>
      <point x="189" y="85"/>
      <point x="277" y="85" type="curve"/>
      <point x="277" y="-11" type="line"/>
      <point x="130" y="-11"/>
      <point x="61" y="72"/>
    </contour>
  </outline>
</glyph>
<glyph name="tml_Nga" format="1">
  <advance width="895"/>
  <unicode hex="0B99"/>
  <outline>
    <contour>
      <point x="747" y="0" type="line"/>
      <point x="747" y="595" type="line"/>
      <point x="843" y="595" type="line"/>
      <point x="843" y="0" type="line"/>
    </contour>
    <contour>
      <point x="333" y="0" type="line"/>
      <point x="333" y="96" type="line"/>
      <point x="694" y="96" type="line"/>
      <point x="694" y="0" type="line"/>
    </contour>
    <contour>
      <point x="275" y="0" type="line"/>
      <point x="275" y="96" type="line"/>
      <point x="306" y="96"/>
      <point x="384" y="96"/>
      <point x="446" y="96" type="curve" smooth="yes"/>
      <point x="506" y="96"/>
      <point x="516" y="108"/>
      <point x="516" y="138" type="curve" smooth="yes"/>
      <point x="516" y="215" type="line" smooth="yes"/>
      <point x="516" y="255"/>
      <point x="494" y="258"/>
      <point x="444" y="258" type="curve" smooth="yes"/>
      <point x="444" y="354" type="line"/>
      <point x="530" y="354"/>
      <point x="613" y="322"/>
      <point x="613" y="229" type="curve" smooth="yes"/>
      <point x="613" y="113" type="line" smooth="yes"/>
      <point x="613" y="40"/>
      <point x="546" y="0"/>
      <point x="462" y="0" type="curve" smooth="yes"/>
    </contour>
    <contour>
      <point x="294" y="136" type="line"/>
      <point x="390" y="136" type="line"/>
      <point x="390" y="589" type="line"/>
      <point x="294" y="589" type="line"/>
    </contour>
    <contour>
      <point x="52" y="0" type="line"/>
      <point x="148" y="0" type="line"/>
      <point x="148" y="591" type="line"/>
      <point x="52" y="591" type="line"/>
    </contour>
    <contour>
      <point x="52" y="595" type="line"/>
      <point x="53" y="499" type="line"/>
      <point x="499" y="499" type="line"/>
      <point x="499" y="595" type="line"/>
    </contour>
  </outline>
</glyph>
<glyph name="tml_Ca" format="1">
  <advance width="702"/>
  <unicode hex="0B9A"/>
  <outline>
    <contour>
      <point x="39" y="162" type="curve" smooth="yes"/>
      <point x="39" y="211" type="line" smooth="yes"/>
      <point x="39" y="305"/>
      <point x="124" y="371"/>
      <point x="239" y="371" type="curve" smooth="yes"/>
      <point x="618" y="371" type="line"/>
      <point x="618" y="275" type="line"/>
      <point x="238" y="275" type="line" smooth="yes"/>
      <point x="177" y="275"/>
      <point x="134" y="263"/>
      <point x="134" y="188" type="curve" smooth="yes"/>
      <point x="134" y="105"/>
      <point x="176" y="95"/>
      <point x="257" y="95" type="curve"/>
      <point x="257" y="-1" type="line"/>
      <point x="94" y="0"/>
      <point x="39" y="87"/>
    </contour>
    <contour>
      <point x="310" y="-1" type="curve"/>
      <point x="310" y="95" type="line"/>
      <point x="385" y="95"/>
      <point x="420" y="127"/>
      <point x="420" y="187" type="curve" smooth="yes"/>
      <point x="420" y="588" type="line"/>
      <point x="516" y="588" type="line"/>
      <point x="516" y="191" type="line" smooth="yes"/>
      <point x="516" y="95"/>
      <point x="467" y="-1"/>
    </contour>
    <contour>
      <point x="164" y="348" type="line"/>
      <point x="164" y="586" type="line"/>
      <point x="261" y="586" type="line"/>
      <point x="260" y="348" type="line"/>
    </contour>
    <contour>
      <point x="369" y="497" type="line"/>
      <point x="369" y="595" type="line"/>
      <point x="663" y="595" type="line"/>
      <point x="663" y="497" type="line"/>
    </contour>
    <contour>
      <point x="164" y="497" type="line"/>
      <point x="164" y="595" type="line"/>
      <point x="315" y="595" type="line"/>
      <point x="315" y="497" type="line"/>
    </contour>
  </outline>
</glyph>
<glyph name="tml_Nya" format="1">
  <advance width="868"/>
  <unicode hex="0B9E"/>
  <outline>
    <contour>
      <point x="57" y="-69" type="line"/>
      <point x="615" y="-69" type="line" smooth="yes"/>
      <point x="683" y="-69"/>
      <point x="707" y="-44"/>
      <point x="707" y="26" type="curve" smooth="yes"/>
      <point x="708" y="154" type="line" smooth="yes"/>
      <point x="708" y="219"/>
      <point x="689" y="227"/>
      <point x="635" y="227" type="curve" smooth="yes"/>
      <point x="635" y="323" type="line"/>
      <point x="720" y="323"/>
      <point x="804" y="296"/>
      <point x="804" y="154" type="curve" smooth="yes"/>
      <point x="804" y="26" type="line" smooth="yes"/>
      <point x="804" y="-82"/>
      <point x="759" y="-165"/>
      <point x="597" y="-165" type="curve" smooth="yes"/>
      <point x="57" y="-165" type="line"/>
    </contour>
    <component base="tml_E"/>
  </outline>
</glyph>
<glyph name="tml_Tta" format="1">
  <advance width="630"/>
  <unicode hex="0B9F"/>
  <outline>
    <contour>
      <point x="48" y="0" type="line"/>
      <point x="48" y="96" type="line"/>
      <point x="582" y="96" type="line"/>
      <point x="582" y="0" type="line"/>
    </contour>
    <contour>
      <point x="48" y="150" type="line"/>
      <point x="48" y="596" type="line"/>
      <point x="144" y="596" type="line"/>
      <point x="144" y="150" type="line"/>
    </contour>
  </outline>
</glyph>
<glyph name="tml_Nna" format="1">
  <advance width="1396"/>
  <unicode hex="0BA3"/>
  <outline>
    <contour>
      <point x="672" y="164" type="curve"/>
      <point x="672" y="288" type="line" smooth="yes"/>
      <point x="672" y="589"/>
      <point x="929" y="599"/>
      <point x="991" y="598" type="curve"/>
      <point x="991" y="502" type="line"/>
      <point x="882" y="502"/>
      <point x="767" y="476"/>
      <point x="767" y="290" type="curve" smooth="yes"/>
      <point x="767" y="165" type="line" smooth="yes"/>
      <point x="767" y="131"/>
      <point x="775" y="93"/>
      <point x="804" y="93" type="curve"/>
      <point x="804" y="-3" type="line" smooth="yes"/>
      <point x="717" y="-3"/>
      <point x="672" y="79"/>
    </contour>
    <contour>
      <point x="661" y="503" type="curve"/>
      <point x="661" y="599" type="line"/>
      <point x="770" y="599"/>
      <point x="990" y="589"/>
      <point x="990" y="301" type="curve" smooth="yes"/>
      <point x="990" y="164" type="line" smooth="yes"/>
      <point x="990" y="72"/>
      <point x="946" y="-3"/>
      <point x="858" y="-3" type="curve"/>
      <point x="858" y="93" type="line" smooth="yes"/>
      <point x="890" y="93"/>
      <point x="894" y="131"/>
      <point x="894" y="164" type="curve" smooth="yes"/>
      <point x="894" y="295" type="line" smooth="yes"/>
      <point x="894" y="464"/>
      <point x="809" y="503"/>
    </contour>
    <contour>
      <point x="300" y="163" type="curve"/>
      <point x="300" y="136"/>
      <point x="311" y="191"/>
      <point x="333" y="191" type="curve" smooth="yes"/>
      <point x="333" y="397"/>
      <point x="515" y="414"/>
      <point x="559" y="414" type="curve"/>
      <point x="550" y="414"/>
      <point x="539" y="341"/>
      <point x="539" y="371" type="curve" smooth="yes"/>
      <point x="479" y="371"/>
      <point x="396" y="416"/>
      <point x="396" y="289" type="curve" smooth="yes"/>
      <point x="395" y="325"/>
      <point x="406" y="295"/>
      <point x="464" y="295" type="curve"/>
      <point x="464" y="287"/>
      <point x="462" y="277"/>
      <point x="479" y="277" type="curve"/>
      <point x="455" y="277"/>
      <point x="398" y="182"/>
      <point x="398" y="93" type="curve" smooth="yes"/>
      <point x="334" y="93"/>
      <point x="300" y="106"/>
    </contour>
    <contour>
      <point x="319" y="449" type="curve"/>
      <point x="318" y="453"/>
      <point x="326" y="542"/>
      <point x="332" y="542" type="curve"/>
      <point x="450" y="542"/>
      <point x="618" y="516"/>
      <point x="618" y="297" type="curve" smooth="yes"/>
      <point x="618" y="163" type="line" smooth="yes"/>
      <point x="618" y="70"/>
      <point x="573" y="-4"/>
      <point x="485" y="-4" type="curve"/>
      <point x="485" y="92" type="line" smooth="yes"/>
      <point x="515" y="92"/>
      <point x="522" y="126"/>
      <point x="522" y="163" type="curve" smooth="yes"/>
      <point x="522" y="290" type="line" smooth="yes"/>
      <point x="522" y="434"/>
      <point x="437" y="448"/>
    </contour>
    <contour>
      <point x="259" y="163" type="curve"/>
      <point x="259" y="105"/>
      <point x="293" y="91"/>
      <point x="358" y="91" type="curve" smooth="yes"/>
      <point x="358" y="187"/>
      <point x="434" y="277"/>
      <point x="451" y="276" type="curve"/>
      <point x="434" y="276"/>
      <point x="436" y="287"/>
      <point x="436" y="295" type="curve"/>
      <point x="389" y="295"/>
      <point x="355" y="350"/>
      <point x="355" y="289" type="curve" smooth="yes"/>
      <point x="355" y="415"/>
      <point x="418" y="372"/>
      <point x="473" y="372" type="curve" smooth="yes"/>
      <point x="473" y="344"/>
      <point x="483" y="414"/>
      <point x="493" y="414" type="curve"/>
      <point x="446" y="414"/>
      <point x="293" y="401"/>
      <point x="293" y="193" type="curve" smooth="yes"/>
      <point x="271" y="193"/>
      <point x="259" y="136"/>
    </contour>
    <contour>
      <point x="375" y="413" type="curve"/>
      <point x="373" y="436"/>
      <point x="394" y="487"/>
      <point x="433" y="490" type="curve"/>
      <point x="497" y="490"/>
      <point x="578" y="446"/>
      <point x="578" y="293" type="curve" smooth="yes"/>
      <point x="578" y="163" type="line" smooth="yes"/>
      <point x="578" y="71"/>
      <point x="532" y="-4"/>
      <point x="445" y="-4" type="curve"/>
      <point x="445" y="92" type="line" smooth="yes"/>
      <point x="476" y="92"/>
      <point x="482" y="130"/>
      <point x="482" y="163" type="curve" smooth="yes"/>
      <point x="482" y="294" type="line" smooth="yes"/>
      <point x="482" y="365"/>
      <point x="451" y="412"/>
    </contour>
    <contour>
      <point x="1156" y="503" type="line"/>
      <point x="1156" y="599" type="line"/>
      <point x="1357" y="599" type="line"/>
      <point x="1357" y="502" type="line"/>
    </contour>
    <contour>
      <point x="1165" y="1" type="line"/>
      <point x="1165" y="567" type="line"/>
      <point x="1260" y="567" type="line"/>
      <point x="1260" y="1" type="line"/>
    </contour>
  </outline>
</glyph>
<glyph name="tml_Na" format="1">
  <advance width="681"/>
  <unicode hex="0BA8"/>
  <outline>
    <contour>
      <point x="51" y="-257" type="line"/>
      <point x="51" y="-111"/>
      <point x="115" y="-61"/>
      <point x="224" y="-61" type="curve" smooth="yes"/>
      <point x="456" y="-61" type="line" smooth="yes"/>
      <point x="514" y="-61"/>
      <point x="534" y="-30"/>
      <point x="534" y="25" type="curve" smooth="yes"/>
      <point x="535" y="206" type="line" smooth="yes"/>
      <point x="535" y="276"/>
      <point x="513" y="279"/>
      <point x="477" y="279" type="curve" smooth="yes"/>
      <point x="477" y="375" type="line"/>
      <point x="553" y="375"/>
      <point x="631" y="353"/>
      <point x="631" y="206" type="curve" smooth="yes"/>
      <point x="631" y="25" type="line" smooth="yes"/>
      <point x="631" y="-41"/>
      <point x="610" y="-157"/>
      <point x="457" y="-157" type="curve" smooth="yes"/>
      <point x="204" y="-157" type="line" smooth="yes"/>
      <point x="167" y="-157"/>
      <point x="151" y="-182"/>
      <point x="151" y="-257" type="curve"/>
    </contour>
    <contour>
      <point x="326" y="0" type="line"/>
      <point x="424" y="0" type="line"/>
      <point x="423" y="588" type="line"/>
      <point x="327" y="588" type="line"/>
    </contour>
    <contour>
      <point x="84" y="0" type="line"/>
      <point x="180" y="0" type="line"/>
      <point x="180" y="590" type="line"/>
      <point x="84" y="590" type="line"/>
    </contour>
    <contour>
      <point x="84" y="595" type="line"/>
      <point x="85" y="500" type="line"/>
      <point x="567" y="500" type="line"/>
      <point x="567" y="595" type="line"/>
    </contour>
  </outline>
</glyph>
<glyph name="tml_Nnna" format="1">
  <advance width="1024"/>
  <unicode hex="0BA9"/>
  <outline>
    <contour>
      <point x="411" y="154" type="curve"/>
      <point x="411" y="291" type="line" smooth="yes"/>
      <point x="411" y="592"/>
      <point x="668" y="606"/>
      <point x="722" y="606" type="curve"/>
      <point x="722" y="510" type="line"/>
      <point x="625" y="510"/>
      <point x="506" y="480"/>
      <point x="506" y="293" type="curve" smooth="yes"/>
      <point x="506" y="155" type="line" smooth="yes"/>
      <point x="506" y="121"/>
      <point x="514" y="83"/>
      <point x="543" y="83" type="curve"/>
      <point x="543" y="-13" type="line" smooth="yes"/>
      <point x="456" y="-13"/>
      <point x="411" y="69"/>
    </contour>
    <contour>
      <point x="377" y="509" type="curve"/>
      <point x="377" y="605" type="line"/>
      <point x="492" y="605"/>
      <point x="729" y="592"/>
      <point x="729" y="304" type="curve" smooth="yes"/>
      <point x="729" y="154" type="line" smooth="yes"/>
      <point x="729" y="62"/>
      <point x="686" y="-13"/>
      <point x="597" y="-13" type="curve"/>
      <point x="597" y="83" type="line" smooth="yes"/>
      <point x="629" y="83"/>
      <point x="634" y="121"/>
      <point x="634" y="154" type="curve" smooth="yes"/>
      <point x="634" y="298" type="line" smooth="yes"/>
      <point x="634" y="468"/>
      <point x="530" y="508"/>
    </contour>
    <contour>
      <point x="40" y="153" type="line"/>
      <point x="40" y="68"/>
      <point x="86" y="-14"/>
      <point x="174" y="-14" type="curve" smooth="yes"/>
      <point x="174" y="82" type="line"/>
      <point x="147" y="82"/>
      <point x="136" y="116"/>
      <point x="136" y="154" type="curve" smooth="yes"/>
      <point x="136" y="293" type="line" smooth="yes"/>
      <point x="136" y="456"/>
      <point x="210" y="509"/>
      <point x="323" y="509" type="curve"/>
      <point x="323" y="605" type="line"/>
      <point x="251" y="605"/>
      <point x="40" y="591"/>
      <point x="40" y="293" type="curve" smooth="yes"/>
    </contour>
    <contour>
      <point x="199" y="363" type="curve"/>
      <point x="196" y="390"/>
      <point x="225" y="434"/>
      <point x="270" y="437" type="curve"/>
      <point x="337" y="437"/>
      <point x="360" y="378"/>
      <point x="360" y="293" type="curve" smooth="yes"/>
      <point x="360" y="154" type="line" smooth="yes"/>
      <point x="360" y="61"/>
      <point x="315" y="-14"/>
      <point x="227" y="-14" type="curve"/>
      <point x="227" y="82" type="line" smooth="yes"/>
      <point x="256" y="82"/>
      <point x="264" y="116"/>
      <point x="264" y="154" type="curve" smooth="yes"/>
      <point x="264" y="293" type="line" smooth="yes"/>
      <point x="264" y="346"/>
      <point x="242" y="363"/>
    </contour>
    <contour>
      <point x="775" y="510" type="line"/>
      <point x="775" y="605" type="line"/>
      <point x="985" y="605" type="line"/>
      <point x="985" y="509" type="line"/>
    </contour>
    <contour>
      <point x="793" y="0" type="line"/>
      <point x="793" y="573" type="line"/>
      <point x="889" y="573" type="line"/>
      <point x="889" y="0" type="line"/>
    </contour>
  </outline>
</glyph>
<glyph name="tml_Pa" format="1">
  <advance width="538"/>
  <unicode hex="0BAA"/>
  <outline>
    <contour>
      <point x="49" y="80" type="line"/>
      <point x="49" y="595" type="line"/>
      <point x="145" y="595" type="line"/>
      <point x="145" y="80" type="line"/>
    </contour>
    <contour>
      <point x="393" y="77" type="line"/>
      <point x="489" y="77" type="line"/>
      <point x="489" y="595" type="line"/>
      <point x="393" y="595" type="line"/>
    </contour>
    <contour>
      <point x="297" y="1" type="line"/>
      <point x="489" y="1" type="line"/>
      <point x="489" y="96" type="line"/>
      <point x="297" y="96" type="line"/>
    </contour>
    <contour>
      <point x="49" y="1" type="line"/>
      <point x="49" y="96" type="line"/>
      <point x="241" y="96" type="line"/>
      <point x="241" y="1" type="line"/>
    </contour>
  </outline>
</glyph>
<glyph name="tml_Ma" format="1">
  <advance width="643"/>
  <unicode hex="0BAE"/>
  <outline>
    <contour>
      <point x="446" y="0" type="curve" smooth="yes"/>
      <point x="446" y="96" type="line"/>
      <point x="499" y="96"/>
      <point x="502" y="160"/>
      <point x="502" y="184" type="curve" smooth="yes"/>
      <point x="502" y="434" type="line" smooth="yes"/>
      <point x="502" y="452"/>
      <point x="503" y="509"/>
      <point x="446" y="509" type="curve"/>
      <point x="446" y="605" type="line"/>
      <point x="524" y="605"/>
      <point x="598" y="566"/>
      <point x="598" y="434" type="curve" smooth="yes"/>
      <point x="598" y="197" type="line" smooth="yes"/>
      <point x="598" y="50"/>
      <point x="521" y="0"/>
    </contour>
    <contour>
      <point x="244" y="95" type="line" smooth="yes"/>
      <point x="244" y="434" type="line" smooth="yes"/>
      <point x="243" y="570"/>
      <point x="319" y="605"/>
      <point x="392" y="605" type="curve"/>
      <point x="392" y="509" type="line"/>
      <point x="342" y="509"/>
      <point x="340" y="454"/>
      <point x="340" y="434" type="curve" smooth="yes"/>
      <point x="340" y="95" type="line"/>
    </contour>
    <contour>
      <point x="39" y="80" type="line"/>
      <point x="39" y="595" type="line"/>
      <point x="135" y="595" type="line"/>
      <point x="135" y="80" type="line"/>
    </contour>
    <contour>
      <point x="39" y="0" type="line"/>
      <point x="39" y="96" type="line"/>
      <point x="392" y="96" type="line"/>
      <point x="392" y="0" type="line"/>
    </contour>
  </outline>
</glyph>
<glyph name="tml_Ya" format="1">
  <advance width="699"/>
  <unicode hex="0BAF"/>
  <outline>
    <contour>
      <point x="516" y="0" type="line"/>
      <point x="516" y="94" type="line"/>
      <point x="530" y="94" type="line" smooth="yes"/>
      <point x="552" y="94"/>
      <point x="564" y="104"/>
      <point x="564" y="123" type="curve"/>
      <point x="564" y="595" type="line"/>
      <point x="660" y="595" type="line"/>
      <point x="660" y="0" type="line"/>
    </contour>
    <contour>
      <point x="39" y="140" type="curve" smooth="yes"/>
      <point x="39" y="595" type="line"/>
      <point x="135" y="595" type="line"/>
      <point x="135" y="145" type="line"/>
      <point x="135" y="119"/>
      <point x="153" y="94"/>
      <point x="180" y="94" type="curve" smooth="yes"/>
      <point x="186" y="94" type="line"/>
      <point x="186" y="0" type="line"/>
      <point x="180" y="0" type="line" smooth="yes"/>
      <point x="98" y="0"/>
      <point x="39" y="84"/>
    </contour>
    <contour>
      <point x="240" y="0" type="line"/>
      <point x="240" y="94" type="line"/>
      <point x="246" y="94" type="line" smooth="yes"/>
      <point x="275" y="94"/>
      <point x="319" y="102"/>
      <point x="319" y="139" type="curve"/>
      <point x="319" y="595" type="line"/>
      <point x="414" y="595" type="line"/>
      <point x="414" y="125" type="line" smooth="yes"/>
      <point x="414" y="106"/>
      <point x="424" y="94"/>
      <point x="445" y="94" type="curve" smooth="yes"/>
      <point x="463" y="94" type="line"/>
      <point x="463" y="0" type="line"/>
      <point x="320" y="0" type="line"/>
      <point x="317" y="34" type="line"/>
      <point x="308" y="13"/>
      <point x="281" y="0"/>
      <point x="246" y="0" type="curve" smooth="yes"/>
    </contour>
  </outline>
</glyph>
<glyph name="tml_Ra" format="1">
  <advance width="570"/>
  <unicode hex="0BB0"/>
  <outline>
    <contour>
      <point x="152" y="-177" type="line"/>
      <point x="267" y="-177" type="line"/>
      <point x="418" y="0" type="line" smooth="yes"/>
      <point x="420" y="591" type="line"/>
      <point x="321" y="591" type="line"/>
      <point x="321" y="29" type="line"/>
    </contour>
    <contour>
      <point x="39" y="0" type="line"/>
      <point x="39" y="595" type="line"/>
      <point x="135" y="595" type="line"/>
      <point x="135" y="0" type="line"/>
    </contour>
    <contour>
      <point x="258" y="499" type="line"/>
      <point x="532" y="499" type="line"/>
      <point x="532" y="595" type="line"/>
      <point x="258" y="595" type="line"/>
    </contour>
    <contour>
      <point x="41" y="499" type="line"/>
      <point x="41" y="595" type="line"/>
      <point x="204" y="595" type="line"/>
      <point x="204" y="499" type="line"/>
    </contour>
  </outline>
</glyph>
<glyph name="tml_Rra" format="1">
  <advance width="749"/>
  <unicode hex="0BB1"/>
  <outline>
    <contour>
      <point x="52" y="-256" type="curve"/>
      <point x="148" y="-256" type="line"/>
      <point x="148" y="-166"/>
      <point x="178" y="-143"/>
      <point x="227" y="-143" type="curve" smooth="yes"/>
      <point x="498" y="-143" type="line" smooth="yes"/>
      <point x="629" y="-141"/>
      <point x="679" y="-35"/>
      <point x="679" y="64" type="curve" smooth="yes"/>
      <point x="679" y="475" type="line" smooth="yes"/>
      <point x="679" y="530"/>
      <point x="632" y="606"/>
      <point x="527" y="606" type="curve"/>
      <point x="527" y="510" type="line"/>
      <point x="547" y="510"/>
      <point x="583" y="506"/>
      <point x="583" y="460" type="curve" smooth="yes"/>
      <point x="583" y="52" type="line" smooth="yes"/>
      <point x="583" y="4"/>
      <point x="569" y="-47"/>
      <point x="481" y="-47" type="curve" smooth="yes"/>
      <point x="226" y="-47" type="line" smooth="yes"/>
      <point x="111" y="-47"/>
      <point x="52" y="-108"/>
    </contour>
    <contour>
      <point x="83" y="0" type="line"/>
      <point x="83" y="479" type="line" smooth="yes"/>
      <point x="83" y="529"/>
      <point x="120" y="606"/>
      <point x="223" y="606" type="curve"/>
      <point x="223" y="510" type="line"/>
      <point x="187" y="510"/>
      <point x="179" y="481"/>
      <point x="179" y="463" type="curve" smooth="yes"/>
      <point x="181" y="1" type="line"/>
    </contour>
    <contour>
      <point x="276" y="510" type="curve"/>
      <point x="276" y="606" type="line"/>
      <point x="322" y="606"/>
      <point x="352" y="596"/>
      <point x="376" y="571" type="curve"/>
      <point x="404" y="598"/>
      <point x="437" y="606"/>
      <point x="476" y="606" type="curve"/>
      <point x="476" y="510" type="line"/>
      <point x="450" y="510"/>
      <point x="423" y="501"/>
      <point x="423" y="456" type="curve" smooth="yes"/>
      <point x="425" y="1" type="line"/>
      <point x="329" y="1" type="line"/>
      <point x="327" y="455" type="line" smooth="yes"/>
      <point x="327" y="494"/>
      <point x="311" y="510"/>
    </contour>
  </outline>
</glyph>
<glyph name="tml_La" format="1">
  <advance width="874"/>
  <unicode hex="0BB2"/>
  <outline>
    <contour>
      <point x="259" y="0" type="curve"/>
      <point x="259" y="96" type="line"/>
      <point x="301" y="96"/>
      <point x="321" y="130"/>
      <point x="321" y="182" type="curve" smooth="yes"/>
      <point x="320" y="232"/>
      <point x="301" y="263"/>
      <point x="259" y="263" type="curve"/>
      <point x="259" y="359" type="line" smooth="yes"/>
      <point x="348" y="359"/>
      <point x="418" y="281"/>
      <point x="418" y="215" type="curve" smooth="yes"/>
      <point x="418" y="159" type="line" smooth="yes"/>
      <point x="419" y="85"/>
      <point x="356" y="0"/>
    </contour>
    <contour>
      <point x="39" y="158" type="curve" smooth="yes"/>
      <point x="39" y="186"/>
      <point x="40" y="158"/>
      <point x="39" y="212" type="curve" smooth="yes"/>
      <point x="39" y="316"/>
      <point x="146" y="359"/>
      <point x="204" y="359" type="curve"/>
      <point x="204" y="263" type="line" smooth="yes"/>
      <point x="173" y="263"/>
      <point x="136" y="237"/>
      <point x="136" y="181" type="curve" smooth="yes"/>
      <point x="136" y="130"/>
      <point x="166" y="96"/>
      <point x="204" y="96" type="curve"/>
      <point x="204" y="0" type="line" smooth="yes"/>
      <point x="107" y="0"/>
      <point x="39" y="90"/>
    </contour>
    <contour>
      <point x="39" y="219" type="curve"/>
      <point x="39" y="316" type="line"/>
      <point x="39" y="438"/>
      <point x="118" y="606"/>
      <point x="279" y="606" type="curve"/>
      <point x="279" y="511" type="line"/>
      <point x="203" y="511"/>
      <point x="142" y="432"/>
      <point x="141" y="320" type="curve" smooth="yes"/>
      <point x="141" y="282"/>
      <point x="43" y="239"/>
    </contour>
    <contour>
      <point x="333" y="510" type="line"/>
      <point x="434" y="510"/>
      <point x="465" y="427"/>
      <point x="466" y="369" type="curve" smooth="yes"/>
      <point x="466" y="157" type="line" smooth="yes"/>
      <point x="466" y="78"/>
      <point x="521" y="0"/>
      <point x="623" y="0" type="curve"/>
      <point x="623" y="97" type="line"/>
      <point x="589" y="97"/>
      <point x="562" y="122"/>
      <point x="562" y="158" type="curve" smooth="yes"/>
      <point x="562" y="366" type="line" smooth="yes"/>
      <point x="562" y="464"/>
      <point x="501" y="606"/>
      <point x="333" y="606" type="curve"/>
    </contour>
    <contour>
      <point x="661" y="594" type="curve"/>
      <point x="662" y="498" type="line"/>
      <point x="728" y="498"/>
      <point x="739" y="468"/>
      <point x="739" y="422" type="curve"/>
      <point x="739" y="160" type="line"/>
      <point x="739" y="128"/>
      <point x="720" y="97"/>
      <point x="676" y="97" type="curve"/>
      <point x="676" y="0" type="line"/>
      <point x="782" y="0"/>
      <point x="835" y="78"/>
      <point x="835" y="160" type="curve" smooth="yes"/>
      <point x="835" y="424" type="line" smooth="yes"/>
      <point x="835" y="541"/>
      <point x="781" y="595"/>
    </contour>
  </outline>
</glyph>
<glyph name="tml_Llla" format="1">
  <advance width="643"/>
  <unicode hex="0BB4"/>
  <outline>
    <contour>
      <point x="64" y="-67" type="line"/>
      <point x="64" y="-191"/>
      <point x="189" y="-260"/>
      <point x="328" y="-165" type="curve"/>
      <point x="291" y="-161"/>
      <point x="252" y="-130"/>
      <point x="247" y="-107" type="curve"/>
      <point x="223" y="-131"/>
      <point x="160" y="-121"/>
      <point x="159" y="-67" type="curve"/>
    </contour>
    <contour>
      <point x="244" y="1" type="curve"/>
      <point x="340" y="1" type="line"/>
      <point x="340" y="-56"/>
      <point x="393" y="-49"/>
      <point x="535" y="-49" type="curve"/>
      <point x="535" y="-146" type="line" smooth="yes"/>
      <point x="430" y="-145" type="line"/>
      <point x="266" y="-146"/>
      <point x="244" y="-60"/>
    </contour>
    <component base="tml_Ma"/>
  </outline>
</glyph>
<glyph name="tml_Va" format="1">
  <advance width="847"/>
  <unicode hex="0BB5"/>
  <outline>
    <contour>
      <point x="261" y="0" type="curve"/>
      <point x="261" y="96" type="line"/>
      <point x="297" y="96"/>
      <point x="323" y="125"/>
      <point x="323" y="181" type="curve" smooth="yes"/>
      <point x="323" y="238"/>
      <point x="295" y="263"/>
      <point x="261" y="263" type="curve"/>
      <point x="261" y="359" type="line" smooth="yes"/>
      <point x="349" y="359"/>
      <point x="419" y="281"/>
      <point x="419" y="215" type="curve" smooth="yes"/>
      <point x="419" y="159" type="line" smooth="yes"/>
      <point x="420" y="85"/>
      <point x="358" y="0"/>
    </contour>
    <contour>
      <point x="40" y="158" type="curve" smooth="yes"/>
      <point x="40" y="212" type="line" smooth="yes"/>
      <point x="39" y="316"/>
      <point x="147" y="359"/>
      <point x="206" y="359" type="curve"/>
      <point x="206" y="263" type="line" smooth="yes"/>
      <point x="174" y="263"/>
      <point x="137" y="243"/>
      <point x="137" y="181" type="curve" smooth="yes"/>
      <point x="137" y="129"/>
      <point x="167" y="96"/>
      <point x="206" y="96" type="curve"/>
      <point x="206" y="0" type="line" smooth="yes"/>
      <point x="108" y="0"/>
      <point x="40" y="90"/>
    </contour>
    <contour>
      <point x="40" y="219" type="line"/>
      <point x="40" y="304" type="line"/>
      <point x="40" y="444"/>
      <point x="102" y="605"/>
      <point x="289" y="605" type="curve"/>
      <point x="289" y="509" type="line"/>
      <point x="209" y="509"/>
      <point x="147" y="440"/>
      <point x="145" y="339" type="curve" smooth="yes"/>
    </contour>
    <contour>
      <point x="340" y="509" type="line"/>
      <point x="430" y="509"/>
      <point x="488" y="439"/>
      <point x="489" y="354" type="curve"/>
      <point x="489" y="124" type="line" smooth="yes"/>
      <point x="489" y="99"/>
      <point x="469" y="97"/>
      <point x="443" y="96" type="curve"/>
      <point x="443" y="0" type="line"/>
      <point x="656" y="0" type="line"/>
      <point x="656" y="96" type="line"/>
      <point x="584" y="96" type="line"/>
      <point x="584" y="355" type="line"/>
      <point x="583" y="466"/>
      <point x="507" y="605"/>
      <point x="340" y="605" type="curve"/>
    </contour>
    <contour>
      <point x="711" y="0" type="line"/>
      <point x="711" y="595" type="line"/>
      <point x="808" y="595" type="line"/>
      <point x="808" y="0" type="line"/>
    </contour>
  </outline>
</glyph>
<glyph name="tml_Ssa" format="1">
  <advance width="1258"/>
  <unicode hex="0BB7"/>
  <outline>
    <contour>
      <point x="261" y="0" type="curve"/>
      <point x="261" y="96" type="line"/>
      <point x="297" y="96"/>
      <point x="323" y="125"/>
      <point x="323" y="181" type="curve" smooth="yes"/>
      <point x="323" y="238"/>
      <point x="295" y="263"/>
      <point x="261" y="263" type="curve"/>
      <point x="261" y="359" type="line" smooth="yes"/>
      <point x="349" y="359"/>
      <point x="419" y="281"/>
      <point x="419" y="215" type="curve" smooth="yes"/>
      <point x="419" y="159" type="line" smooth="yes"/>
      <point x="420" y="85"/>
      <point x="358" y="0"/>
    </contour>
    <contour>
      <point x="40" y="158" type="curve" smooth="yes"/>
      <point x="40" y="212" type="line" smooth="yes"/>
      <point x="39" y="316"/>
      <point x="147" y="359"/>
      <point x="206" y="359" type="curve"/>
      <point x="206" y="263" type="line" smooth="yes"/>
      <point x="174" y="263"/>
      <point x="137" y="243"/>
      <point x="137" y="181" type="curve" smooth="yes"/>
      <point x="137" y="129"/>
      <point x="167" y="96"/>
      <point x="206" y="96" type="curve"/>
      <point x="206" y="0" type="line" smooth="yes"/>
      <point x="108" y="0"/>
      <point x="40" y="90"/>
    </contour>
    <contour>
      <point x="40" y="219" type="line"/>
      <point x="40" y="304" type="line"/>
      <point x="40" y="444"/>
      <point x="102" y="605"/>
      <point x="289" y="605" type="curve"/>
      <point x="289" y="509" type="line"/>
      <point x="209" y="509"/>
      <point x="147" y="440"/>
      <point x="145" y="339" type="curve" smooth="yes"/>
    </contour>
    <contour>
      <point x="339" y="509" type="line"/>
      <point x="429" y="509"/>
      <point x="487" y="440"/>
      <point x="488" y="354" type="curve"/>
      <point x="488" y="124" type="line" smooth="yes"/>
      <point x="488" y="99"/>
      <point x="468" y="97"/>
      <point x="442" y="96" type="curve"/>
      <point x="442" y="0" type="line"/>
      <point x="835" y="0" type="line"/>
      <point x="835" y="96" type="line"/>
      <point x="583" y="96" type="line"/>
      <point x="583" y="355" type="line"/>
      <point x="582" y="466"/>
      <point x="506" y="605"/>
      <point x="339" y="605" type="curve"/>
    </contour>
    <contour>
      <point x="888" y="511" type="line"/>
      <point x="927" y="511"/>
      <point x="960" y="509"/>
      <point x="960" y="413" type="curve" smooth="yes"/>
      <point x="960" y="147" type="line"/>
      <point x="1056" y="147" type="line"/>
      <point x="1056" y="413" type="line" smooth="yes"/>
      <point x="1056" y="561"/>
      <point x="983" y="607"/>
      <point x="888" y="607" type="curve"/>
    </contour>
    <contour>
      <point x="960" y="110" type="line"/>
      <point x="960" y="-178" type="line"/>
      <point x="1056" y="-178" type="line"/>
      <point x="1056" y="110" type="line"/>
    </contour>
    <contour>
      <point x="888" y="158" type="line"/>
      <point x="1192" y="158" type="line"/>
      <point x="1192" y="254" type="line" smooth="yes"/>
      <point x="888" y="254" type="line"/>
    </contour>
    <contour>
      <point x="666" y="334" type="line" smooth="yes"/>
      <point x="666" y="191"/>
      <point x="738" y="158"/>
      <point x="835" y="158" type="curve"/>
      <point x="835" y="253" type="line"/>
      <point x="793" y="253"/>
      <point x="763" y="259"/>
      <point x="763" y="333" type="curve" smooth="yes"/>
      <point x="763" y="428" type="line" smooth="yes"/>
      <point x="763" y="497"/>
      <point x="794" y="511"/>
      <point x="835" y="511" type="curve"/>
      <point x="835" y="607" type="line"/>
      <point x="738" y="607"/>
      <point x="666" y="570"/>
      <point x="666" y="433" type="curve" smooth="yes"/>
    </contour>
    <contour>
      <point x="1111" y="0" type="line"/>
      <point x="1192" y="0" type="line"/>
      <point x="1192" y="254" type="line"/>
      <point x="1111" y="254" type="line"/>
    </contour>
    <contour>
      <point x="888" y="1" type="line"/>
      <point x="1192" y="0" type="line"/>
      <point x="1192" y="97" type="line"/>
      <point x="888" y="97" type="line"/>
    </contour>
  </outline>
</glyph>
<glyph name="tml_MatraAa" format="1">
  <advance width="569"/>
  <unicode hex="0BBE"/>
  <outline>
    <contour>
      <point x="337" y="0" type="line"/>
      <point x="433" y="0" type="line"/>
      <point x="433" y="593" type="line"/>
      <point x="337" y="593" type="line"/>
    </contour>
    <contour>
      <point x="53" y="0" type="line"/>
      <point x="53" y="592" type="line"/>
      <point x="149" y="593" type="line"/>
      <point x="149" y="0" type="line"/>
    </contour>
    <contour>
      <point x="271" y="499" type="line"/>
      <point x="517" y="499" type="line"/>
      <point x="517" y="595" type="line"/>
      <point x="271" y="595" type="line"/>
    </contour>
    <contour>
      <point x="53" y="499" type="line"/>
      <point x="53" y="595" type="line"/>
      <point x="218" y="595" type="line"/>
      <point x="218" y="499" type="line"/>
    </contour>
  </outline>
</glyph>
<glyph name="tml_MatraI" format="1">
  <advance width="178"/>
  <unicode hex="0BBF"/>
  <outline>
    <contour>
      <point x="534" y="690" type="curve"/>
      <point x="534" y="786" type="line"/>
      <point x="696" y="786"/>
      <point x="735" y="684"/>
      <point x="735" y="582" type="curve" smooth="yes"/>
      <point x="735" y="69" type="line"/>
      <point x="640" y="69" type="line"/>
      <point x="640" y="579" type="line" smooth="yes"/>
      <point x="640" y="657"/>
      <point x="600" y="690"/>
    </contour>
    <contour>
      <point x="286" y="580" type="line"/>
      <point x="286" y="580" type="line"/>
      <point x="286" y="682"/>
      <point x="326" y="787"/>
      <point x="480" y="787" type="curve" smooth="yes"/>
      <point x="480" y="787" type="line"/>
      <point x="480" y="691" type="line" smooth="yes"/>
      <point x="480" y="691" type="line" smooth="yes"/>
      <point x="417" y="691"/>
      <point x="382" y="656"/>
      <point x="382" y="580" type="curve" smooth="yes"/>
    </contour>
  </outline>
</glyph>
<glyph name="tml_MatraIi" format="1">
  <unicode hex="0BC0"/>
  <outline>
    <contour>
      <point x="507" y="411" type="line"/>
      <point x="323" y="562"/>
      <point x="363" y="906"/>
      <point x="585" y="906" type="curve" smooth="yes"/>
      <point x="660" y="905"/>
      <point x="750" y="870"/>
      <point x="750" y="756" type="curve" smooth="yes"/>
      <point x="750" y="674"/>
      <point x="684" y="613"/>
      <point x="618" y="613" type="curve" smooth="yes"/>
      <point x="560" y="613"/>
      <point x="512" y="659"/>
      <point x="508" y="680" type="curve"/>
      <point x="565" y="747" type="line" smooth="yes"/>
      <point x="565" y="731"/>
      <point x="577" y="709"/>
      <point x="610" y="709" type="curve" smooth="yes"/>
      <point x="639" y="709"/>
      <point x="654" y="733"/>
      <point x="654" y="755" type="curve" smooth="yes"/>
      <point x="654" y="793"/>
      <point x="626" y="810"/>
      <point x="585" y="810" type="curve"/>
      <point x="440" y="799"/>
      <point x="462" y="546"/>
      <point x="629" y="422" type="curve"/>
    </contour>
  </outline>
</glyph>
<glyph name="tml_MatraU" format="1">
  <advance width="569"/>
  <unicode hex="0BC1"/>
  <outline>
    <contour>
      <point x="39" y="587" type="line"/>
      <point x="319" y="587" type="line" smooth="yes"/>
      <point x="388" y="587"/>
      <point x="421" y="572"/>
      <point x="421" y="529" type="curve" smooth="yes"/>
      <point x="421" y="511"/>
      <point x="407" y="484"/>
      <point x="374" y="484" type="curve" smooth="yes"/>
      <point x="340" y="484"/>
      <point x="327" y="510"/>
      <point x="327" y="530" type="curve" smooth="yes"/>
      <point x="231" y="530" type="line"/>
      <point x="231" y="456"/>
      <point x="293" y="388"/>
      <point x="362" y="388" type="curve" smooth="yes"/>
      <point x="385" y="388" type="line" smooth="yes"/>
      <point x="440" y="388"/>
      <point x="517" y="440"/>
      <point x="517" y="530" type="curve" smooth="yes"/>
      <point x="517" y="539" type="line" smooth="yes"/>
      <point x="517" y="651"/>
      <point x="435" y="683"/>
      <point x="323" y="683" type="curve" smooth="yes"/>
      <point x="39" y="683" type="line"/>
    </contour>
  </outline>
</glyph>
<glyph name="tml_MatraUu" format="1">
  <unicode hex="0BC2"/>
  <outline>
    <contour>
      <point x="161" y="667" type="curve"/>
      <point x="333" y="667" type="line" smooth="yes"/>
      <point x="364" y="712"/>
      <point x="421" y="711"/>
      <point x="447" y="694" type="curve" smooth="yes"/>
      <point x="474" y="688"/>
      <point x="516" y="660"/>
      <point x="498" y="620" type="curve" smooth="yes"/>
      <point x="480" y="620"/>
      <point x="474" y="416"/>
      <point x="474" y="423" type="curve" smooth="yes"/>
      <point x="474" y="399"/>
      <point x="449" y="383"/>
      <point x="423" y="383" type="curve"/>
      <point x="423" y="367"/>
      <point x="397" y="347"/>
      <point x="419" y="347" type="curve" smooth="yes"/>
      <point x="422" y="284" type="line" smooth="yes"/>
      <point x="440" y="284"/>
      <point x="497" y="302"/>
      <point x="497" y="321" type="curve" smooth="yes"/>
      <point x="568" y="321"/>
      <point x="619" y="353"/>
      <point x="619" y="425" type="curve" smooth="yes"/>
      <point x="619" y="446"/>
      <point x="603" y="683"/>
      <point x="566" y="683" type="curve" smooth="yes"/>
      <point x="566" y="754"/>
      <point x="416" y="817"/>
      <point x="316" y="817" type="curve"/>
      <point x="227" y="817"/>
      <point x="161" y="742"/>
    </contour>
    <contour>
      <point x="108" y="599" type="curve" smooth="yes"/>
      <point x="311" y="599" type="line"/>
      <point x="349" y="632"/>
      <point x="386" y="645"/>
      <point x="420" y="620" type="curve" smooth="yes"/>
      <point x="456" y="607"/>
      <point x="462" y="579"/>
      <point x="446" y="561" type="curve" smooth="yes"/>
      <point x="431" y="561"/>
      <point x="423" y="466"/>
      <point x="423" y="479" type="curve" smooth="yes"/>
      <point x="423" y="453"/>
      <point x="323" y="452"/>
      <point x="309" y="452" type="curve" smooth="yes"/>
      <point x="309" y="394"/>
      <point x="338" y="347"/>
      <point x="385" y="347" type="curve" smooth="yes"/>
      <point x="405" y="334" type="line" smooth="yes"/>
      <point x="442" y="334"/>
      <point x="521" y="369"/>
      <point x="521" y="439" type="curve" smooth="yes"/>
      <point x="553" y="439"/>
      <point x="565" y="461"/>
      <point x="565" y="486" type="curve" smooth="yes"/>
      <point x="565" y="577"/>
      <point x="500" y="696"/>
      <point x="424" y="696" type="curve" smooth="yes"/>
      <point x="424" y="730"/>
      <point x="203" y="746"/>
      <point x="170" y="746" type="curve" smooth="yes"/>
      <point x="133" y="746"/>
      <point x="108" y="644"/>
    </contour>
  </outline>
</glyph>
<glyph name="tml_MatraEe" format="1">
  <advance width="621"/>
  <unicode hex="0BC7"/>
  <outline>
    <contour>
      <point x="413" y="346" type="curve"/>
      <point x="413" y="442" type="line"/>
      <point x="455" y="442"/>
      <point x="475" y="475"/>
      <point x="474" y="527" type="curve" smooth="yes"/>
      <point x="474" y="577"/>
      <point x="455" y="609"/>
      <point x="413" y="609" type="curve"/>
      <point x="413" y="705" type="line" smooth="yes"/>
      <point x="502" y="705"/>
      <point x="571" y="626"/>
      <point x="571" y="560" type="curve" smooth="yes"/>
      <point x="571" y="505" type="line" smooth="yes"/>
      <point x="572" y="431"/>
      <point x="510" y="346"/>
    </contour>
    <contour>
      <point x="193" y="504" type="curve" smooth="yes"/>
      <point x="193" y="532"/>
      <point x="194" y="504"/>
      <point x="193" y="558" type="curve" smooth="yes"/>
      <point x="192" y="662"/>
      <point x="300" y="705"/>
      <point x="358" y="705" type="curve"/>
      <point x="358" y="609" type="line" smooth="yes"/>
      <point x="326" y="609"/>
      <point x="290" y="583"/>
      <point x="290" y="526" type="curve" smooth="yes"/>
      <point x="290" y="476"/>
      <point x="320" y="442"/>
      <point x="358" y="442" type="curve"/>
      <point x="358" y="346" type="line" smooth="yes"/>
      <point x="260" y="346"/>
      <point x="193" y="436"/>
    </contour>
    <contour>
      <point x="413" y="-42" type="curve"/>
      <point x="413" y="54" type="line"/>
      <point x="455" y="54"/>
      <point x="475" y="87"/>
      <point x="474" y="139" type="curve" smooth="yes"/>
      <point x="474" y="189"/>
      <point x="455" y="221"/>
      <point x="413" y="221" type="curve"/>
      <point x="413" y="317" type="line" smooth="yes"/>
      <point x="502" y="317"/>
      <point x="571" y="238"/>
      <point x="571" y="172" type="curve" smooth="yes"/>
      <point x="571" y="117" type="line" smooth="yes"/>
      <point x="572" y="43"/>
      <point x="510" y="-42"/>
    </contour>
    <contour>
      <point x="193" y="116" type="curve" smooth="yes"/>
      <point x="193" y="144"/>
      <point x="194" y="116"/>
      <point x="193" y="170" type="curve" smooth="yes"/>
      <point x="192" y="274"/>
      <point x="300" y="317"/>
      <point x="358" y="317" type="curve"/>
      <point x="358" y="221" type="line" smooth="yes"/>
      <point x="326" y="221"/>
      <point x="290" y="195"/>
      <point x="290" y="138" type="curve" smooth="yes"/>
      <point x="290" y="88"/>
      <point x="320" y="54"/>
      <point x="358" y="54" type="curve"/>
      <point x="358" y="-42" type="line" smooth="yes"/>
      <point x="260" y="-42"/>
      <point x="193" y="48"/>
    </contour>
    <contour>
      <point x="52" y="195" type="curve"/>
      <point x="52" y="466" type="line"/>
      <point x="52" y="676"/>
      <point x="284" y="705"/>
      <point x="354" y="705" type="curve" smooth="yes"/>
      <point x="354" y="610" type="line"/>
      <point x="302" y="608"/>
      <point x="147" y="595"/>
      <point x="147" y="462" type="curve" smooth="yes"/>
      <point x="147" y="208" type="line" smooth="yes"/>
      <point x="147" y="78"/>
      <point x="311" y="53"/>
      <point x="356" y="53" type="curve"/>
      <point x="356" y="-42" type="line" smooth="yes"/>
      <point x="351" y="-42" type="line" smooth="yes"/>
      <point x="259" y="-42"/>
      <point x="52" y="-5"/>
    </contour>
  </outline>
</glyph>
<glyph name="tml_MatraAi" format="1">
  <advance width="1043"/>
  <unicode hex="0BC8"/>
  <outline>
    <contour>
      <point x="423" y="157" type="curve"/>
      <point x="423" y="288" type="line" smooth="yes"/>
      <point x="423" y="589"/>
      <point x="687" y="606"/>
      <point x="748" y="606" type="curve"/>
      <point x="748" y="510" type="line"/>
      <point x="637" y="510"/>
      <point x="519" y="477"/>
      <point x="519" y="290" type="curve" smooth="yes"/>
      <point x="519" y="158" type="line" smooth="yes"/>
      <point x="519" y="124"/>
      <point x="531" y="86"/>
      <point x="568" y="86" type="curve"/>
      <point x="568" y="-11" type="line" smooth="yes"/>
      <point x="473" y="-11"/>
      <point x="423" y="72"/>
    </contour>
    <contour>
      <point x="389" y="509" type="curve"/>
      <point x="389" y="605" type="line"/>
      <point x="510" y="605"/>
      <point x="768" y="589"/>
      <point x="768" y="301" type="curve" smooth="yes"/>
      <point x="768" y="157" type="line" smooth="yes"/>
      <point x="768" y="65"/>
      <point x="720" y="-11"/>
      <point x="622" y="-11" type="curve"/>
      <point x="622" y="86" type="line" smooth="yes"/>
      <point x="663" y="86"/>
      <point x="672" y="124"/>
      <point x="672" y="157" type="curve" smooth="yes"/>
      <point x="672" y="295" type="line" smooth="yes"/>
      <point x="672" y="464"/>
      <point x="563" y="509"/>
    </contour>
    <contour>
      <point x="40" y="156" type="line"/>
      <point x="40" y="71"/>
      <point x="90" y="-11"/>
      <point x="186" y="-11" type="curve" smooth="yes"/>
      <point x="186" y="85" type="line"/>
      <point x="154" y="85"/>
      <point x="136" y="119"/>
      <point x="136" y="157" type="curve" smooth="yes"/>
      <point x="136" y="290" type="line" smooth="yes"/>
      <point x="136" y="453"/>
      <point x="212" y="509"/>
      <point x="335" y="509" type="curve"/>
      <point x="335" y="605" type="line"/>
      <point x="260" y="605"/>
      <point x="40" y="588"/>
      <point x="40" y="290" type="curve" smooth="yes"/>
    </contour>
    <contour>
      <point x="225" y="363" type="curve"/>
      <point x="222" y="390"/>
      <point x="250" y="434"/>
      <point x="295" y="437" type="curve"/>
      <point x="363" y="437"/>
      <point x="385" y="373"/>
      <point x="385" y="288" type="curve" smooth="yes"/>
      <point x="385" y="156" type="line" smooth="yes"/>
      <point x="385" y="63"/>
      <point x="335" y="-11"/>
      <point x="239" y="-11" type="curve"/>
      <point x="239" y="85" type="line" smooth="yes"/>
      <point x="275" y="85"/>
      <point x="289" y="119"/>
      <point x="289" y="156" type="curve" smooth="yes"/>
      <point x="289" y="288" type="line" smooth="yes"/>
      <point x="289" y="341"/>
      <point x="267" y="363"/>
    </contour>
    <contour>
      <point x="802" y="500" type="line"/>
      <point x="848" y="485"/>
      <point x="899" y="419"/>
      <point x="899" y="303" type="curve" smooth="yes"/>
      <point x="899" y="162" type="line" smooth="yes"/>
      <point x="899" y="130"/>
      <point x="889" y="91"/>
      <point x="841" y="91" type="curve" smooth="yes"/>
      <point x="841" y="-5" type="line"/>
      <point x="944" y="-5"/>
      <point x="995" y="70"/>
      <point x="995" y="162" type="curve" smooth="yes"/>
      <point x="995" y="303" type="line" smooth="yes"/>
      <point x="995" y="483"/>
      <point x="898" y="590"/>
      <point x="802" y="596" type="curve"/>
    </contour>
  </outline>
</glyph>
<glyph name="tml_Three" format="1">
  <advance width="734"/>
  <unicode hex="0BE9"/>
  <outline>
    <contour>
      <point x="322" y="0" type="line"/>
      <point x="322" y="96" type="line"/>
      <point x="668" y="96" type="line"/>
      <point x="668" y="0" type="line"/>
    </contour>
    <contour>
      <point x="255" y="0" type="curve"/>
      <point x="255" y="96" type="line"/>
      <point x="277" y="96"/>
      <point x="393" y="96"/>
      <point x="438" y="96" type="curve" smooth="yes"/>
      <point x="498" y="96"/>
      <point x="516" y="100"/>
      <point x="516" y="137" type="curve" smooth="yes"/>
      <point x="516" y="217" type="line" smooth="yes"/>
      <point x="516" y="257"/>
      <point x="489" y="257"/>
      <point x="444" y="258" type="curve" smooth="yes"/>
      <point x="444" y="354" type="line"/>
      <point x="525" y="354"/>
      <point x="613" y="325"/>
      <point x="613" y="229" type="curve" smooth="yes"/>
      <point x="613" y="111" type="line" smooth="yes"/>
      <point x="613" y="39"/>
      <point x="548" y="0"/>
      <point x="454" y="0" type="curve" smooth="yes"/>
      <point x="401" y="0"/>
      <point x="311" y="0"/>
    </contour>
    <contour>
      <point x="294" y="177" type="line"/>
      <point x="390" y="177" type="line"/>
      <point x="390" y="589" type="line"/>
      <point x="294" y="589" type="line"/>
    </contour>
    <contour>
      <point x="53" y="0" type="line"/>
      <point x="149" y="0" type="line"/>
      <point x="149" y="591" type="line"/>
      <point x="53" y="591" type="line"/>
    </contour>
    <contour>
      <point x="53" y="595" type="line"/>
      <point x="54" y="499" type="line"/>
      <point x="499" y="499" type="line"/>
      <point x="499" y="595" type="line"/>
    </contour>
  </outline>
</glyph>
<glyph name="tml_Eight" format="1">
  <advance width="300"/>
  <unicode hex="0BEE"/>
  <outline>
    <contour>
      <point x="382" y="403" type="curve" smooth="yes"/>
      <point x="358" y="519"/>
      <point x="383" y="612"/>
      <point x="490" y="655" type="curve" smooth="yes"/>
      <point x="599" y="693"/>
      <point x="667" y="669"/>
      <point x="714" y="565" type="curve" smooth="yes"/>
      <point x="765" y="565"/>
      <point x="778" y="378"/>
      <point x="778" y="317" type="curve"/>
      <point x="695" y="251" type="line"/>
      <point x="682" y="402" type="line"/>
      <point x="682" y="455"/>
      <point x="656" y="554"/>
      <point x="603" y="554" type="curve" smooth="yes"/>
      <point x="550" y="614"/>
      <point x="512" y="604"/>
      <point x="475" y="553" type="curve" smooth="yes"/>
      <point x="441" y="482"/>
      <point x="543" y="391"/>
      <point x="584" y="311" type="curve" smooth="yes"/>
      <point x="583" y="266"/>
      <point x="527" y="242"/>
      <point x="545" y="227" type="curve" smooth="yes"/>
      <point x="505" y="252"/>
      <point x="382" y="302"/>
    </contour>
    <contour>
      <point x="383" y="163" type="curve"/>
      <point x="383" y="258" type="line"/>
      <point x="460" y="258"/>
      <point x="701" y="258"/>
      <point x="778" y="258" type="curve"/>
      <point x="779" y="67" type="line"/>
      <point x="779" y="-35"/>
      <point x="708" y="-127"/>
      <point x="582" y="-127" type="curve" smooth="yes"/>
      <point x="385" y="-127" type="line" smooth="yes"/>
      <point x="385" y="-31" type="line"/>
      <point x="575" y="-31" type="line" smooth="yes"/>
      <point x="647" y="-30"/>
      <point x="682" y="13"/>
      <point x="682" y="68" type="curve"/>
      <point x="682" y="163" type="line"/>
      <point x="644" y="163"/>
      <point x="422" y="163"/>
    </contour>
    <contour>
      <point x="39" y="72" type="curve" smooth="yes"/>
      <point x="39" y="188"/>
      <point x="123" y="259"/>
      <point x="253" y="259" type="curve" smooth="yes"/>
      <point x="328" y="259" type="line"/>
      <point x="328" y="162" type="line"/>
      <point x="235" y="162" type="line" smooth="yes"/>
      <point x="211" y="162"/>
      <point x="135" y="150"/>
      <point x="135" y="72" type="curve" smooth="yes"/>
      <point x="135" y="-2"/>
      <point x="199" y="-31"/>
      <point x="249" y="-31" type="curve" smooth="yes"/>
      <point x="329" y="-31" type="line"/>
      <point x="329" y="-127" type="line"/>
      <point x="242" y="-127" type="line" smooth="yes"/>
      <point x="130" y="-127"/>
      <point x="39" y="-47"/>
    </contour>
    <contour>
      <point x="737" y="163" type="line"/>
      <point x="737" y="258" type="line"/>
      <point x="856" y="258" type="line"/>
      <point x="856" y="163" type="line"/>
    </contour>
    <contour>
      <point x="854" y="-107" type="line"/>
      <point x="854" y="578" type="line"/>
      <point x="950" y="578" type="line"/>
      <point x="950" y="-107" type="line"/>
    </contour>
  </outline>
</glyph>
<glyph name="tml_Ten" format="1">
  <advance width="202"/>
  <unicode hex="0BF0"/>
  <outline>
    <contour>
      <point x="471" y="729" type="line"/>
      <point x="570" y="729" type="line"/>
      <point x="671" y="595" type="line"/>
      <point x="575" y="590" type="line"/>
    </contour>
    <contour>
      <point x="523" y="0" type="curve"/>
      <point x="523" y="94" type="line"/>
      <point x="557" y="94"/>
      <point x="575" y="118"/>
      <point x="575" y="148" type="curve" smooth="yes"/>
      <point x="575" y="595" type="line"/>
      <point x="671" y="595" type="line"/>
      <point x="671" y="145" type="line" smooth="yes"/>
      <point x="670" y="97"/>
      <point x="642" y="0"/>
    </contour>
    <contour>
      <point x="67" y="146" type="curve" smooth="yes"/>
      <point x="67" y="595" type="line"/>
      <point x="163" y="595" type="line"/>
      <point x="163" y="146" type="line" smooth="yes"/>
      <point x="163" y="107"/>
      <point x="185" y="94"/>
      <point x="209" y="94" type="curve"/>
      <point x="209" y="0" type="line"/>
      <point x="122" y="0"/>
      <point x="67" y="63"/>
    </contour>
    <contour>
      <point x="263" y="0" type="curve"/>
      <point x="263" y="94" type="line"/>
      <point x="287" y="94"/>
      <point x="321" y="97"/>
      <point x="321" y="147" type="curve" smooth="yes"/>
      <point x="321" y="595" type="line"/>
      <point x="416" y="595" type="line"/>
      <point x="416" y="147" type="line" smooth="yes"/>
      <point x="416" y="102"/>
      <point x="442" y="94"/>
      <point x="469" y="94" type="curve"/>
      <point x="469" y="0" type="line"/>
      <point x="421" y="0"/>
      <point x="391" y="0"/>
      <point x="367" y="36" type="curve"/>
      <point x="340" y="0"/>
      <point x="309" y="0"/>
    </contour>
  </outline>
</glyph>
<glyph name="tml_Day" format="1">
  <advance width="957"/>
  <unicode hex="0BF3"/>
  <outline>
    <contour>
      <point x="260" y="0" type="curve"/>
      <point x="260" y="96" type="line"/>
      <point x="296" y="96"/>
      <point x="322" y="125"/>
      <point x="322" y="181" type="curve" smooth="yes"/>
      <point x="322" y="238"/>
      <point x="295" y="263"/>
      <point x="260" y="263" type="curve"/>
      <point x="260" y="359" type="line" smooth="yes"/>
      <point x="349" y="359"/>
      <point x="418" y="281"/>
      <point x="418" y="215" type="curve" smooth="yes"/>
      <point x="418" y="159" type="line" smooth="yes"/>
      <point x="419" y="85"/>
      <point x="357" y="0"/>
    </contour>
    <contour>
      <point x="39" y="158" type="curve" smooth="yes"/>
      <point x="39" y="212" type="line" smooth="yes"/>
      <point x="39" y="316"/>
      <point x="147" y="359"/>
      <point x="205" y="359" type="curve"/>
      <point x="205" y="263" type="line" smooth="yes"/>
      <point x="173" y="263"/>
      <point x="137" y="243"/>
      <point x="137" y="181" type="curve" smooth="yes"/>
      <point x="137" y="129"/>
      <point x="166" y="96"/>
      <point x="205" y="96" type="curve"/>
      <point x="205" y="0" type="line" smooth="yes"/>
      <point x="107" y="0"/>
      <point x="39" y="90"/>
    </contour>
    <contour>
      <point x="39" y="219" type="line"/>
      <point x="39" y="304" type="line"/>
      <point x="39" y="444"/>
      <point x="101" y="605"/>
      <point x="288" y="605" type="curve"/>
      <point x="288" y="509" type="line"/>
      <point x="208" y="509"/>
      <point x="146" y="440"/>
      <point x="145" y="339" type="curve" smooth="yes"/>
    </contour>
    <contour>
      <point x="339" y="509" type="line"/>
      <point x="429" y="509"/>
      <point x="487" y="439"/>
      <point x="488" y="354" type="curve"/>
      <point x="488" y="124" type="line" smooth="yes"/>
      <point x="488" y="99"/>
      <point x="468" y="97"/>
      <point x="442" y="96" type="curve"/>
      <point x="442" y="0" type="line"/>
      <point x="919" y="0" type="line"/>
      <point x="919" y="96" type="line"/>
      <point x="583" y="96" type="line"/>
      <point x="583" y="355" type="line"/>
      <point x="582" y="466"/>
      <point x="506" y="605"/>
      <point x="339" y="605" type="curve"/>
    </contour>
  </outline>
</glyph>
